<svg width="800" height="800" viewBox="0 0 800 800" fill="none" xmlns="http://www.w3.org/2000/svg">
<g clip-path="url(#clip0_503_8836)">
<path d="M494.957 400.016L792.088 102.905C802.637 92.3539 802.637 75.2801 792.088 64.7326L735.302 7.92574C730.244 2.87164 723.381 0.026001 716.217 0.026001C709.052 0.026001 702.189 2.87164 697.131 7.92574L400 305.06L102.87 7.92574C97.8122 2.87164 90.9489 0.026001 83.7836 0.026001C76.62 0.026001 69.7551 2.87164 64.6993 7.92574L7.91319 64.7326C-2.63773 75.2801 -2.63773 92.3539 7.91319 102.905L305.044 400.018L7.94271 697.095C-2.60301 707.646 -2.60301 724.72 7.94271 735.267L64.7322 792.074C69.7863 797.128 76.6513 799.974 83.8166 799.974C90.9819 799.974 97.8452 797.128 102.904 792.074L399.999 494.975L697.095 792.074C702.152 797.128 709.015 799.974 716.181 799.974C723.348 799.974 730.211 797.128 735.265 792.074L792.055 735.267C802.6 724.72 802.6 707.646 792.055 697.095L494.957 400.016Z" fill="white"/>
</g>
<defs>
<clipPath id="clip0_503_8836">
<rect width="800" height="800" fill="white"/>
</clipPath>
</defs>
</svg>
