<svg width="800" height="800" viewBox="0 0 800 800" fill="none" xmlns="http://www.w3.org/2000/svg">
<g clip-path="url(#clip0_308_21)">
<path d="M582.943 177.933L583.716 183.873L574.815 185.715L573.631 198.367H584.292L598.474 197.002L605.795 188.298L598.013 185.271L593.752 180.368L587.352 170.003L584.292 155.344L572.265 157.795L568.893 162.961V168.786L574.684 172.751L582.943 177.933Z" fill="white"/>
<path d="M572.693 182.803L573.335 174.873L566.277 171.829L556.405 174.116L549.084 185.863V193.481H557.623L572.693 182.803Z" fill="white"/>
<path d="M369.505 216.481L367.333 222.075H356.82V227.504H359.321C359.321 227.504 359.469 228.656 359.683 230.17L366.132 229.627L370.163 227.126L371.216 222.075L376.432 221.631L378.488 217.386L373.701 216.399L369.505 216.481Z" fill="white"/>
<path d="M342.408 226.336L341.997 231.65L349.615 231.009L350.404 225.678L345.83 222.075L342.408 226.336Z" fill="white"/>
<path d="M799.901 395.862C799.786 384.165 799.194 372.549 798.091 361.115C794.39 322.994 785.275 286.453 771.62 252.199C770.6 249.649 769.662 247.066 768.576 244.549C750.379 201.559 724.829 162.419 693.553 128.642C691.496 126.437 689.407 124.265 687.317 122.126C681.411 115.99 675.34 110.001 669.055 104.259C597.948 39.5188 503.511 0 399.992 0C295.601 0 200.489 40.2262 129.185 105.954C112.568 121.271 97.2997 137.987 83.4468 155.887C31.1938 223.474 0 308.138 0 399.992C0 620.57 179.447 800 400.008 800C555.155 800 689.851 711.157 756.154 581.709C770.336 554.036 781.376 524.537 788.812 493.623C790.704 485.775 792.333 477.894 793.748 469.915C797.779 447.194 799.984 423.831 799.984 399.992C800 398.61 799.918 397.244 799.901 395.862ZM724.615 235.994L726.935 233.394C729.978 239.301 732.825 245.306 735.539 251.393L731.755 251.245L724.615 252.232V235.994ZM666.817 166.203L666.883 148.335C673.168 154.998 679.223 161.859 685.014 168.967L677.808 179.694L652.619 179.463L651.04 174.215L666.817 166.203ZM184.3 121.797V121.123H192.313L193.004 118.375H206.116V124.101L202.349 129.135H184.284L184.3 121.797ZM197.1 139.648C197.1 139.648 205.113 138.283 205.804 138.283C206.495 138.283 205.804 146.279 205.804 146.279L187.739 147.414L184.3 143.301L197.1 139.648ZM750.1 298.431H720.831L702.996 285.154L684.224 286.98V298.431H678.285L671.868 293.857L639.358 285.614V264.555L598.161 267.763L585.394 274.624H569.041L561.028 273.818L541.17 284.841V305.588L500.582 334.873L503.955 347.377H512.181L510.026 359.288L504.234 361.411L503.922 392.539L538.998 432.485H554.266L555.188 430.05H582.63L590.544 422.729H606.108L614.647 431.284L637.845 433.686L634.768 464.535L660.516 509.993L646.959 535.905L647.881 548.113L658.558 558.758V588.109L672.576 606.963V631.346H684.685C617.296 714.085 514.731 767.079 399.975 767.079C197.577 767.095 32.9049 602.406 32.9049 399.992C32.9049 349.039 43.3686 300.471 62.2067 256.329V244.878L75.3357 228.936C79.8931 220.331 84.7794 211.94 89.9949 203.764L90.5871 210.427L75.3357 228.936C70.6139 237.853 66.2211 246.968 62.2231 256.329V277.224L77.4746 284.561V313.6L92.1008 338.558L103.996 340.385L105.526 331.829L91.492 310.178L88.7445 289.135H96.9707L100.442 310.787L120.728 340.385L115.496 349.943L128.395 369.67L160.428 377.6V372.417L173.244 374.244L172.027 383.391L182.096 385.234L197.643 389.479L219.607 414.503L247.659 416.625L250.406 439.511L231.206 452.936L230.301 473.37L227.554 485.874L255.325 520.638L257.448 532.549C257.448 532.549 267.517 535.28 268.751 535.28C269.968 535.28 291.323 551.453 291.323 551.453V614.285L298.941 616.424L293.758 645.413L306.575 662.507L304.206 691.233L321.135 720.995L342.869 739.982L364.718 740.376L366.857 733.351L350.799 719.827L351.72 713.115L354.599 704.888L355.208 696.498L344.35 696.169L338.871 689.292L347.887 680.621L349.104 674.073L339.035 671.194L339.628 665.106L353.974 662.935L375.79 652.455L383.112 639.029L405.997 609.744L400.798 586.842L407.823 574.651L428.866 575.293L443.031 564.072L447.605 519.881L463.317 499.924L466.065 487.107L451.735 482.517L442.275 467.003L409.945 466.674L384.313 456.901L383.095 438.622L374.54 423.667L351.358 423.321L337.966 402.295L326.071 396.487L325.462 402.904L303.811 404.187L295.881 393.148L273.292 388.557L254.684 410.061L225.398 405.092L223.276 372.088L201.904 368.436L210.476 352.247L208.025 342.951L179.94 361.723L162.27 359.568L155.969 345.765L159.819 331.533L169.559 313.584L191.984 302.231L235.286 302.215L235.171 315.426L250.735 322.665L249.501 300.093L260.722 288.806L283.36 273.933L284.907 263.469L307.48 239.975L331.484 226.682L329.361 224.938L345.616 209.637L351.572 211.216L354.303 214.639L360.473 207.794L361.987 207.12L355.225 206.166L348.364 203.879V197.298L352 194.32H360.012L363.681 195.932L366.857 202.349L370.739 201.756V201.197L371.858 201.575L383.112 199.848L384.707 194.353L391.124 195.965V201.921L385.168 206.017H385.185L386.057 212.549L406.441 218.834C406.441 218.834 406.458 218.916 406.491 219.081L411.179 218.686L411.492 209.851L395.336 202.497L394.414 198.252L407.823 193.678L408.415 180.845L394.398 172.306L393.477 150.671L374.26 160.115H367.251L369.094 143.646L342.935 137.477L332.109 145.653V170.595L312.646 176.765L304.847 193.02L296.391 194.386V173.59L278.096 171.056L268.948 165.1L265.263 151.626L297.987 132.475L313.995 127.605L315.607 138.365L324.524 137.904L325.215 132.492L334.544 131.159L334.708 129.267L330.694 127.605L329.773 121.88L341.24 120.909L348.167 113.703L348.545 113.176L348.627 113.209L350.733 111.038L374.836 107.994L385.497 117.043L357.544 131.932L393.115 140.323L397.721 128.428H413.269L418.764 118.063L407.774 115.315V102.203L373.306 86.9347L349.516 89.6823L336.09 96.7075L337.012 113.785L322.978 111.646L320.823 102.203L334.264 89.9949L309.865 88.7774L302.857 90.8997L299.813 99.126L308.96 100.672L307.134 109.82L291.587 110.741L289.152 116.829L266.595 117.454C266.595 117.454 265.97 104.654 265.065 104.654C264.16 104.654 282.752 104.341 282.752 104.341L296.193 91.2123L288.856 87.5434L279.099 97.02L262.91 96.0987L253.154 82.6735H232.407L210.756 98.8463H230.597L232.407 104.654L227.258 109.442L249.222 110.05L252.578 117.98L227.85 117.059L226.649 110.955L211.101 107.599L202.859 103.025L184.35 103.173C244.944 59.0314 319.457 32.9049 399.992 32.9049C492.816 32.9049 577.629 67.6031 642.336 124.611L637.976 132.409L621.047 139.04L613.906 146.789L615.552 155.821L624.288 157.039L629.553 170.201L644.623 164.13L647.107 181.734H642.567L630.194 179.907L616.473 182.211L603.196 200.967L584.21 203.944L581.462 220.199L589.475 222.092L587.155 232.539L568.3 228.755L551.009 232.539L547.34 242.163L550.334 262.367L560.485 267.122L577.514 267.023L589.014 265.987L592.518 256.839L610.484 233.493L622.314 235.912L633.962 225.382L636.134 233.608L664.794 252.94L661.289 257.645L648.374 256.954L653.343 263.996L661.289 265.74L670.602 261.857L670.404 250.637L674.534 248.563L671.21 245.043L652.093 234.381L647.058 220.216H662.951L668.035 225.25L681.723 237.047L682.299 251.311L696.481 266.414L701.762 245.717L711.585 240.354L713.427 257.283L723.019 267.813L742.153 267.484C745.855 277.01 749.178 286.7 752.091 296.588L750.1 298.431ZM218.176 181.734L227.784 177.16L236.471 179.233L233.477 190.898L224.099 193.876L218.176 181.734ZM269.162 209.193V216.744H247.214L238.988 214.458L241.045 209.193L251.591 204.833H266.003V209.193H269.162ZM279.264 219.722V227.044L273.769 230.581L266.924 231.848C266.924 231.848 266.924 220.874 266.924 219.722H279.264ZM273.078 216.744V208.041L280.629 214.918L273.078 216.744ZM276.516 234.349V241.472L271.268 246.737H259.603L261.429 238.741L266.941 238.264L268.076 235.517L276.516 234.349ZM247.461 219.722H259.587L244.039 241.456L237.623 238.017L239.005 228.87L247.461 219.722ZM297.115 231.848V238.955H285.45L282.258 234.349V227.735H283.179L297.115 231.848ZM286.338 222.075L289.662 218.587L295.272 222.075L290.78 225.777L286.338 222.075ZM756.056 316.956L757.207 315.607C757.684 317.68 758.194 319.753 758.655 321.859L756.056 316.956Z" fill="white"/>
<path d="M62.2231 244.878V256.329C66.2211 246.984 70.6303 237.869 75.3522 228.936L62.2231 244.878Z" fill="white"/>
</g>
<defs>
<clipPath id="clip0_308_21">
<rect width="800" height="800" fill="white"/>
</clipPath>
</defs>
</svg>
