<svg width="800" height="800" viewBox="0 0 800 800" fill="none" xmlns="http://www.w3.org/2000/svg">
<g clip-path="url(#clip0_482_6986)">
<path d="M330.435 243.479H747.826C776.64 243.479 800 220.119 800 191.305C800 162.491 776.64 139.131 747.826 139.131H330.435C301.621 139.131 278.261 162.491 278.261 191.305C278.261 220.119 301.621 243.479 330.435 243.479Z" fill="#EAF1E9"/>
<path d="M747.826 347.826H330.435C301.621 347.826 278.261 371.186 278.261 400C278.261 428.814 301.621 452.174 330.435 452.174H747.826C776.64 452.174 800 428.814 800 400C800 371.186 776.64 347.826 747.826 347.826Z" fill="#EAF1E9"/>
<path d="M747.826 556.521H330.435C301.621 556.521 278.261 579.881 278.261 608.695C278.261 637.509 301.621 660.869 330.435 660.869H747.826C776.64 660.869 800 637.509 800 608.695C800 579.881 776.64 556.521 747.826 556.521Z" fill="#EAF1E9"/>
<path d="M52.1739 556.521C38.4348 556.521 25.0052 562.087 15.2696 571.791C5.56522 581.53 0 594.956 0 608.695C0 622.435 5.56522 635.861 15.2696 645.6C25.0052 655.304 38.4348 660.869 52.1739 660.869C65.913 660.869 79.3391 655.304 89.0748 645.6C98.7791 635.861 104.348 622.435 104.348 608.695C104.348 594.956 98.7791 581.53 89.0748 571.791C79.3391 562.087 65.913 556.521 52.1739 556.521Z" fill="#EAF1E9"/>
<path d="M52.1739 347.826C38.4348 347.826 25.0052 353.391 15.2696 363.096C5.56522 372.835 0 386.261 0 400C0 413.739 5.56522 427.165 15.2696 436.904C25.0052 446.609 38.4348 452.174 52.1739 452.174C65.913 452.174 79.3391 446.609 89.0748 436.904C98.7791 427.165 104.348 413.739 104.348 400C104.348 386.261 98.7791 372.835 89.0748 363.096C79.3391 353.391 65.913 347.826 52.1739 347.826Z" fill="#EAF1E9"/>
<path d="M52.1739 139.131C38.4348 139.131 25.0052 144.696 15.2696 154.4C5.56522 164.14 0 177.566 0 191.305C0 205.044 5.56522 218.47 15.2696 228.209C25.0052 237.913 38.4348 243.479 52.1739 243.479C65.913 243.479 79.3391 237.913 89.0748 228.209C98.7791 218.47 104.348 205.044 104.348 191.305C104.348 177.566 98.7791 164.14 89.0748 154.4C79.3391 144.696 65.913 139.131 52.1739 139.131Z" fill="#EAF1E9"/>
</g>
<defs>
<clipPath id="clip0_482_6986">
<rect width="800" height="800" fill="white"/>
</clipPath>
</defs>
</svg>
