<svg width="1035" height="777" viewBox="0 0 1035 777" fill="none" xmlns="http://www.w3.org/2000/svg">
<g opacity="0.1">
<path d="M225.5 524.96C231.76 519.96 237.1 514.37 237.1 505.04C237.1 499.01 233.46 487.98 212.87 487.98C209 487.98 204.56 488.32 198.98 488.32C196.71 488.32 189.53 487.98 183.5 487.98C181.8 487.98 181 488.2 181 489C181 489.8 181.69 490.03 182.93 490.03C184.53 490.03 186.46 490.15 187.36 490.37C191.12 491.17 192.04 492.99 192.25 496.86C192.48 500.5 192.48 503.69 192.48 520.98V541.02C192.48 551.49 192.48 560.48 191.91 565.25C191.45 568.55 190.88 571.05 188.61 571.51C187.58 571.74 186.22 571.97 184.51 571.97C183.14 571.97 182.69 572.31 182.69 572.88C182.69 573.68 183.49 574.02 184.97 574.02C187.24 574.02 190.2 573.79 192.81 573.79C195.54 573.68 198.05 573.68 199.3 573.68C201 573.68 204.42 573.79 207.83 574.02C211.13 574.14 214.44 574.36 215.81 574.36C236.74 574.36 246.19 561.73 246.19 549.56C246.22 536.23 234.83 528.15 225.5 524.96ZM206.16 494.81C206.16 493.55 206.39 493.09 207.19 492.88C208.33 492.65 209.35 492.65 210.95 492.65C220.73 492.65 225.17 502.66 225.17 510.28C225.17 515.86 223.45 519.96 220.51 522.34C218.58 524.06 216.06 524.5 212.32 524.5C209.7 524.5 207.99 524.39 206.97 524.16C206.51 524.05 206.17 523.82 206.17 522.9V494.81H206.16ZM218.45 569.23C215.84 569.23 213.22 569.11 210.15 567.86C206.5 566.37 206.16 564.44 206.16 556.94V529.97C206.16 529.4 206.39 529.17 206.85 529.17C208.55 529.17 209.69 529.17 211.74 529.29C216.18 529.52 218.79 530.31 221.18 532.02C229.83 538.05 232.21 547.61 232.21 554.65C232.21 566.5 223.57 569.23 218.45 569.23Z" fill="#015152"/>
<path d="M339.75 571.96C338.38 571.96 336.68 571.84 334.98 571.5C332.59 570.93 329.29 569.34 324.96 559.1C317.67 541.81 299.47 496.28 296.74 490.03C295.6 487.42 294.92 486.39 293.89 486.39C292.75 486.39 292.08 487.63 290.71 490.93L262.14 561.49C259.87 567.17 257.71 571.04 252.47 571.73C251.56 571.84 249.97 571.96 248.94 571.96C248.03 571.96 247.57 572.19 247.57 572.87C247.57 573.78 248.25 574.01 249.73 574.01C255.64 574.01 261.9 573.67 263.16 573.67C266.69 573.67 271.58 574.01 275.22 574.01C276.48 574.01 277.15 573.78 277.15 572.87C277.15 572.19 276.81 571.96 275.45 571.96H273.75C270.22 571.96 269.19 570.47 269.19 568.43C269.19 567.06 269.76 564.33 270.89 561.49L277.04 545.89C277.27 545.21 277.49 544.98 278.06 544.98H303.44C304.01 544.98 304.36 545.21 304.58 545.78L313.69 569.22C314.26 570.59 313.46 571.61 312.66 571.83C311.52 571.95 311.06 572.18 311.06 572.86C311.06 573.66 312.43 573.66 314.48 573.77C323.58 574 331.88 574 335.98 574C340.2 574 341.21 573.77 341.21 572.86C341.23 572.07 340.66 571.96 339.75 571.96ZM301.29 539.3H280.36C279.9 539.3 279.79 538.96 279.9 538.5L290.37 510.62C290.49 510.17 290.72 509.6 291.06 509.6C291.4 509.6 291.52 510.17 291.63 510.62L301.87 538.62C301.97 538.96 301.85 539.3 301.29 539.3Z" fill="#015152"/>
<path d="M417.36 569.68C418.51 565.81 419.87 555.92 419.87 554.55C419.87 553.64 419.64 552.85 418.84 552.85C417.92 552.85 417.7 553.31 417.35 555.12C416.9 557.17 415.42 560.47 413.48 562.64C408.94 567.87 402.79 569.01 392.66 569.01C377.41 569.01 356.82 555.58 356.82 528.5C356.82 517.45 358.98 506.65 367.29 499.03C372.31 494.47 378.78 491.97 388.69 491.97C399.16 491.97 408.03 495.04 411.78 499.03C414.62 501.99 416.11 505.97 416.21 509.5C416.21 511.1 416.44 512 417.35 512C418.38 512 418.61 511.09 418.72 509.39C418.95 507.12 418.84 500.86 419.07 497.1C419.29 493.11 419.64 491.75 419.64 490.84C419.64 490.16 419.18 489.58 417.92 489.47C414.51 489.13 410.87 488.1 406.55 487.54C401.32 486.85 397.1 486.4 390.05 486.4C373.08 486.4 362.28 490.94 354.09 498.46C343.17 508.48 340.77 521.9 340.77 529.64C340.77 540.67 343.73 553.42 354.88 563.21C365.24 572.2 378.32 575.61 393.91 575.61C401.18 575.61 409.84 574.81 414.39 573C416.34 572.19 416.79 571.62 417.36 569.68Z" fill="#015152"/>
<path d="M468.11 571.96C466.64 571.96 464.13 571.73 462.54 571.5C459.7 571.04 458.67 568.54 458.44 565.36C458.1 560.47 458.1 551.47 458.1 541.01V530.65H458.67L459.93 532.35C462.31 535.65 484.73 561.93 489.74 566.37C494.63 570.7 497.7 573.2 503.84 573.77C506.23 574 508.27 574 511.69 574H521.59C523.75 574 524.32 573.66 524.32 572.86C524.32 572.18 523.64 571.95 522.85 571.95C521.48 571.95 519.2 571.61 515.79 570.25C509.64 567.86 504.53 562.73 499.51 557.96C495.08 553.74 472.78 529.73 468.68 524.39C472.55 520.29 489.73 503.22 493.26 499.81C498.14 495.02 502.02 492.64 505.54 491.28C507 490.74 508.78 490.35 510.28 490.17C511.45 490.4 512.78 490.93 513.86 491.51C516.02 492.75 518.88 495.59 521.71 499.81C525.7 505.73 540.94 530.76 541.73 532.58C543.22 535.88 544.35 538.38 544.35 544.53V553.86C544.35 555.67 544.35 560.46 544.01 565.23C543.78 568.53 542.75 571.03 540.48 571.49C539.45 571.72 538.09 571.95 536.49 571.95C535.25 571.95 534.67 572.29 534.67 572.86C534.67 573.77 535.59 574 537.18 574C541.39 574 548.55 573.66 551.4 573.66C554.47 573.66 561.64 574 568.8 574C570.29 574 571.19 573.66 571.19 572.86C571.19 572.29 570.62 571.95 569.37 571.95C567.79 571.95 565.27 571.72 563.69 571.49C560.27 571.03 559.24 568.53 559.03 565.23C558.68 560.46 558.68 555.67 558.68 553.86V544.53C558.68 540.77 558.68 537.24 560.38 533.15C562.43 528.26 578.36 501.51 582.12 496.96C584.62 493.89 585.88 492.53 588.26 491.39C589.98 490.48 592.14 490.02 593.28 490.02C594.52 490.02 595.44 489.68 595.44 488.88C595.44 488.19 594.64 487.97 593.39 487.97C591.23 487.97 583.72 488.31 581.22 488.31C577.92 488.31 574.27 487.97 570.51 487.97C569.14 487.97 568.58 488.19 568.58 488.99C568.58 489.68 569.61 489.91 570.63 490.14C572.56 490.59 573.02 491.84 573.02 492.98C573.02 494.45 572.56 496.39 571.42 498.9C569.82 502.43 555.49 527.46 554.34 530.19C552.53 527 536.6 499.58 535 496.17C534.2 494.57 533.63 493.21 533.63 492.29C533.63 491.38 534.2 490.48 535.23 490.25C536.93 489.79 537.73 489.68 537.73 488.99C537.73 488.31 537.16 487.97 536.01 487.97C530.9 487.97 526.23 488.31 523.84 488.31C521.21 488.31 516.21 488.14 512.77 488.04C512.52 487.98 512.21 487.97 511.89 487.97C511.48 487.97 511.03 487.97 510.55 487.98H510.45C510.05 487.97 509.74 487.97 509.5 487.97C509.19 487.97 508.91 487.98 508.67 488.02C508.65 488.03 508.62 488.03 508.6 488.03C505.24 488.13 501.17 488.31 498.58 488.31C495.51 488.31 489.25 487.97 486.86 487.97C485.62 487.97 485.05 488.19 485.05 488.99C485.05 489.68 485.5 489.91 486.52 490.14C487.66 490.36 488.12 491.16 488.12 492.41C488.12 494.34 485.62 497.18 482.43 500.94C479.13 504.81 462.51 521.76 458.65 525.98H458.08V520.96C458.08 503.67 458.08 500.48 458.31 496.84C458.54 492.86 459.45 490.92 462.52 490.35C463.89 490.13 464.57 490.01 465.71 490.01C466.62 490.01 467.31 489.78 467.31 488.98C467.31 488.18 466.51 487.96 464.92 487.96C461.05 487.96 453.87 488.3 451.14 488.3C448.41 488.3 441.24 487.96 435.21 487.96C433.51 487.96 432.71 488.18 432.71 488.98C432.71 489.78 433.4 490.01 434.64 490.01C436.24 490.01 438.17 490.13 439.07 490.35C442.83 491.15 443.73 492.97 443.96 496.84C444.19 500.48 444.19 503.67 444.19 520.96V541C444.19 551.47 444.19 560.46 443.62 565.23C443.16 568.53 442.59 571.03 440.32 571.49C439.29 571.72 437.93 571.95 436.22 571.95C434.85 571.95 434.4 572.29 434.4 572.86C434.4 573.66 435.2 574 436.68 574C441.22 574 448.39 573.66 451.01 573.66C453.85 573.66 461.03 574 467.4 574C468.66 574 469.56 573.66 469.56 572.86C469.6 572.3 469.03 571.96 468.11 571.96Z" fill="#015152"/>
<path d="M671.82 571.96C670.45 571.96 668.74 571.84 667.03 571.5C664.64 570.93 661.34 569.34 657.01 559.1C649.74 541.81 631.52 496.28 628.79 490.03C627.65 487.42 626.97 486.39 625.95 486.39C624.81 486.39 624.13 487.63 622.76 490.93L594.2 561.49C591.92 567.17 589.75 571.04 584.52 571.73C583.61 571.84 582.02 571.96 580.99 571.96C580.08 571.96 579.62 572.19 579.62 572.87C579.62 573.78 580.31 574.01 581.78 574.01C587.7 574.01 593.96 573.67 595.21 573.67C598.74 573.67 603.63 574.01 607.28 574.01C608.52 574.01 609.21 573.78 609.21 572.87C609.21 572.19 608.86 571.96 607.49 571.96H605.79C602.26 571.96 601.23 570.47 601.23 568.43C601.23 567.06 601.81 564.33 602.95 561.49L609.09 545.89C609.32 545.21 609.55 544.98 610.12 544.98H635.5C636.07 544.98 636.41 545.21 636.64 545.78L645.74 569.22C646.31 570.59 645.51 571.61 644.71 571.83C643.57 571.95 643.13 572.18 643.13 572.86C643.13 573.66 644.5 573.66 646.54 573.77C655.64 574 663.95 574 668.05 574C672.26 574 673.28 573.77 673.28 572.86C673.29 572.07 672.73 571.96 671.82 571.96ZM633.35 539.3H612.41C611.96 539.3 611.84 538.96 611.96 538.5L622.43 510.62C622.54 510.17 622.77 509.6 623.11 509.6C623.46 509.6 623.57 510.17 623.68 510.62L633.93 538.62C634.03 538.96 633.92 539.3 633.35 539.3Z" fill="#015152"/>
<path d="M841.72 500.95C829.31 487.98 810.31 487.98 796.09 487.98C789.26 487.98 782.1 488.32 778.57 488.32C775.38 488.32 768.21 487.98 762.18 487.98C760.48 487.98 759.68 488.2 759.68 489C759.68 489.8 760.36 490.03 761.61 490.03C763.21 490.03 765.14 490.15 766.04 490.37C769.8 491.17 770.7 492.99 770.93 496.86C771.16 500.5 771.16 503.69 771.16 520.98V541.02C771.16 551.49 771.16 560.48 770.59 565.25C770.13 568.55 769.56 571.05 767.29 571.51C766.26 571.74 764.9 571.97 763.19 571.97C762.96 571.97 762.75 571.98 762.57 571.99C762.45 571.98 762.3 571.97 762.15 571.97C761.24 571.97 760.22 571.85 758.97 571.63C757.27 571.28 752.59 570.48 746.22 563.88C739.51 556.82 731.66 546.7 721.53 533.96C733.02 524.63 736.55 516.88 736.55 508.47C736.55 500.84 731.99 495.03 728.82 492.88C722.67 488.66 715.04 487.99 707.88 487.99C704.35 487.99 695.7 488.33 691.83 488.33C689.44 488.33 682.27 487.99 676.24 487.99C674.54 487.99 673.74 488.21 673.74 489.01C673.74 489.81 674.43 490.04 675.67 490.04C677.27 490.04 679.2 490.16 680.1 490.38C683.86 491.18 684.76 493 684.99 496.87C685.22 500.51 685.22 503.7 685.22 520.99V541.03C685.22 551.5 685.22 560.49 684.65 565.26C684.19 568.56 683.62 571.06 681.35 571.52C680.32 571.75 678.96 571.98 677.25 571.98C675.88 571.98 675.43 572.32 675.43 572.89C675.43 573.69 676.23 574.03 677.71 574.03C682.25 574.03 689.42 573.69 691.58 573.69C693.3 573.69 701.71 574.03 708.32 574.03C709.79 574.03 710.59 573.69 710.59 572.89C710.59 572.32 710.13 571.98 709.22 571.98C707.85 571.98 705.35 571.75 703.65 571.52C700.23 571.06 699.54 568.56 699.2 565.26C698.63 560.49 698.63 551.5 698.63 540.91V539.31C698.63 538.63 698.97 538.4 699.54 538.4L709.45 538.63C710.25 538.63 710.92 538.74 711.49 539.43C712.98 541.13 718.21 548.87 722.75 555.13C729.13 563.89 733.46 569.24 738.34 571.85C741.3 573.45 744.15 574.01 750.52 574.01H761.32C761.77 574.01 762.15 573.99 762.47 573.91C762.78 573.98 763.17 574.01 763.61 574.01C765.89 574.01 768.84 573.78 771.46 573.78C774.19 573.67 776.69 573.67 777.95 573.67C780.79 573.67 784.78 574.01 789.1 574.35C793.41 574.7 798.08 575.04 802.18 575.04C823.23 575.04 835.07 566.96 840.31 561.61C846.68 555.12 852.71 544.2 852.71 529.86C852.75 516.31 847.41 506.87 841.72 500.95ZM716.42 531.22C714.38 532.69 712.89 533.15 708.35 533.15C705.5 533.15 702.09 532.81 699.7 532.01C698.9 531.66 698.67 531.21 698.67 529.96V495.38C698.67 494.46 698.9 494.01 699.7 493.78C700.84 493.44 702.89 493.32 705.73 493.32C712.45 493.32 723.14 497.98 723.14 514.14C723.14 523.49 719.84 528.72 716.42 531.22ZM827.94 561.5C821.11 567.41 813.38 569.68 801.78 569.68C792.79 569.68 788.35 567.3 786.87 565.14C785.96 563.88 785.73 559.34 785.63 556.49C785.51 554.33 785.4 545.57 785.4 533.51V519.18C785.4 510.19 785.4 500.29 785.51 496.41C785.51 495.17 785.85 494.6 786.88 494.14C787.8 493.68 792 493.34 794.28 493.34C803.16 493.34 816.13 494.71 826.59 504.72C831.48 509.38 837.51 518.71 837.51 533.17C837.5 544.88 835.23 555.24 827.94 561.5Z" fill="#015152"/>
<path d="M695.73 434.44C695.27 429.86 690.85 427.53 687.08 425.97C686.8 417.93 688.12 409.51 685.01 401.87C683.36 397.46 680.4 393.77 677.5 390.14C679.4 385.5 680.92 380.13 678.57 375.36C677.06 370.87 672.18 366.88 667.33 368.87C662.39 371.43 659.97 376.87 657.66 381.65C654.99 381.71 652.35 381.78 649.7 381.87C649.79 374.41 649.94 366.32 645.51 359.91C642.38 354.5 637.17 350.84 631.59 348.34C631.15 347.43 630.26 345.62 629.82 344.72C627.31 344.67 624.82 344.67 622.33 344.67C621.81 345.21 620.8 346.3 620.29 346.83C610.66 346.75 601.04 346.66 591.39 346.88C587.53 324.26 566.78 305.73 543.62 305.62C514.55 305.3 485.47 305.51 456.41 305.5C445.21 305.25 434.78 314.59 434.28 325.86C434.03 342.86 434.17 359.87 434.2 376.88C434.22 388.33 434.19 399.78 433.96 411.23C432 399.86 430.83 388.38 428.66 377.07C421.06 377.09 413.46 377.11 405.86 377.14H400.62C400.66 377.05 400.7 376.97 400.74 376.88H380.4C380.43 376.96 380.47 377.03 380.51 377.11C378.72 377.11 376.93 377.11 375.14 377.1C375.02 377.11 374.9 377.11 374.78 377.1C373.76 377.1 372.76 377.09 371.75 377.09C371.8 377.02 371.85 376.95 371.91 376.88H317.91C317.81 386.32 317.86 395.76 317.95 405.2C330.25 393.69 346.96 384.42 364.33 387.49C382.09 390.54 398.6 407.76 394.97 426.6C390.47 414.7 382.44 404.12 370.95 398.25C378.55 406.42 386.25 415.94 385.21 427.87C382.26 422.71 381.56 416.32 377.28 411.98C373.4 407.76 368.98 404.07 364.52 400.45C365.1 402.45 365.67 404.46 366.27 406.48C359.09 401.15 349.56 397.49 340.86 401.37C332.28 404.18 327.72 413.97 318.21 414.61C317.04 421.62 315.96 428.65 315.66 435.76C313.49 435.35 311.31 435.02 309.14 434.7C315.9 439.29 324.23 437.31 331.86 438.31C330.84 431.74 330.84 424.97 333.16 418.67C334.88 418.67 336.6 418.68 338.33 418.72C336.53 422.89 335.75 427.36 335.88 431.93C337.91 429.58 338.63 425.66 341.89 424.7C343.59 427.45 342.28 430.32 341.29 433.05C345.16 427.29 350.12 421.21 357.41 420.17C365.28 418.73 373.05 423.29 377.24 429.78C384.79 441.55 383.86 458.15 375.08 469.05C366.95 469.44 358.66 469.83 350.56 468.88C343.15 461 343.08 449.61 343.28 439.47C338.79 452.3 342.12 466.94 350.42 477.5H378.94C380.29 475.73 381.67 474.01 383.06 472.27C384.97 471.65 386.85 470.95 388.69 470.15C387.65 469.89 385.6 469.35 384.56 469.1C387.08 463.17 388.66 456.86 389.06 450.43C395.4 450.13 401.72 449.21 408.08 449.35C412.46 451.17 414.28 457.92 419.72 457C427.62 453.97 434.67 448.69 443.29 447.61C443.42 453.33 445.15 458.79 448.19 463.61C431.48 463.76 414.77 463.31 398.08 463.82C399.2 465.54 400.8 466.25 402.88 465.98C417.95 466.07 433 465.93 448.07 466.02C450.88 465.67 452.91 468.01 455.12 469.32C440.86 469.32 426.57 469.33 412.31 469.32L412.29 471.76C430.39 471.95 448.51 471.14 466.6 472.36C470.37 472.45 474.09 471.76 477.84 471.3C484.78 465.43 491.2 457.97 490.8 448.23C496.53 448.5 502.28 448.57 508.02 448.27C509.44 444.04 514.07 444.75 517.53 443.71C519.35 438.21 519.23 432.04 522.51 427.05C524.86 422.61 529.28 419.98 533.62 417.81C527.65 423.89 521.94 431.02 521.32 439.9C519.44 451.3 525.55 462.12 533.87 469.41C517.01 469.35 500.13 469.14 483.27 469.49C482.4 469.98 480.64 471.01 479.77 471.52C498.86 472.18 517.97 471.3 537.06 471.92C545.22 474.09 553.75 477.12 562.23 474.36C574.21 469.49 587.25 472.45 599.79 471.76L599.97 469.32C591.3 469.41 582.61 469.22 573.93 469.46C578.97 465.2 583.13 459.92 585.59 453.75C590.57 453.67 595.55 453.67 600.54 453.75C596.15 451.81 592.29 448.99 589.23 445.28C595.7 444.98 602.19 445.1 608.66 445.06C608.89 446.27 609.34 448.71 609.56 449.92C614.29 449.92 619.27 450.35 623.76 448.61C626.34 446.83 628.59 444.63 631.07 442.72C628.81 452.04 618.9 455.01 610.44 453.8C613.65 460.1 618.46 465.34 624.23 469.4C620.34 469.61 615.99 468.41 612.65 471.01C625.67 471.54 638.86 473.86 651.82 471.38C656.55 467.61 662.24 464.69 665.47 459.36C668.44 455.16 669.63 450.08 670.56 445.1C677.94 444.92 685.39 445.52 692.76 444.75C697.1 443.46 695.77 437.84 695.73 434.44ZM324.7 423.7C323.23 425.91 323.95 429.16 321.89 431.06C319.49 427.4 320.47 422.88 320.23 418.78C323.05 418.78 325.84 418.82 328.65 418.9C327.34 420.5 325.95 422.03 324.7 423.7ZM353.58 472.01C359.57 471.53 365.62 471.54 371.61 472.06C366.25 475.89 358.97 475.6 353.58 472.01ZM668.19 371.57C673.57 369.88 676.95 376.67 676.87 381.14C677.41 385.46 674.44 388.81 671.08 391C663.82 387.75 661.3 376.38 668.19 371.57ZM646.58 376.23C647.15 384.26 646.5 392.34 646.55 400.4C650.86 400.4 655.16 400.38 659.48 400.67C656.14 404.73 649.81 402.02 645.28 403.39C649.44 406.21 654.68 404.73 659.39 405.26C656.77 409.95 649.75 406.55 645.4 408.19C645.87 408.97 646.84 410.5 647.32 411.28C653.63 411.75 660.23 412.05 666.34 410.07C672.88 406.91 673.29 398.89 673.79 392.59C681.16 399.66 683.74 409.84 683.01 419.82C681.36 418.3 679.74 416.79 678.11 415.28C675.63 416.81 673.1 418.18 670.52 419.52C670.4 421.63 670.23 423.76 670.02 425.89C666.93 427.53 664.26 424.13 661.13 424.35C651.53 424.13 641.93 424.32 632.32 424.36C629.76 427.12 625.64 427.35 622.85 424.74C620.15 424.39 617.46 424.18 614.79 423.71C615.18 419.43 620.72 421.15 623.66 420.71C623.61 419.71 623.5 417.68 623.45 416.68C619.76 415.83 611.64 418.43 611.61 412.85C616.61 409.37 623.49 411.32 629.29 410.97C628.87 410.12 628.05 408.41 627.65 407.55C621.24 407.59 614.84 407.87 608.47 407.2C613.04 402.71 620.42 406.24 626.16 404.9C620.51 400.82 612.96 403.78 606.52 402.41C610.4 398.68 616.4 401.07 621.21 400.28C615.53 394.99 607.99 392.73 601.45 388.8C601.01 383.37 599.96 377.1 602.17 372.09C611.39 371.51 620.69 372.99 629.86 371.46C620.32 368.22 610.18 369.69 600.36 368.86C600.29 368.12 600.18 366.66 600.11 365.92C611.37 364.62 622.84 364.53 634.1 366.02C639.74 366.56 645.62 370.3 646.58 376.23ZM602.26 349.42C612.95 349.67 624.66 348.03 634.22 353.96C638.12 356.17 640.46 360.07 642.73 363.8C636.87 357.39 629.11 352.76 620.37 351.8C605.33 349.46 590.37 353.37 575.37 354.32C567.02 355.02 558.64 354.32 550.29 354.78C550.13 353.31 549.94 351.83 549.77 350.37C567.02 354.7 584.8 349.45 602.26 349.42ZM588.78 389.31C580.12 390.24 575.74 376.24 582.14 371.1C590.92 368.69 595.72 384.46 588.78 389.31ZM563.62 313.85C576.71 319.88 585.41 333.01 588.49 346.79C576.96 346.79 565.45 346.85 553.92 346.77C549.45 336.07 549.38 324.08 544.23 313.6C550.68 313.77 557.18 313.22 563.62 313.85ZM506.62 313.66C518.39 313.55 530.15 313.6 541.93 313.72C546.68 324.3 547.5 336.04 551.27 346.94C547.47 346.82 543.67 346.75 539.89 346.87C542.42 348.33 545.13 349.48 548 350.17C548.46 351.12 549.36 353.05 549.81 354.01C538.06 353.37 526.39 351.07 515.21 347.42C512.35 346.66 510.9 343.88 509.3 341.66C504.49 334 501.9 325.21 497.2 317.5C500.1 315.74 503 313.42 506.62 313.66ZM456.59 316.5C467.04 315.99 478.61 315.06 487.75 321.26C495.97 326.17 500.97 335.04 502.72 344.27C499.66 341.72 496.76 339 493.94 336.21C496.23 340.72 495.97 345.83 491.38 348.79C495.18 352.27 499.01 355.82 501.63 360.33C496.57 359.95 493.67 355.08 490 352.18C489.11 353.15 487.27 355.08 486.37 356.05C480.8 353.75 476.1 348.07 476.97 341.77C477.57 337.42 482.73 336.46 485.78 334.14C481.36 333.32 475.96 334.55 474.17 339.11C472.28 343.63 474.96 348.14 477.12 351.98C472.11 351.77 467.15 351.07 462.37 349.51C462.52 342.26 461.09 334.65 463.35 327.64C466.68 320.37 475.48 322.01 481.98 321.21C474.36 318.7 466.17 319.35 458.32 319.88C452.01 320.69 448.27 326.12 444.95 330.93C445.47 324.24 449.46 317.54 456.59 316.5ZM439.59 353.8C444.91 352.62 448.75 357.73 453.81 358.31C459.12 358.88 464.47 358.21 469.8 358.04C462.37 356.99 454.01 357.96 447.76 353.09C443.91 350.82 445.46 346 445 342.37C447.03 346.23 449.32 350.37 453.61 352.07C461.41 355.36 470.1 352.79 478.25 353.84C480.99 355.41 483.66 357.13 486.54 358.47C487.41 357.38 489.17 355.22 490.04 354.13C492.6 356.23 493.67 360.03 489.94 361.65C472.68 362.49 455.4 360.96 438.14 360.52C438.66 358.33 437.74 355.43 439.59 353.8ZM439.37 363.99C457.36 363.63 475.38 364.18 493.4 363.86C507.29 363.93 521.34 363.01 535.04 365.77C540.46 373.73 550.73 369.62 558.73 370.38C553.33 372.28 547.99 374.52 543.62 378.32C539.08 378.37 534.52 378.31 529.98 378.13C529.29 374.59 530.39 370.01 526.73 367.78C526.13 373.67 526.5 379.58 526.2 385.48C524.37 385.5 522.54 385.51 520.75 385.55C520.65 380.26 520.63 374.97 520.66 369.71C493.06 367.36 465.32 368.79 437.66 368.42C438.07 367.31 438.94 365.1 439.37 363.99ZM492.28 414.09C478.2 416.42 463.35 417.48 449.41 413.74C463.62 412.13 478.08 412.48 492.28 414.09ZM440.7 373.56C440.58 372.71 440.31 371 440.19 370.14C443.56 370.23 446.97 370.36 450.36 370.6C449.67 375.55 444.07 373.43 440.7 373.56ZM459.66 392.65C471.5 392.15 483.44 392.01 495.26 393C483.58 395.17 471.15 396.46 459.66 392.65ZM478.66 458.53C474.92 465.28 465.51 468.29 458.79 464.22C452.4 460.86 449.62 453.04 451.24 446.2C452.36 453.26 456.51 461.61 464.82 461.34C473.55 462.09 478.51 453.6 480.55 446.33C480.77 450.44 481.06 454.9 478.66 458.53ZM563.66 469.14C557.01 469.46 550.29 469.67 543.67 469.02C538.37 467.25 533.79 463.52 530.69 458.89C531.29 458.45 532.52 457.58 533.12 457.15C532.05 457.11 529.93 457.06 528.88 457.05C525 449.08 524.13 439.22 528.59 431.3C535.6 417.95 553.75 412.39 567.06 419.39C571.09 421.28 572.17 425.96 574.12 429.56C575.94 433.73 580.06 436.11 582.72 439.69C584 452.25 576.14 465.78 563.66 469.14ZM579.53 420.56C579.62 421.6 579.84 423.68 579.95 424.71C568.88 406.43 543.09 397.9 523.95 408.36C514.11 413.56 508.35 424.1 506.8 434.85C502.37 437.84 497.1 439.38 491.76 439.25C460.4 439.34 429.04 439.34 397.68 439.23C393.7 439.52 390.11 437.74 387.17 435.24C399.32 433.85 411.58 434.71 423.76 434.42C422.37 428.7 419.48 423.58 416.31 418.7C422.26 418.68 428.23 418.72 434.2 418.7C434.9 423.35 432.24 429.87 436.41 433.16C455.35 434.02 474.34 433.25 493.32 433.54C496.89 433.93 500.83 432.51 502.25 428.96C503.25 423.13 502.43 416.96 504.91 411.41C511.44 394.67 528.46 384.5 545.44 381.03C541.76 383.63 537.98 386.14 535.08 389.62C545.36 383.51 556.83 379.4 568.96 379.77C572.25 374.94 575.31 369.25 581.57 367.58C576.8 371.65 575.1 377.88 574.05 383.82C564.41 383.46 552.48 381.73 545.12 389.42C557.4 395.52 568.94 403.75 576.11 415.74C580.78 412.52 586.21 410.83 591.79 410.03C590.92 408.78 590.05 407.54 589.19 406.3C590.28 405.39 592.48 403.6 593.57 402.71C591.96 399.28 589.75 396.23 587.42 393.27C597.93 397.13 605.63 406.12 609.33 416.52C606.22 415.47 603.35 413.95 600.75 411.98C603.09 415.43 605.09 419.12 606.72 422.99C598.03 419.82 588.61 417.93 579.53 420.56ZM635.53 458.87C640.57 456.24 645.8 453.98 650.39 450.6C649.97 458.19 641.82 460.28 635.53 458.87ZM621.85 442.2C621.36 441.85 620.36 441.16 619.86 440.82C610.92 443.47 601.35 441.56 592.13 442.1C584.82 443.47 586.87 434.29 587.41 429.93C591.7 428.92 596.14 429.44 600.49 429.38C628.48 429.61 656.48 429.31 684.48 429.42C687.5 429.28 691.14 430.03 692.4 433.19C693.17 436.04 692.92 439.05 693.06 442C669.33 442.26 645.58 442 621.85 442.2Z" fill="#ED1C24"/>
<path d="M398.77 359.85C395.95 360.1 392.95 360.75 390.9 362.85C391.52 361.02 392.36 359.25 393.6 357.75C397.08 353.49 402.25 350.73 407.69 350.01C405.05 349.8 402.31 349.98 399.84 351.01C401.06 349.89 401.4 348.12 401.24 346.54C401.03 344.21 399.79 342.01 397.97 340.53C398.28 343.72 395.03 345.73 394.78 348.78C394.67 349.78 395.2 350.67 395.7 351.51C397.64 350.36 398.38 347.92 398.54 345.79C398.84 347.35 399.12 349.1 398.34 350.56C397.49 351.95 395.94 352.62 394.68 353.56C393.46 354.41 392.47 355.53 391.43 356.57C390.94 353.78 389.38 351.24 387.27 349.37C385.55 347.85 383.44 346.85 381.21 346.32C381.29 346.31 381.37 346.3 381.44 346.29C381.24 346.26 381.05 346.26 380.86 346.25C379.59 345.97 378.27 345.85 376.98 345.88C377.08 346.02 377.16 346.19 377.26 346.35C376 346.5 374.77 346.79 373.6 347.28C374.82 346.17 375.15 344.4 375 342.82C374.78 340.47 373.55 338.27 371.72 336.81C372.04 340 368.79 342 368.53 345.04C368.42 346.04 368.95 346.95 369.45 347.77C371.4 346.64 372.13 344.2 372.3 342.07C372.59 343.63 372.87 345.37 372.1 346.84C371.24 348.22 369.69 348.9 368.44 349.84C367.21 350.69 366.22 351.8 365.18 352.85C364.69 350.06 363.13 347.52 361.03 345.65C358.22 343.17 354.42 342.08 350.73 342.14C350.97 342.5 351.18 342.88 351.37 343.27C349.84 343.39 348.33 343.69 346.9 344.27C348.11 343.16 348.46 341.39 348.3 339.81C348.07 337.48 346.85 335.28 345.03 333.8C345.34 336.99 342.09 338.99 341.84 342.03C341.73 343.05 342.25 343.94 342.76 344.78C344.7 343.63 345.44 341.19 345.6 339.06C345.9 340.62 346.16 342.36 345.4 343.83C344.54 345.22 343 345.89 341.74 346.83C340.51 347.68 339.52 348.79 338.48 349.84C337.98 347.05 336.44 344.51 334.32 342.64C331.53 340.16 327.72 339.07 324.02 339.14C326.33 342.61 326.57 347.13 329.34 350.35C330.5 351.75 332.28 352.46 334.06 352.56C334.37 351.29 334.15 349.96 333.68 348.76C332.56 346.08 330.57 343.87 328.53 341.84C331.08 343.45 333.68 345.26 335.23 347.91C336.05 349.26 336.25 350.9 336.02 352.45C335.59 355.23 334.27 357.8 333.96 360.61C333.83 361.92 333.68 363.3 334.03 364.59C333.98 364.69 333.89 364.88 333.84 364.98C330.79 365.07 327.73 365.02 324.69 364.99C324.7 366.15 324.7 367.31 324.68 368.47C325.35 368.5 326.04 368.42 326.71 368.62C327.14 369.45 327.47 370.35 327.96 371.16C330.45 371.36 332.94 371.55 335.42 371.77C333.26 372.11 331.06 372.1 328.89 372.4C329.77 373.48 330.6 374.6 331.25 375.82C330.38 375.91 329.5 376 328.63 376.09C325.06 376.41 321.49 376.69 317.91 376.88H371.91C372.87 375.58 374 374.39 374.61 372.86C374.65 372.81 374.66 372.75 374.68 372.7C373.28 372.44 371.88 372.23 370.48 371.97C369.75 371.84 369.04 371.7 368.33 371.53C371.28 371.4 374.22 371.6 377.17 371.52C377.15 370.33 377.28 369.16 377.14 367.99C372.74 368.09 368.35 367.98 363.95 368.04C363.38 366.17 363.42 364.01 364.56 362.35C366.21 359.85 369.26 358.72 372.1 358.25C369.72 359.29 367.38 360.84 366.15 363.19C365.81 363.74 365.79 364.74 366.6 364.86C368.93 365.23 371.26 364.12 372.81 362.42C374.36 360.91 375.4 358.91 377.21 357.68C377.84 357.21 378.61 357.09 379.36 356.93C377.21 356.04 374.82 356.01 372.52 356.12C369.7 356.36 366.71 357.03 364.66 359.13C365.27 357.3 366.12 355.52 367.35 354.03C370.02 350.76 373.68 348.39 377.69 347.12C379.36 350.38 379.84 354.24 382.3 357.08C383.44 358.48 385.22 359.19 387.01 359.29C387.31 358.02 387.11 356.69 386.62 355.49C385.5 352.81 383.53 350.6 381.49 348.58C384.02 350.18 386.62 351.99 388.18 354.64C389 355.99 389.2 357.63 388.97 359.18C388.53 361.96 387.23 364.53 386.9 367.35C386.77 368.67 386.63 370.03 386.97 371.33C386.92 371.42 386.83 371.62 386.78 371.72C383.73 371.8 380.68 371.75 377.63 371.74C377.64 372.88 377.66 374.04 377.62 375.2C378.3 375.23 379 375.16 379.65 375.35C379.91 375.85 380.15 376.37 380.4 376.88H400.74C400.8 376.74 400.87 376.59 400.93 376.44C398.82 376.03 396.66 375.76 394.57 375.25C397.52 375.13 400.47 375.33 403.42 375.24C403.4 374.07 403.52 372.88 403.38 371.71C398.98 371.82 394.6 371.71 390.2 371.76C389.63 369.89 389.67 367.74 390.8 366.07C392.46 363.57 395.5 362.46 398.34 361.97C395.96 363.01 393.63 364.56 392.39 366.91C392.06 367.46 392.04 368.46 392.83 368.58C395.17 368.96 397.51 367.86 399.06 366.15C400.6 364.63 401.64 362.64 403.46 361.4C404.08 360.94 404.86 360.81 405.61 360.67C403.46 359.76 401.06 359.74 398.77 359.85ZM362.72 355.46C362.28 358.24 360.98 360.81 360.65 363.62C360.52 364.93 360.39 366.31 360.74 367.6C360.74 367.6 360.74 367.6 360.74 367.62C360.68 367.71 360.58 367.89 360.53 367.99C357.49 368.06 354.43 368.03 351.38 368C351.4 369.16 351.41 370.32 351.37 371.48C352.05 371.51 352.75 371.43 353.4 371.63C353.69 372.18 353.93 372.75 354.21 373.32C352.68 373.49 351.15 373.65 349.62 373.81H349.58C349.11 373.88 348.65 373.92 348.18 373.98C347.07 374.1 345.96 374.24 344.83 374.36C345.92 372.82 347.31 371.49 347.98 369.71C345.86 369.3 343.72 369.03 341.63 368.52C344.58 368.4 347.53 368.59 350.47 368.51C350.45 367.33 350.57 366.15 350.44 364.98C346.04 365.09 341.64 364.98 337.26 365.03C336.69 363.16 336.73 361.01 337.86 359.34C339.52 356.84 342.56 355.72 345.4 355.24C343.02 356.28 340.69 357.83 339.44 360.18C339.12 360.73 339.09 361.73 339.89 361.85C342.22 362.23 344.56 361.13 346.12 359.42C347.65 357.9 348.7 355.91 350.5 354.67C351.13 354.21 351.92 354.08 352.65 353.94C350.5 353.03 348.12 353.01 345.83 353.11C343.01 353.36 340.01 354.02 337.96 356.12C338.57 354.29 339.41 352.52 340.65 351.02C343.47 347.57 347.41 345.11 351.7 343.92C353.17 347.06 353.73 350.66 356.05 353.36C357.2 354.76 358.97 355.47 360.76 355.57C361.06 354.3 360.86 352.97 360.37 351.77C359.25 349.09 357.28 346.88 355.24 344.85C357.79 346.46 360.37 348.26 361.93 350.91C362.76 352.27 362.95 353.91 362.72 355.46Z" fill="#015152"/>
<path d="M840.41 390.78C816.42 390.89 792.43 390.74 768.46 390.84C768.47 388.75 768.48 386.66 768.52 384.58C771.99 384.59 775.46 384.6 778.96 384.64L778.83 382.3C775.37 382.31 771.94 382.34 768.51 382.35C768.51 381.75 768.47 380.53 768.46 379.92C772.71 379.44 777.95 381.39 781.38 378.01C774.54 378.49 768.38 376.15 761.88 374.9C761.8 376.88 761.72 378.88 761.69 380.88C752.86 381.47 744.05 381.1 735.23 380.92C735.23 378.65 735.27 376.38 735.3 374.12C733.58 374.08 730.18 374.04 728.46 374C728.45 376.28 728.45 378.57 728.47 380.86C718.9 380.96 709.35 380.56 699.82 380.79C699.82 377.7 699.82 374.6 699.86 371.52C702.1 371.59 704.38 371.68 706.66 371.77L706.68 369.57C703.94 369.34 701.22 369.05 698.52 368.7C699.7 367.48 701.17 366.88 702.85 366.95C714.58 366.96 726.32 367.06 738.03 367.18C741.1 366.91 744.82 367.87 747.05 365.14C735.7 364.27 724.29 364.8 712.92 364.84C708.93 364.73 704.59 365.47 701.08 363.17H700.64V315.26C700.39 315.11 700.16 314.96 699.9 314.81L700.64 314.99V297.5L600.12 240.82V202.44C597.74 202.68 597.72 198.6 599.3 197.56C599.63 197.52 599.89 197.56 600.12 197.66V194.58C599.9 194.66 599.68 194.76 599.47 194.85C599.51 192.53 599.57 190.2 599.65 187.88C599.81 187.9 599.98 187.9 600.12 187.92V186.83C599.59 185.39 599.04 183.97 598.5 182.55L502.65 131L409.14 184.36V243.51L309.2 298.36V313.85C309.64 314.5 309.59 315.47 309.2 316.25V334.35C309.22 336.78 309.21 339.23 309.2 341.66C309.16 347.74 309.03 353.82 309.2 359.9V360.12C304.74 360.22 300.27 360.24 295.81 360.24C289.82 360.24 283.82 360.2 277.84 360.24C277.86 357.84 277.92 355.44 277.98 353.06C275.67 353.05 273.39 353.05 271.09 353.05C271.11 355.43 271.11 357.82 271.13 360.22C262.59 360.35 254.03 360.22 245.49 360.46C245.48 359.89 245.42 358.73 245.39 358.16C252.24 357.46 260.1 360.15 266.22 356.42C258.66 355.44 250.86 357.07 243.45 354.84C240.76 353.72 238.16 355.01 235.68 355.98C218.01 356 200.32 356.34 182.67 356L182.69 358.31C199.69 358.3 216.68 358.23 233.69 358.2C235.65 357.99 237.52 358.51 238.9 359.98C228.12 360.96 217.28 359.74 206.51 360.61C205.94 361.02 204.81 361.84 204.24 362.25C215.47 363.04 226.73 362.15 237.98 362.81C237.81 376.96 237.98 391.1 237.87 405.26C240.13 405.25 242.4 405.25 244.66 405.26C244.7 403.39 244.73 401.54 244.76 399.68C253.55 399.68 262.33 399.76 271.12 399.64C271.1 400.74 271.08 402.91 271.08 404C273.34 404.01 275.6 404.05 277.86 404.08C277.9 402.97 277.97 400.76 278 399.66C288.1 400.05 298.23 399.18 308.33 399.56C308.6 400.67 309.15 402.96 309.42 404.08L311.29 403.93C311.41 393.3 311.37 382.67 311.33 372.05C313.7 371.41 314.79 369.97 314.63 367.74C314.71 346.07 314.7 324.38 314.62 302.71C346.16 285.04 377.74 267.46 409.29 249.82C409.25 252.48 409.23 255.16 409.21 257.84C388.16 269.11 366.94 280.11 346.1 291.81C367.24 282.73 388.18 273.19 409.23 263.87C409.39 295.79 409.25 327.68 409.3 359.57V359.58L412.56 360.95H412.57C413.49 360.79 414.37 360.65 414.99 360.54C415.11 330.66 414.97 300.78 415.06 270.92C416.76 271.03 418.52 271.17 420.26 271.32C420.78 293.89 419.96 316.58 421.61 339.08C421.69 316.42 422.55 293.76 423.12 271.12C424.68 271.1 427.78 271.06 429.32 271.04C429.05 287.06 429.13 303.11 428.52 319.14C430.31 315.65 432.21 312.19 434.37 308.92C434.16 296.29 433.6 283.68 433.44 271.05C438.76 271.07 444.07 271.07 449.4 271.05C449.35 276.02 449.27 280.98 449.05 285.94C445.67 286.29 441.52 285.29 438.91 288.07C437.89 293.79 438.4 299.63 437.97 305.4C439.43 304.36 440.88 303.31 442.36 302.27C442.28 298.28 442.28 294.31 442.28 290.33C444 290.28 447.39 290.17 449.11 290.11C449.06 293.42 448.99 296.72 448.93 300.03C450.79 299.66 452.65 299.24 454.53 298.89C454.43 295.98 454.35 293.08 454.26 290.18C458.68 290.19 463.09 290.22 467.53 290.22C467.39 293.01 467.23 295.83 467.08 298.64C469.24 298.83 471.41 298.99 473.58 299.18C473.56 296.17 473.54 293.17 473.53 290.18C478.36 290.22 483.21 290.22 488.06 290.22C488 293.05 487.94 295.9 487.91 298.75C490.17 298.85 492.43 298.97 494.71 299.08C494.66 296.16 494.6 293.22 494.55 290.28C501.12 290.18 507.71 290.18 514.28 290.24C514.2 293.14 514.12 296.04 514.04 298.94C516.32 298.89 518.61 298.86 520.92 298.83C520.85 295.94 520.79 293.07 520.75 290.18C525.66 290.23 530.57 290.22 535.48 290.19C535.42 293.01 535.29 295.85 535.43 298.67C537.42 298.89 539.44 299.06 541.46 299.19C541.45 296.17 541.45 293.16 541.45 290.16C545.81 290.21 550.19 290.21 554.56 290.18C554.44 293.47 554.32 296.75 554.2 300.04C556.1 300.66 558.03 301.31 559.95 301.95C559.87 298.05 559.78 294.12 559.7 290.22C561.97 290.21 564.23 290.18 566.5 290.17C566.54 294.9 566.52 299.62 566.49 304.37C567.58 305 569.75 306.26 570.85 306.9C570.55 300.97 571.51 294.89 570.17 289.06C568.61 284.75 563.15 286.44 559.72 285.85C559.55 280.91 559.43 275.98 559.38 271.05C564.7 271.09 570.03 271.09 575.36 271.05C575.09 283.74 574.71 296.43 574.36 309.12C576.27 310.63 578.21 312.15 580.14 313.68C579.89 299.47 579.66 285.26 579.48 271.05C581.06 271.06 584.25 271.12 585.85 271.13C586.44 288.34 585.64 305.69 587.57 322.8C588.91 305.57 588.13 288.25 588.83 271.01C590.04 271.03 592.49 271.05 593.7 271.06C593.62 284.85 593.78 298.62 593.72 312.4C593.89 321.8 592.45 331.61 596.57 340.45L599.52 340.05C599.5 314.66 599.5 289.28 599.5 263.91C620.13 272.57 640.15 282.67 661.06 290.67C640.53 279.71 620.01 268.76 599.53 257.75C599.52 255.12 599.51 252.48 599.51 249.86C626.34 264.76 653.12 279.73 679.91 294.71C679.93 295.65 680.02 297.53 680.08 298.47C680.58 297.96 681.6 296.96 682.1 296.44C686.34 297.96 690.11 300.5 694.04 302.65C694.16 343.48 694.14 384.32 694.04 425.14C695.53 425.09 698.47 425.01 699.95 424.96C699.89 423.88 699.73 421.75 699.67 420.67C709.16 420.55 718.64 420.62 728.13 420.63C726.99 425.9 731.61 425.25 735.24 425.36C735.25 424.19 735.31 421.81 735.32 420.62C744.15 420.62 752.99 420.58 761.82 420.63C761.8 421.87 761.78 424.34 761.77 425.56C758.66 425.71 755.51 425.79 752.72 427.25C758.07 428.65 763.9 428.74 768.66 425.56C768.59 423.48 768.54 421.42 768.5 419.36C775.22 419.37 781.97 419.69 788.67 418.88C782.95 414.8 775.04 417.97 768.5 416.99L768.46 413.75L771.4 414C770.43 413.82 768.49 413.43 767.51 413.25C768.67 411.97 769.85 410.74 771.09 409.52C766.09 405.82 769.42 398.49 768.54 393.19C790.8 393.27 813.06 393.17 835.31 393.21C841 393.21 846.73 393.46 852.37 392.59C848.78 390.19 844.43 390.84 840.41 390.78ZM244.65 363.15C253.47 363.27 262.31 363.27 271.14 363.15C271.13 367.75 271.12 372.37 271.16 377C262.3 377.48 253.42 377.5 244.57 376.96C244.66 372.36 244.66 367.75 244.65 363.15ZM244.67 393.69C244.67 389.13 244.66 384.59 244.62 380.05C253.45 380 262.29 380.09 271.12 379.99C271.12 384.55 271.13 389.1 271.24 393.66C262.37 393.68 253.53 393.65 244.67 393.69ZM308.8 393.7C298.49 393.64 288.18 393.65 277.88 393.7C277.89 389.13 277.92 384.58 277.86 380.01C288.19 380.01 298.51 380.03 308.84 379.99C308.84 384.55 308.81 389.13 308.8 393.7ZM276.85 376.97C284.93 375.41 293.64 378.13 301.27 374.29C293.61 372.6 285.71 373.7 277.92 373.48C277.91 371.86 277.87 368.65 277.85 367.03C284.59 366.96 291.45 367.76 298.09 366.2C291.79 363.46 284.75 365.21 278.1 364.86L278.05 363.12C288.3 363.24 298.53 363.22 308.79 363.24C308.79 367.84 308.8 372.45 308.84 377.08C298.17 376.63 287.5 378.14 276.85 376.97ZM415.07 268.42C414.99 241.75 415.05 215.07 415.05 188.41C414.66 185.96 417.31 184.89 418.71 183.42C419.35 211.58 419.73 239.76 420.18 267.94C418.47 268.08 416.77 268.25 415.07 268.42ZM508.11 138.78C513.93 141.97 519.71 145.25 525.58 148.35C525.74 155.62 526.03 162.92 526.15 170.22H507.43C507.69 159.75 507.95 149.26 508.11 138.78ZM483.58 148.45C489.55 144.53 496.03 141.45 502.26 137.98C502.43 148.71 502.47 159.47 502.63 170.22H490.76C490.64 166.16 490.52 162.1 490.39 158.05C489.91 162.09 489.77 166.15 489.76 170.22H482.68C482.87 162.95 482.53 155.64 483.58 148.45ZM467.52 286.01C463.05 285.97 458.59 285.97 454.14 286.02C453.95 281.02 453.81 276 453.61 271.01C458.32 271.01 463.02 271.02 467.76 271.06C467.65 276.04 467.57 281.03 467.52 286.01ZM483.68 278.48C484.84 278.3 487.17 277.91 488.34 277.73C488.26 279.81 488.09 283.97 488.01 286.04C483.02 285.99 478.04 285.99 473.06 285.97C472.93 280.99 472.79 276.01 472.67 271.03C478.16 271.15 483.65 271.11 489.13 271.2C488.5 273.23 487.35 278.33 484.4 277.38L483.53 276.7C483.58 277.14 483.64 278.03 483.68 278.48ZM514.38 286.02C507.71 286 501.05 285.96 494.4 286.01C494.23 281.02 494.07 276.02 493.89 271.04C497.19 271.06 500.5 271.08 503.81 271.08C503.88 275.39 503.94 279.71 504.25 284.03C504.5 279.76 504.49 275.47 504.5 271.2C507.93 271.12 511.38 271.04 514.81 271.02C514.7 276 514.54 281.02 514.38 286.02ZM535.72 286.01C530.7 286.01 525.69 286 520.7 285.97C520.63 280.99 520.54 276.04 520.52 271.09C525.72 271.05 530.91 271.05 536.11 271.07C535.97 276.05 535.83 281.03 535.72 286.01ZM554.59 286.01C550.16 285.97 545.74 286 541.32 286C541.22 281 541.11 276.02 541.03 271.04C545.69 271.06 550.35 271.06 555.01 271.1C554.89 276.05 554.75 281.03 554.59 286.01ZM579.33 268.22C579.27 242.17 577.96 216.1 578.1 190.03C576.28 216.05 576.64 242.16 575.6 268.22C570.19 268.22 564.8 268.22 559.38 268.28C558.72 239.93 558.99 211.63 557.91 183.31C557.37 191.1 557.57 198.91 557.54 206.73C555.56 227.15 556.5 247.76 555.06 268.24C550.38 268.22 545.68 268.2 541.03 268.19C540.82 252.25 540.74 236.32 540.27 220.42C540.98 220.72 542.37 221.36 543.07 221.66C541.58 220.45 539.95 219.11 540.29 216.95C539.87 209.06 540.04 201.14 539.7 193.26C539.78 189.02 538.9 183.51 543.25 181.09C542.46 181.17 540.91 181.33 540.13 181.4C539.94 177.03 539.95 172.64 539.39 168.28C539.76 186.64 537.08 204.87 537.73 223.24C536.65 223.93 531.57 224.09 533.78 225.91L534.78 226.03C537.12 224.85 538.37 228.27 537.41 230.04C537.02 242.75 536.29 255.44 536.21 268.15C530.97 268.19 525.73 268.19 520.49 268.22C519.62 251.75 519.86 235.24 519.41 218.77H520.65C522.12 218.84 524.02 218.95 525.1 219.01C525.11 218.93 525.11 218.85 525.11 218.77H527.33C527.67 232.07 527.98 245.38 528.14 258.69C529.31 249.82 528.84 240.87 529.12 231.95C529.16 227.56 529.2 223.16 529.24 218.78H529.25V217.81C529.31 211.09 529.37 204.37 529.44 197.64H506.82V218.85C509.51 218.81 512.21 218.79 514.89 218.78H516.35C515.87 235.28 515.7 251.75 514.8 268.23C511.53 268.21 508.24 268.15 504.95 268.07C505.61 254.08 505.63 240.07 505.94 226.05H503.34C503.71 240.1 503.88 254.16 504.14 268.2C500.71 268.19 497.28 268.19 493.83 268.22C493.6 251.72 492.56 235.27 492.39 218.77C495.95 218.79 499.51 218.81 503.08 218.77V197.63H479.3C479.4 207.37 479.48 217.11 479.52 226.85C479.79 238.03 479.1 249.29 480.81 260.38C480.17 249.19 480.6 237.95 481.5 226.8C481.61 224.12 481.68 221.45 481.73 218.76H483.47V218.82C483.95 218.8 484.61 218.78 485.31 218.76H489.21C489.13 235.24 488.78 251.74 488.45 268.22C483.16 268.18 477.84 268.18 472.55 268.21C472.1 244.92 471.21 221.65 470.68 198.35C470.17 188.34 470.83 178.24 469.25 168.32C469.07 201.6 468.1 234.89 467.79 268.17C463.06 268.16 458.34 268.21 453.61 268.22C452.93 243.28 452.1 218.35 451.7 193.39C451.63 190.05 451.28 186.73 450.83 183.43C450.49 211.68 449.89 239.94 449.37 268.21C444.04 268.16 438.69 268.16 433.36 268.16C432.43 249.86 432.56 231.51 431.62 213.2C430.58 204.97 430.71 196.68 430.48 188.4C429.89 215 430.37 241.61 429.31 268.21C427.24 268.17 425.18 268.16 423.13 268.15C423.72 238.87 424.65 209.59 425.29 180.31C430.34 177.52 435.42 174.76 440.44 171.92C440.52 195.84 441.08 219.77 441.09 243.71C441.01 250.91 441.6 258.1 442.3 265.27C441.43 244.64 443.21 224.01 443.42 203.36C443.55 192.19 443.98 181.04 444.28 169.87C448.92 167.2 453.57 164.58 458.32 162.09C458.79 196.51 458.67 230.95 459.72 265.35C461.28 230.44 461.3 195.44 462.64 160.53C466.8 156.19 473.52 154.27 478.66 150.89C478.87 165.22 479.07 179.55 479.24 193.9H503.06V166.31H506.78V193.9H529.44C529.6 179.6 529.79 165.3 530.04 150.99C535.42 153.81 540.73 156.79 546.12 159.61C547.07 189.59 547.52 219.6 548.39 249.58C547.54 249.83 545.85 250.35 545.02 250.61C545.93 250.67 547.74 250.8 548.63 250.88C548.88 253.07 549.21 255.27 549.61 257.47C549.27 225.69 550.13 193.89 550.61 162.11C555.23 164.74 559.9 167.22 564.56 169.76C564.87 201.05 566.38 232.32 566.6 263.63C567.41 257.56 567.46 251.46 567.49 245.36C567.83 220.93 568.05 196.48 568.31 172.04C573.29 174.8 578.29 177.51 583.31 180.27C584.36 209.56 584.91 238.88 585.56 268.18C583.52 268.21 581.43 268.22 579.33 268.22ZM593.66 268.3C592.43 268.29 589.96 268.28 588.72 268.28C589.07 240.14 589.59 211.98 589.81 183.83C591.04 184.43 592.26 185.05 593.5 185.68C593.85 213.21 593.66 240.75 593.66 268.3ZM700.59 384.41C709.85 383.84 719.14 384.33 728.41 384.12C728.41 387.77 728.41 391.43 728.45 395.08C722.26 395.15 716.1 395.15 709.92 395.07C710 395.84 710.17 397.4 710.26 398.16C706.83 398.1 703.4 398.06 699.98 398.08C699.87 394.81 699.77 391.53 699.63 388.28C703.59 388.75 707.62 388.88 711.61 388.45C708.41 384.61 702.93 387.02 698.81 387.16L700.59 384.41ZM728.45 415.08C719 415.08 709.55 415.04 700.09 415.14C699.94 413.88 699.63 411.35 699.47 410.09C706.18 410.85 712.94 410.8 719.69 410.68C721.64 410.85 723.5 410.18 724.97 408.94C716.25 407.84 707.41 408.17 698.7 408.94C700.33 404.69 705.48 406.69 708.81 405.51C705.96 403.17 701.99 404.05 698.65 403.35C699.25 402.79 700.46 401.71 701.08 401.15C710.18 400.7 719.34 401.07 728.46 401.04C728.45 405.71 728.41 410.38 728.45 415.08ZM761.74 410.68C761.74 411.78 761.76 413.97 761.76 415.05C752.9 415.12 744.02 414.99 735.15 415.03C735.21 410.35 735.25 405.69 735.25 401.04C744.08 400.93 752.93 400.92 761.76 401.02C761.75 403.44 761.75 405.87 761.75 408.32C757.3 408.3 752.87 408.28 748.46 408.61C751.75 412.35 757.38 410.07 761.74 410.68ZM761.68 398.11C753.14 398.15 744.6 398.1 736.1 398.11C735.22 393.47 735.16 388.74 735.37 384.06C744.03 384.24 752.7 384.11 761.38 384.17L761.49 386.42C755.96 386.37 750.41 386.36 744.87 386.38C744.89 386.98 744.92 388.22 744.94 388.81C750.57 388.74 756.18 388.75 761.81 388.83C761.76 391.91 761.72 395.02 761.68 398.11Z" fill="#015152"/>
<path d="M504.6 298.36C504.11 298.86 503.14 299.85 502.64 300.35C503.51 305.26 509.46 299.26 504.6 298.36Z" fill="#015152"/>
<path d="M388.87 347.56C389.45 348.07 389.99 348.62 390.48 349.2C390.35 344.73 390.17 340.27 390.15 335.81C389.8 325.25 390.19 314.64 388.82 304.15C389.4 314.16 388.55 324.16 388.59 334.17C388.41 338.33 388.88 342.64 387.78 346.69C388.16 346.96 388.52 347.25 388.87 347.56Z" fill="#015152"/>
<path d="M608.93 329.11C608.14 320.78 608.44 312.43 608.23 304.09C607.63 316.53 607.56 329 608.16 341.43C609.9 337.53 609.26 333.22 608.93 329.11Z" fill="#015152"/>
<path d="M323.06 306.1C323.64 316.3 323.56 326.51 323.35 336.72L324.35 336.71H324.72C324.49 329.69 324.3 322.68 324.43 315.67C324.49 312.48 326.14 308.43 323.06 306.1Z" fill="#015152"/>
<path d="M325.23 362.59C325.3 357.68 325.22 352.77 325.08 347.85C324.68 346.92 324.35 345.98 324.03 345.05C323.76 344.3 323.51 343.56 323.23 342.87C323.07 349.43 322.93 356.01 322.92 362.57L325.23 362.59Z" fill="#015152"/>
<path d="M400.28 305.81C399.93 316.82 399.88 327.84 399.71 338.86C400.27 339.31 400.76 339.83 401.21 340.38C400.89 328.86 400.52 317.34 400.28 305.81Z" fill="#015152"/>
<path d="M334.1 316.76C332.9 316.54 330.51 316.12 329.3 315.93C330.81 317.71 332.32 319.48 333.88 321.24C333.86 327.23 333.8 333.22 333.71 339.21C334.27 339.54 334.81 339.91 335.31 340.31C334.89 329.36 334.49 318.4 334.98 307.45C334.64 310.54 334.36 313.64 334.1 316.76Z" fill="#015152"/>
<path d="M619.76 340.02C620.51 329.19 619.26 318.33 620.1 307.49C619.44 318.22 617.11 329.5 619.76 340.02Z" fill="#015152"/>
<path d="M671.33 312.19C672.23 313.66 673.14 315.14 674.06 316.63C673.57 331.85 673.24 347.07 672.94 362.3C673.56 362.3 674.82 362.32 675.44 362.33C675.47 345.28 674.32 328.22 675.24 311.21C673.89 311.23 672.6 311.57 671.33 312.19Z" fill="#015152"/>
<path d="M685.47 376.43C686.74 354.51 684.51 332.55 685.3 310.61C683.2 323.92 684.46 337.46 683.69 350.87C683.9 359.4 681.85 368.33 685.47 376.43Z" fill="#015152"/>
<path d="M303.25 349.19C303.74 349.17 304.22 349.16 304.71 349.12C304.04 348.65 303.35 348.28 302.63 348.01C299.34 346.79 295.59 347.36 292.14 347.24C277.04 347.54 261.9 346.85 246.82 347.54C246.23 348.01 245.04 348.93 244.46 349.38C264.03 349.61 283.69 350.13 303.25 349.19Z" fill="#015152"/>
<path d="M761.65 357.91C757.49 354.49 751.78 356.2 746.93 356.57C751.24 359.52 756.77 357.93 761.65 357.91Z" fill="#015152"/>
<path d="M809.35 358.36L809.53 356C797.73 356.35 785.91 355.63 774.13 356.42C774.67 356.84 775.72 357.69 776.24 358.11C787.26 358.7 798.32 358.11 809.35 358.36Z" fill="#015152"/>
<path d="M843.68 358.41C846.29 358.24 849.43 358.86 851.31 356.47C839.41 355.85 827.43 355.82 815.53 356.44C816.28 356.88 817.79 357.75 818.55 358.18C826.92 358.31 835.3 358.5 843.68 358.41Z" fill="#015152"/>
<path d="M827.92 362.06C821.89 358.56 814.36 360.25 807.84 361.1C814.14 363.77 821.28 362.32 827.92 362.06Z" fill="#015152"/>
<path d="M759.96 360.82C754.8 360.55 748.55 358.64 744.12 362.11C749.1 361.85 756.17 364.44 759.96 360.82Z" fill="#015152"/>
<path d="M409.28 365.65C409.23 367.24 409.16 368.83 409.13 370.44C411.11 370.47 413.12 370.51 415.13 370.54C415.1 368.04 415.1 365.55 415.08 363.06C413.13 363.93 411.21 364.78 409.28 365.65Z" fill="#015152"/>
<path d="M191.01 366.89C203.33 366.66 215.66 366.4 227.97 367.09C228.05 366.49 228.24 365.28 228.32 364.68C212.87 364.71 197.41 364.63 181.96 364.83C183.52 368.6 187.97 366.52 191.01 366.89Z" fill="#015152"/>
<path d="M784.29 366.91C792.25 366.54 800.23 366.68 808.21 366.91C820.01 367.25 831.81 366.93 843.61 367.11C846.58 367.06 849.98 367.58 852.21 365.13C824.79 364.11 797.29 364.98 769.83 364.64C766.43 364.84 762.49 363.85 759.72 366.45C767.85 367.58 776.1 367.01 784.29 366.91Z" fill="#015152"/>
<path d="M233.6 369.12C219.02 369.86 204.37 368.82 189.79 369.72C189.29 369.94 188.25 370.36 187.73 370.57C202.36 371.73 217.13 371.24 231.79 371.07C232.24 370.6 233.14 369.61 233.6 369.12Z" fill="#015152"/>
<path d="M735.15 369.04C728.81 369.51 721.98 367.77 716.01 370.51C722.11 370.83 730.17 373.53 735.15 369.04Z" fill="#015152"/>
<path d="M800.03 371.25C803.68 371.1 807.71 371.85 810.96 369.67L808.3 369.49C799.87 369.39 791.41 369.07 783.01 369.81C782.49 369.94 781.47 370.2 780.95 370.33C787.18 372.04 793.66 371.02 800.03 371.25Z" fill="#015152"/>
<path d="M182.16 373.55C182.39 374.14 182.85 375.29 183.08 375.88C195.52 375.46 208 376.42 220.42 375.31C218.89 374.09 217.12 373.21 215.11 373.48C204.11 373.48 193.14 373.36 182.16 373.55Z" fill="#015152"/>
<path d="M754.71 375.79C754.66 375.19 754.58 373.96 754.54 373.34C749.53 373.41 744.5 373.31 739.52 373.89C743.65 377.53 749.72 375.27 754.71 375.79Z" fill="#015152"/>
<path d="M830.37 373.45C817.63 373.58 804.86 373.18 792.14 373.68C791.65 374.17 790.68 375.15 790.18 375.64C807.98 376.03 825.78 375.66 843.56 375.86C846.54 375.73 849.93 376.38 852.38 374.1C845.08 372.93 837.69 373.6 830.37 373.45Z" fill="#015152"/>
<path d="M269.88 373.36C261.8 373.56 253.71 373.16 245.64 373.68L248.07 375.88C255.19 377.12 262.5 376.22 269.69 376.16L269.88 373.36Z" fill="#015152"/>
<path d="M635.49 376.91C635.52 376.32 635.59 375.15 635.64 374.58C625.43 374.58 615.24 374.35 605.05 374.7C604.9 378.62 604.87 382.56 604.92 386.5C615.8 392.11 627.87 398.55 632 410.99C635.62 410.42 641.84 413.25 642.29 407.79C639.36 407.66 636.44 407.49 633.54 407.29C635.12 404.09 638.94 405.38 641.75 404.93L641.93 402.92C637.72 402.85 633.52 402.8 629.33 402.43C632.97 399.04 638.38 401.04 642.84 400.17C639 394.61 629.08 401.58 625.84 396.13C631.61 395.34 637.66 396.83 643.17 394.52C636.11 392.42 628.64 393.63 621.4 393.48L621.42 390.98C627.97 391 634.54 391.05 641.11 391V388.77C633.72 388.69 626.31 388.82 618.92 388.79C617.16 388.87 615.75 388.17 614.71 386.66C623.09 385.87 631.54 386.38 639.95 386.32L639.83 384.38C630.6 384.5 621.36 384.5 612.12 384.43C612.14 383.63 612.15 382 612.17 381.18C620.4 380.93 628.68 381.53 636.91 380.71L639.04 379.7C628.63 378.76 618.14 379.92 607.73 378.95C608.45 378.45 609.88 377.48 610.58 376.97C618.89 376.5 627.2 376.86 635.49 376.91Z" fill="#ED1C24"/>
<path d="M721.19 379.85V377.55C714.32 377.55 707.43 377.47 700.62 378.4C707.11 381.07 714.35 379.33 721.19 379.85Z" fill="#015152"/>
<path d="M205.05 384.59C214.72 384.39 224.44 385.19 234.08 383.97C231.95 382.48 229.42 381.96 226.87 382.19C214.03 382.27 201.19 382.21 188.35 382.19C185.85 382.06 183.46 382.63 181.18 383.55C189.01 385.4 197.09 384.36 205.05 384.59Z" fill="#015152"/>
<path d="M821.87 382.23C810.44 382.55 798.96 381.51 787.61 382.88C789.86 384.05 792.29 384.84 794.88 384.62C811.14 384.57 827.4 384.55 843.65 384.65C846.68 384.75 849.72 384.21 852.57 383.06C842.44 381.31 832.08 382.61 821.87 382.23Z" fill="#015152"/>
<path d="M248.13 385.66C249.64 388.29 252.77 387.84 255.35 387.97C258.33 387.9 262.02 388.54 263.93 385.66C258.67 385.41 253.39 385.41 248.13 385.66Z" fill="#015152"/>
<path d="M285.2 388.48C290.43 388.9 295.69 388.88 300.94 388.55C299.78 385.62 296.46 386.44 294 386.27C291 386.54 287.11 385.41 285.2 388.48Z" fill="#015152"/>
<path d="M232.62 392.75C230.39 391.17 227.73 390.57 225.04 390.79C210.91 390.81 196.77 390.81 182.62 390.82L182.72 393.17C199.35 392.95 216.01 393.71 232.62 392.75Z" fill="#015152"/>
<path d="M182.83 401.99C195.84 401.89 208.86 401.94 221.87 401.99C224.53 401.77 227.8 402.63 229.7 400.06C214.01 399.1 198.26 399.84 182.55 399.67L182.83 401.99Z" fill="#015152"/>
<path d="M852.01 400.56C846.6 398.82 840.8 399.97 835.23 399.66C813.78 399.91 792.31 399.11 770.89 400.06C772.75 402.27 775.67 401.94 778.28 401.99C800.02 401.89 821.77 401.91 843.51 401.96C846.29 401.59 849.83 402.91 852.01 400.56Z" fill="#015152"/>
<path d="M186.6 410.67C228.5 410.67 270.42 410.7 312.34 410.67C314.49 410.85 316.58 410.52 317.97 408.71C282.56 407.91 247.09 408.53 211.64 408.34C201.55 408.57 191.41 407.79 181.35 408.88C182.74 410.3 184.62 410.85 186.6 410.67Z" fill="#015152"/>
<path d="M852.27 410.28C850.16 407.65 846.6 408.54 843.69 408.37C822.04 408.34 800.38 408.32 778.74 408.3C778.74 408.87 778.76 410.04 778.77 410.61C803.27 410.6 827.8 410.97 852.27 410.28Z" fill="#015152"/>
<path d="M186.57 419.34C194.67 419.36 202.78 419.59 210.87 418.94C208.62 416.14 204.89 416.96 201.77 416.81C195.03 417.03 188.28 416.74 181.56 417.31C182.71 418.98 184.55 419.55 186.57 419.34Z" fill="#015152"/>
<path d="M312.42 417.02C288.35 416.87 264.28 417.04 240.23 416.92C237.9 416.92 235.24 416.7 233.83 419.03C261.48 419.55 289.19 419.57 316.84 418.93C315.64 417.58 314.16 416.96 312.42 417.02Z" fill="#015152"/>
<path d="M629.91 420.76C641.69 420.81 653.49 420.91 665.27 420.73C664.87 419.32 664.47 417.93 664.08 416.54C652.43 416.41 640.78 416.67 629.15 416.09C629.36 417.26 629.73 419.59 629.91 420.76Z" fill="#ED1C24"/>
<path d="M806.64 416.92C803.1 417.36 798.43 415.61 795.98 419.03C811.27 419.82 826.6 418.95 841.92 419.35C845.46 419.2 849.4 420 852.53 417.76C837.32 415.98 821.9 417.53 806.64 416.92Z" fill="#015152"/>
<path d="M298.93 425.72C295.44 425.87 291.62 425.2 288.57 427.33C295.98 428.05 303.5 428.18 310.91 427.25C307.27 425.13 302.93 425.87 298.93 425.72Z" fill="#015152"/>
<path d="M745.24 425.18C742.98 426.14 742.91 427.26 745.04 428.52C747.3 427.5 747.37 426.39 745.24 425.18Z" fill="#015152"/>
<path d="M184.94 427.92C208.35 428.67 231.82 427.6 255.25 428.04C259.94 428.16 264.65 428.06 269.3 427.35C265.03 424.85 259.96 425.89 255.27 425.72C230.67 426.09 206.03 425.18 181.44 426.17C182.31 426.61 184.07 427.48 184.94 427.92Z" fill="#015152"/>
<path d="M573.11 441.28C571.85 428.89 556.75 421.59 545.91 427.03C540.77 429.39 536.48 433.97 535.3 439.59C532.61 449.62 540.46 460.15 550.45 461.69C562.33 464.46 575.11 453.58 573.11 441.28ZM567.83 448.17C563.54 443.51 558.04 439.14 551.2 440.57C551.08 439.34 551.15 438.09 550.99 436.87C548.11 435.88 549.49 440.72 548.8 442.33C544.98 442.16 542.96 446.1 540.35 448.25C540.41 444.98 540.52 441.72 540.65 438.46C541.87 438.68 544.29 439.08 545.5 439.29C544.42 438.94 542.27 438.24 541.21 437.88C545.22 431.92 553.21 428.03 560.06 431.66C566.59 434.28 568.87 441.68 567.83 448.17Z" fill="#ED1C24"/>
<path d="M821.87 427.82C832.01 427.6 842.22 428.96 852.29 427.3C850.16 425.94 847.73 425.47 845.27 425.71C831.91 425.78 818.55 425.86 805.2 425.71C801.11 425.83 796.75 425.12 793.05 427.22C802.55 429.14 812.27 427.48 821.87 427.82Z" fill="#015152"/>
<path d="M372.14 435.24C369.75 430.2 363.56 425.32 357.92 428.48C348.23 434.52 346.97 448.58 351.04 458.41C353.18 464.56 360.71 470.04 366.94 465.64C375.96 458.78 376.89 444.92 372.14 435.24ZM361.39 445.15C354.65 449.91 358.67 461.6 366.94 461.48C366.95 461.79 366.99 462.45 367.01 462.77C364.11 462.58 360.73 462.99 358.67 460.45C353.06 454.15 352.72 444.18 356.75 436.97C358.7 433.36 363.57 430.3 367.4 433.15C372.67 436.96 373.47 444.03 373.74 450.03C370.81 446.67 366.08 441.52 361.39 445.15Z" fill="#ED1C24"/>
<path d="M272.3 433.85C242.48 435.17 212.57 434.03 182.72 434.42L182.62 436.73C212.12 436.91 241.62 436.66 271.1 436.86L272.3 433.85Z" fill="#015152"/>
<path d="M731.92 436.77L732 434.39C721.79 434.46 711.57 434.39 701.36 434.24C698.16 433.79 700.84 437.66 702.67 436.74C712.43 436.9 722.16 436.77 731.92 436.77Z" fill="#015152"/>
<path d="M766.18 435.68C771.79 437.31 777.66 436.77 783.43 436.82C803.53 436.75 823.62 436.75 843.72 436.85C846.67 436.93 849.65 436.6 852.37 435.29C849.45 434.74 846.5 434.37 843.57 434.4C820.69 434.45 797.83 434.48 774.95 434.35C771.94 434.24 768.99 434.72 766.18 435.68Z" fill="#015152"/>
<path d="M301.39 441.24C301.71 440.72 302.33 439.7 302.63 439.2C294.67 439.25 286.71 439.13 278.75 439.18C276.94 439.1 275.36 439.68 273.99 440.92C283.11 441.38 292.27 441.33 301.39 441.24Z" fill="#015152"/>
<path d="M191.23 445.46C191.78 446.68 192.32 447.94 192.87 449.2C194.31 447.78 195.74 446.28 197.66 445.53C209.12 445.38 220.59 445.66 232.05 445.53C233.79 445.55 235.32 444.94 236.64 443.74C221.49 442.7 206.27 443.49 191.1 443.3C190.36 442.13 189.64 440.97 188.9 439.83C189.02 440.67 189.24 442.38 189.34 443.23C187.46 443.28 183.73 443.4 181.85 443.45C183.7 447.07 188.21 444.9 191.23 445.46Z" fill="#015152"/>
<path d="M730.84 440.35C725.19 439.78 719.51 439.78 713.88 440.42C715.71 442.67 718.59 442.35 721.19 442.41C724.46 442.23 728.38 443.17 730.84 440.35Z" fill="#015152"/>
<path d="M258.77 445.58C262.57 445.16 267.23 446.77 270.23 443.64C261.26 443.14 252.21 442.8 243.28 443.86C247.83 446.91 253.64 445.08 258.77 445.58Z" fill="#015152"/>
<path d="M760.24 445.26C755.56 441.12 748.39 443.84 742.74 443.87C747.91 447.16 754.48 445.15 760.24 445.26Z" fill="#015152"/>
<path d="M782.89 443.81C784.5 445.02 786.29 445.6 788.29 445.55C809.21 445.45 830.12 445.55 851.04 445.57L851.01 443.21C828.31 443.57 805.55 442.8 782.89 443.81Z" fill="#015152"/>
<path d="M327.25 444.46C325.88 444.46 323.14 444.46 321.77 444.44C321.69 450.76 321.64 457.08 321.49 463.4C323.6 464.47 325.73 465.55 327.88 466.62C327.77 459.23 327.82 451.83 327.25 444.46Z" fill="#015152"/>
<path d="M203.41 454.2C210.35 454.03 217.35 454.74 224.23 453.48C223.24 453.09 221.3 452.32 220.31 451.94C208.51 451.74 196.69 451.72 184.9 451.94C183.98 452.31 182.15 453.05 181.25 453.41C188.54 454.85 196.02 454.05 203.41 454.2Z" fill="#015152"/>
<path d="M256.79 454.18C256.82 453.59 256.89 452.4 256.92 451.8C247 452.03 237.06 451.52 227.14 452.17C227.68 452.61 228.75 453.49 229.29 453.93C238.42 454.65 247.62 453.98 256.79 454.18Z" fill="#015152"/>
<path d="M680.8 466.6C682.9 465.64 684.99 464.67 687.1 463.72C687.17 459.7 687.15 455.69 687.17 451.69C685.24 451.67 683.33 451.66 681.42 451.66C681.25 456.63 680.98 461.61 680.8 466.6Z" fill="#015152"/>
<path d="M845.35 451.8C819.62 451.8 793.9 452.03 768.18 451.78C765.63 451.86 762.46 451.21 761.07 453.98H763.84C774.11 453.81 784.41 453.81 794.68 453.98C808.76 454.45 822.84 454.05 836.92 454.2C842.1 454.17 847.36 454.57 852.47 453.43C850.25 452.17 847.87 451.63 845.35 451.8Z" fill="#015152"/>
<path d="M302.05 455L302.25 452.64C289.68 452.76 277.09 452.39 264.52 452.94C265.16 453.39 266.4 454.31 267.02 454.77C278.66 455.29 290.38 455.02 302.05 455Z" fill="#015152"/>
<path d="M499.27 455.5C498.4 455.55 497.53 455.65 496.69 455.82C497.54 455.72 498.41 455.61 499.27 455.5Z" fill="#015152"/>
<path d="M499.3 455.5C505.4 455.11 512 456.91 517.45 454.03C511.38 454.13 505.33 454.77 499.3 455.5Z" fill="#015152"/>
<path d="M698.5 456.12C698.48 456.74 698.45 457.96 698.43 458.57C703.34 458.13 709.06 460.01 713.28 456.69C708.39 455.97 703.42 456.12 698.5 456.12Z" fill="#015152"/>
<path d="M852.32 461.1C832.94 460.04 813.49 460.68 794.08 460.76C783.57 461.31 773.03 460.79 762.5 460.89C762.65 460.1 762.95 458.53 763.12 457.74C774.06 458.59 785.04 457.99 796.02 458.23L795 456.52C784.04 456.44 773.08 456.74 762.12 456.3C748.73 456.12 735.3 455.86 721.91 456.45C723.33 458.06 725.16 458.88 727.39 458.91C727.52 459.6 727.81 461.01 727.94 461.71C728.07 460.89 728.31 459.23 728.44 458.41C738.92 458.68 749.42 458.63 759.92 458.48C760.93 459.97 761.91 461.48 762.9 463.01C789.82 462.79 816.75 462.91 843.67 462.96C846.59 462.75 850.08 463.63 852.32 461.1Z" fill="#015152"/>
<path d="M182.58 460.82C182.5 461.26 182.36 462.13 182.29 462.56C191.49 463.35 200.78 462.73 210.01 462.93C209.98 462.33 209.93 461.1 209.89 460.5C200.78 460.85 191.66 460.2 182.58 460.82Z" fill="#015152"/>
<path d="M216.84 462.93C231.92 462.88 246.99 462.86 262.08 462.96C264.98 462.76 268.4 463.53 270.68 461.15C252.83 459.79 234.88 461.08 217 460.51C216.95 461.12 216.87 462.33 216.84 462.93Z" fill="#015152"/>
<path d="M517.22 462.54C512.71 462.34 506.91 460.08 503.33 463.8C507.9 463.92 513.19 465.48 517.22 462.54Z" fill="#015152"/>
<path d="M607.4 461.97C599.64 461.62 591.86 461.9 584.1 461.82C584.13 462.42 584.23 463.65 584.27 464.25C593.62 463.97 603.01 464.67 612.33 463.68C610.92 462.59 609.25 461.71 607.4 461.97Z" fill="#015152"/>
<path d="M310.24 471.16C306.69 467.89 301.52 469.77 297.23 469.3C292.05 469.84 286.22 467.93 281.53 470.77C291 472.33 300.7 471.95 310.24 471.16Z" fill="#015152"/>
<path d="M669.25 469.26C665.46 469.58 661.02 468.22 657.95 471.17C665.53 471.97 673.17 471.89 680.76 471.4C677.9 467.97 673.07 469.72 669.25 469.26Z" fill="#015152"/>
<path d="M689.14 470.25C689.66 473.15 695.27 473.23 695.76 470.27C694.86 467.82 690.1 467.84 689.14 470.25Z" fill="#015152"/>
<path d="M720 470.24C718.91 467.93 714.18 467.79 713.3 470.31C713.83 473.22 719.46 473.12 720 470.24Z" fill="#015152"/>
<path d="M203.31 471.73C228.63 471.56 253.96 472 279.3 471.6L279.07 469.39C248.82 469.27 218.56 469.41 188.31 469.31C185.83 469.13 183.43 469.65 181.24 470.77C188.49 472.3 195.95 471.63 203.31 471.73Z" fill="#015152"/>
<path d="M850.92 471.73L851.04 469.35C807.45 469.48 763.85 469.03 720.28 469.55C720.95 470.04 722.29 471.01 722.96 471.48C765.59 472.08 808.26 471.54 850.92 471.73Z" fill="#015152"/>
<path d="M600.11 197.66V202.44C600.13 202.44 600.13 202.44 600.14 202.44C601.52 201.53 601.69 198.3 600.11 197.66Z" fill="#015152"/>
<path d="M393.15 590.43C392.78 590.43 392.41 590.72 391.97 590.88C391.24 591.1 390.36 591.1 388.96 591.17C387.27 591.24 372.36 591.24 369.56 591.24C368.53 591.24 366.85 591.17 364.94 591.09C363.02 591.09 360.89 591.02 358.98 591.02C357.88 591.02 357.29 591.17 357.29 591.76C357.29 592.2 357.81 592.34 358.55 592.34C359.58 592.34 360.82 592.41 361.41 592.56C363.83 593.08 364.42 594.25 364.56 596.75C364.71 599.09 364.71 601.16 364.71 612.31V625.24C364.71 632.3 364.71 637.81 364.35 640.89C364.06 643.02 363.69 644.64 362.22 644.93C361.56 645.08 360.67 645.23 359.57 645.23C358.76 645.23 358.47 645.45 358.47 645.81C358.47 646.4 358.98 646.55 360 646.55C362.79 646.55 367.42 646.33 369.33 646.33C371.24 646.33 375.87 646.55 380.5 646.55C381.6 646.55 382.12 646.33 382.12 645.81C382.12 645.45 381.83 645.23 380.86 645.23C379.83 645.23 378.23 645.07 377.2 644.93C374.99 644.64 374.55 643.02 374.34 640.89C373.97 637.81 373.97 632.3 373.97 625.24V619.29C373.97 618.77 374.12 618.63 374.49 618.63C375.73 618.63 383.52 618.63 385.35 618.85C387.63 619.15 388.73 620.47 389.1 621.5C389.4 622.38 389.55 623.26 389.55 623.78C389.55 624.29 389.69 624.81 390.13 624.81C390.87 624.81 390.87 624.07 390.87 623.41C390.87 622.9 391.02 619.52 391.16 618.06C391.39 615.78 391.75 613.94 391.75 613.5C391.75 613.05 391.6 612.84 391.31 612.84C390.86 612.84 390.72 613.13 390.36 613.58C389.62 614.53 388.6 614.82 387.19 614.9C386.16 614.97 385.14 614.97 383.89 614.97L374.49 615.04C374.04 615.04 373.97 614.82 373.97 614.39V596.02C373.97 595.21 374.19 594.99 374.63 594.99L385.94 595.21C388.73 595.28 390.28 596.39 390.79 597.42C391.24 598.45 391.24 599.62 391.24 600.21C391.31 601.01 391.46 601.38 391.97 601.38C392.49 601.38 392.63 600.93 392.71 600.35C392.86 599.47 393 595.13 393.08 594.39C393.3 592.48 393.66 591.6 393.66 591.09C393.66 590.72 393.44 590.43 393.15 590.43Z" fill="#ED1C24"/>
<path d="M466.38 645.23C465.5 645.23 464.4 645.16 463.29 644.93C461.76 644.57 459.63 643.54 456.84 636.93C452.14 625.76 440.38 596.39 438.62 592.34C437.88 590.65 437.45 590 436.78 590C436.04 590 435.61 590.81 434.73 592.94L416.29 638.47C414.83 642.14 413.43 644.65 410.05 645.08C409.46 645.16 408.43 645.24 407.77 645.24C407.19 645.24 406.89 645.39 406.89 645.82C406.89 646.41 407.34 646.56 408.29 646.56C412.11 646.56 416.14 646.34 416.95 646.34C419.23 646.34 422.39 646.56 424.73 646.56C425.54 646.56 425.99 646.41 425.99 645.82C425.99 645.39 425.76 645.24 424.89 645.24H423.78C421.51 645.24 420.84 644.29 420.84 642.96C420.84 642.08 421.21 640.31 421.94 638.48L425.92 628.43C426.07 627.98 426.21 627.84 426.57 627.84H442.96C443.32 627.84 443.54 627.99 443.7 628.36L449.57 643.49C449.93 644.37 449.42 645.02 448.91 645.18C448.17 645.25 447.88 645.4 447.88 645.83C447.88 646.35 448.76 646.35 450.08 646.42C455.97 646.57 461.32 646.57 463.97 646.57C466.69 646.57 467.35 646.42 467.35 645.83C467.34 645.3 466.96 645.23 466.38 645.23ZM441.55 624.14H428.04C427.75 624.14 427.68 623.92 427.75 623.63L434.51 605.62C434.58 605.33 434.73 604.97 434.94 604.97C435.15 604.97 435.24 605.33 435.31 605.62L441.92 623.7C442 623.92 441.93 624.14 441.55 624.14Z" fill="#ED1C24"/>
<path d="M539.4 645.23C538.81 645.23 538.14 645.16 537.35 645C536.24 644.78 533.23 644.27 529.12 640.01C524.78 635.45 519.72 628.92 513.18 620.69C520.6 614.67 522.87 609.68 522.87 604.24C522.87 599.32 519.93 595.58 517.88 594.17C513.92 591.45 508.99 591.02 504.36 591.02C502.09 591.02 496.51 591.24 494 591.24C492.47 591.24 487.84 591.02 483.95 591.02C482.84 591.02 482.33 591.17 482.33 591.67C482.33 592.19 482.77 592.33 483.57 592.33C484.6 592.33 485.85 592.4 486.43 592.55C488.86 593.07 489.44 594.24 489.6 596.74C489.75 599.08 489.75 601.15 489.75 612.3V625.23C489.75 632 489.75 637.8 489.38 640.88C489.09 643.01 488.73 644.63 487.25 644.92C486.59 645.07 485.7 645.22 484.6 645.22C483.72 645.22 483.43 645.44 483.43 645.8C483.43 646.32 483.95 646.54 484.9 646.54C487.84 646.54 492.46 646.32 493.85 646.32C494.95 646.32 500.39 646.54 504.65 646.54C505.6 646.54 506.11 646.32 506.11 645.8C506.11 645.44 505.82 645.22 505.23 645.22C504.35 645.22 502.74 645.06 501.63 644.92C499.43 644.63 499 643.01 498.77 640.88C498.41 637.8 498.41 632 498.41 625.16V624.13C498.41 623.7 498.63 623.54 499 623.54L505.38 623.7C505.9 623.7 506.33 623.77 506.71 624.21C507.66 625.31 511.04 630.31 513.98 634.35C518.09 640.01 520.88 643.46 524.03 645.15C525.94 646.18 527.78 646.54 531.9 646.54H538.88C539.76 646.54 540.28 646.39 540.28 645.8C540.28 645.45 539.98 645.23 539.4 645.23ZM509.86 618.93C508.54 619.88 507.59 620.17 504.65 620.17C502.81 620.17 500.6 619.95 499.07 619.43C498.55 619.21 498.41 618.92 498.41 618.11V595.78C498.41 595.19 498.56 594.9 499.07 594.75C499.81 594.53 501.12 594.45 502.96 594.45C507.3 594.45 514.2 597.47 514.2 607.9C514.2 613.93 512.06 617.31 509.86 618.93Z" fill="#ED1C24"/>
<path d="M623.65 645.37C622.7 645.37 621.22 645.3 619.09 644.63C616.88 643.97 616.15 641.84 615.49 637.21L608.81 592.26C608.58 590.71 608.15 589.99 607.48 589.99C606.83 589.99 606.45 590.57 605.87 591.75L585.88 633.1L565.83 592.25C564.88 590.34 564.43 589.98 563.85 589.98C563.26 589.98 562.82 590.63 562.59 591.89L555.33 639.19C554.96 641.69 554.38 644.56 552.32 644.99C551.21 645.22 550.7 645.22 550.11 645.22C549.37 645.22 548.94 645.37 548.94 645.73C548.94 646.39 549.53 646.54 550.26 646.54C552.62 646.54 556.15 646.32 557.53 646.32C558.86 646.32 562.16 646.54 565.24 646.54C566.34 646.54 567 646.39 567 645.73C567 645.37 566.49 645.22 565.9 645.22C565.16 645.22 564.14 645.15 562.82 644.85C561.56 644.56 560.61 643.9 560.61 642.51C560.61 641.33 560.68 640.37 560.84 639.05L564.66 610.4H564.95C567.52 615.91 571.92 624.59 572.59 626.12C573.47 628.17 579.27 639.41 581.04 642.8C582.21 645 582.95 646.47 583.61 646.47C584.27 646.47 584.64 645.81 586.33 642.36L602.34 609.6H602.63L607.04 641.55C607.33 643.6 607.11 644.56 606.67 644.7C606.16 644.92 605.87 645.15 605.87 645.51C605.87 645.94 606.31 646.17 608 646.32C610.94 646.54 621.08 646.68 622.91 646.68C623.94 646.68 624.82 646.46 624.82 645.87C624.82 645.45 624.3 645.37 623.65 645.37Z" fill="#ED1C24"/>
<path d="M664.41 613.05L662.36 611.52C656.26 606.89 654.58 604.32 654.58 600.93C654.58 596.53 657.88 593.37 663.32 593.37C668.09 593.37 670.22 595.58 671.33 596.97C672.86 598.88 673.24 601.16 673.24 601.82C673.24 602.7 673.46 603.15 673.97 603.15C674.56 603.15 674.78 602.56 674.78 600.94C674.78 595.21 675.08 593.09 675.08 592.13C675.08 591.61 674.71 591.39 674.04 591.25C672.13 590.73 669.05 590.01 664.28 590.01C654.07 590.01 647.31 595.81 647.31 603.9C647.31 609.85 650.1 614.98 658.19 621.3L661.56 623.95C667.66 628.72 668.76 632.11 668.76 635.7C668.76 639.6 665.52 644.07 658.91 644.07C654.35 644.07 650.03 642.09 648.41 636.65C648.05 635.41 647.75 633.86 647.75 632.9C647.75 632.32 647.68 631.66 647.02 631.66C646.43 631.66 646.21 632.47 646.14 633.57C646.07 634.74 645.77 639.15 645.77 643.19C645.77 644.81 646 645.18 647.17 645.69C650.32 647.09 653.64 647.6 657.89 647.6C661.78 647.6 665.9 646.94 669.58 644.59C674.86 641.13 676.48 636.07 676.48 631.8C676.46 624.81 673.31 619.73 664.41 613.05Z" fill="#ED1C24"/>
<path d="M348.73 622.79V614.77L181.01 618.78L348.73 622.79Z" fill="#ED1C24"/>
<path d="M685.03 614.77V622.79L852.75 618.78L685.03 614.77Z" fill="#ED1C24"/>
<path d="M381.62 343.87C381.51 343.86 381.4 343.86 381.29 343.86C381.4 343.88 381.51 343.9 381.62 343.93V343.87Z" fill="#015152"/>
<path d="M357.73 294.98H342.55V311.97H357.73V294.98Z" fill="#015152"/>
<path d="M357.73 315.53H342.55V331.42H357.73V315.53Z" fill="#015152"/>
<path d="M379.01 294.98H361.29V311.97H379.01V294.98Z" fill="#015152"/>
<path d="M379.22 343.54V343.81C378.62 343.81 378.02 343.83 377.46 343.89V343.44H377.4C377.4 343.15 377.41 342.86 377.41 342.58V342.57C377.45 338.85 377.45 335.14 377.37 331.42H362.89C362.82 335.69 362.94 339.96 363.07 344.24C362.92 344.11 362.78 343.96 362.62 343.83C362.21 343.47 361.77 343.12 361.31 342.8C361.42 339.01 361.53 335.21 361.59 331.42H361.28V315.53H379V331.42H378.81C378.94 335.46 379.07 339.5 379.22 343.54Z" fill="#015152"/>
<path d="M644.63 315.46V331.79H631.41C631.34 334.4 631.17 337.02 630.02 339.43C629.86 336.88 629.83 334.33 629.84 331.79H627.17V315.46H644.63Z" fill="#015152"/>
<path d="M644.63 345.67V346.13L641.91 346.9C642.58 346.6 643.7 346.09 644.63 345.67Z" fill="#015152"/>
<path d="M648.48 351.85C647.28 351.25 646.57 350.29 646.1 349.2H647.99C648.12 350.09 648.29 350.97 648.48 351.85Z" fill="#015152"/>
<path d="M665.39 331.78C665.34 338.16 665.31 344.54 665.61 350.92C665.3 355.43 666.95 360.68 663.69 364.42C663.03 353.54 663.53 342.66 664.14 331.78H648.36V315.45H665.82V331.78H665.39Z" fill="#015152"/>
<path d="M644.63 293.14H627.17V311.74H644.63V293.14Z" fill="#015152"/>
<path d="M665.81 293.14H648.35V311.74H665.81V293.14Z" fill="#015152"/>
</g>
</svg>
