<svg width="672" height="518" viewBox="0 0 672 518" fill="none" xmlns="http://www.w3.org/2000/svg">
<path d="M44.6191 394.68C50.8791 389.68 56.2191 384.09 56.2191 374.76C56.2191 368.73 52.5791 357.7 31.9891 357.7C28.1191 357.7 23.6792 358.04 18.0992 358.04C15.8292 358.04 8.64914 357.7 2.61914 357.7C0.919141 357.7 0.119141 357.92 0.119141 358.72C0.119141 359.52 0.809133 359.75 2.04913 359.75C3.64913 359.75 5.57916 359.87 6.47916 360.09C10.2392 360.89 11.1591 362.71 11.3691 366.58C11.5991 370.22 11.5992 373.41 11.5992 390.7V410.74C11.5992 421.21 11.5991 430.2 11.0291 434.97C10.5691 438.27 9.99916 440.77 7.72916 441.23C6.69916 441.46 5.33915 441.69 3.62915 441.69C2.25915 441.69 1.80914 442.03 1.80914 442.6C1.80914 443.4 2.60914 443.74 4.08914 443.74C6.35914 443.74 9.31914 443.51 11.9291 443.51C14.6591 443.4 17.1692 443.4 18.4192 443.4C20.1192 443.4 23.5392 443.51 26.9492 443.74C30.2492 443.86 33.5591 444.08 34.9291 444.08C55.8591 444.08 65.3091 431.45 65.3091 419.28C65.3391 405.95 53.9491 397.87 44.6191 394.68ZM25.2791 364.53C25.2791 363.27 25.5091 362.81 26.3091 362.6C27.4491 362.37 28.4692 362.37 30.0692 362.37C39.8492 362.37 44.2892 372.38 44.2892 380C44.2892 385.58 42.5692 389.68 39.6292 392.06C37.6992 393.78 35.1791 394.22 31.4391 394.22C28.8191 394.22 27.1091 394.11 26.0891 393.88C25.6291 393.77 25.2892 393.54 25.2892 392.62V364.53H25.2791ZM37.5692 438.95C34.9592 438.95 32.3391 438.83 29.2691 437.58C25.6191 436.09 25.2791 434.16 25.2791 426.66V399.69C25.2791 399.12 25.5091 398.89 25.9691 398.89C27.6691 398.89 28.8091 398.89 30.8591 399.01C35.2991 399.24 37.9091 400.03 40.2991 401.74C48.9491 407.77 51.3291 417.33 51.3291 424.37C51.3291 436.22 42.6892 438.95 37.5692 438.95Z" fill="white"/>
<path d="M158.869 441.68C157.499 441.68 155.799 441.56 154.099 441.22C151.709 440.65 148.409 439.06 144.079 428.82C136.789 411.53 118.589 366 115.859 359.75C114.719 357.14 114.039 356.11 113.009 356.11C111.869 356.11 111.199 357.35 109.829 360.65L81.2595 431.21C78.9895 436.89 76.8294 440.76 71.5894 441.45C70.6794 441.56 69.0894 441.68 68.0594 441.68C67.1494 441.68 66.6895 441.91 66.6895 442.59C66.6895 443.5 67.3695 443.73 68.8495 443.73C74.7595 443.73 81.0194 443.39 82.2794 443.39C85.8094 443.39 90.6994 443.73 94.3394 443.73C95.5994 443.73 96.2694 443.5 96.2694 442.59C96.2694 441.91 95.9295 441.68 94.5695 441.68H92.8694C89.3394 441.68 88.3094 440.19 88.3094 438.15C88.3094 436.78 88.8795 434.05 90.0095 431.21L96.1595 415.61C96.3895 414.93 96.6094 414.7 97.1794 414.7H122.559C123.129 414.7 123.479 414.93 123.699 415.5L132.809 438.94C133.379 440.31 132.579 441.33 131.779 441.55C130.639 441.67 130.179 441.9 130.179 442.58C130.179 443.38 131.549 443.38 133.599 443.49C142.699 443.72 150.999 443.72 155.099 443.72C159.319 443.72 160.329 443.49 160.329 442.58C160.349 441.79 159.779 441.68 158.869 441.68ZM120.409 409.02H99.4795C99.0195 409.02 98.9094 408.68 99.0194 408.22L109.489 380.34C109.609 379.89 109.839 379.32 110.179 379.32C110.519 379.32 110.639 379.89 110.749 380.34L120.989 408.34C121.089 408.68 120.969 409.02 120.409 409.02Z" fill="white"/>
<path d="M236.479 439.4C237.629 435.53 238.989 425.64 238.989 424.27C238.989 423.36 238.759 422.57 237.959 422.57C237.039 422.57 236.819 423.03 236.469 424.84C236.019 426.89 234.539 430.19 232.599 432.36C228.059 437.59 221.909 438.73 211.779 438.73C196.529 438.73 175.939 425.3 175.939 398.22C175.939 387.17 178.099 376.37 186.409 368.75C191.429 364.19 197.899 361.69 207.809 361.69C218.279 361.69 227.149 364.76 230.899 368.75C233.739 371.71 235.229 375.69 235.329 379.22C235.329 380.82 235.559 381.72 236.469 381.72C237.499 381.72 237.729 380.81 237.839 379.11C238.069 376.84 237.959 370.58 238.189 366.82C238.409 362.83 238.759 361.47 238.759 360.56C238.759 359.88 238.299 359.3 237.039 359.19C233.629 358.85 229.989 357.82 225.669 357.26C220.439 356.57 216.219 356.12 209.169 356.12C192.199 356.12 181.399 360.66 173.209 368.18C162.289 378.2 159.889 391.62 159.889 399.36C159.889 410.39 162.849 423.14 173.999 432.93C184.359 441.92 197.439 445.33 213.029 445.33C220.299 445.33 228.959 444.53 233.509 442.72C235.459 441.91 235.909 441.34 236.479 439.4Z" fill="white"/>
<path d="M287.23 441.68C285.76 441.68 283.25 441.45 281.66 441.22C278.82 440.76 277.79 438.26 277.56 435.08C277.22 430.19 277.22 421.19 277.22 410.73V400.37H277.79L279.05 402.07C281.43 405.37 303.85 431.65 308.86 436.09C313.75 440.42 316.82 442.92 322.96 443.49C325.35 443.72 327.39 443.72 330.81 443.72H340.71C342.87 443.72 343.44 443.38 343.44 442.58C343.44 441.9 342.76 441.67 341.97 441.67C340.6 441.67 338.32 441.33 334.91 439.97C328.76 437.58 323.65 432.45 318.63 427.68C314.2 423.46 291.9 399.45 287.8 394.11C291.67 390.01 308.85 372.94 312.38 369.53C317.26 364.74 321.14 362.36 324.66 361C326.12 360.46 327.9 360.07 329.4 359.89C330.57 360.12 331.9 360.65 332.98 361.23C335.14 362.47 338 365.31 340.83 369.53C344.82 375.45 360.06 400.48 360.85 402.3C362.34 405.6 363.47 408.1 363.47 414.25V423.58C363.47 425.39 363.47 430.18 363.13 434.95C362.9 438.25 361.87 440.75 359.6 441.21C358.57 441.44 357.21 441.67 355.61 441.67C354.37 441.67 353.79 442.01 353.79 442.58C353.79 443.49 354.71 443.72 356.3 443.72C360.51 443.72 367.67 443.38 370.52 443.38C373.59 443.38 380.76 443.72 387.92 443.72C389.41 443.72 390.31 443.38 390.31 442.58C390.31 442.01 389.74 441.67 388.49 441.67C386.91 441.67 384.39 441.44 382.81 441.21C379.39 440.75 378.36 438.25 378.15 434.95C377.8 430.18 377.8 425.39 377.8 423.58V414.25C377.8 410.49 377.8 406.96 379.5 402.87C381.55 397.98 397.48 371.23 401.24 366.68C403.74 363.61 405 362.25 407.38 361.11C409.1 360.2 411.26 359.74 412.4 359.74C413.64 359.74 414.56 359.4 414.56 358.6C414.56 357.91 413.76 357.69 412.51 357.69C410.35 357.69 402.84 358.03 400.34 358.03C397.04 358.03 393.39 357.69 389.63 357.69C388.26 357.69 387.7 357.91 387.7 358.71C387.7 359.4 388.73 359.63 389.75 359.86C391.68 360.31 392.14 361.56 392.14 362.7C392.14 364.17 391.68 366.11 390.54 368.62C388.94 372.15 374.61 397.18 373.46 399.91C371.65 396.72 355.72 369.3 354.12 365.89C353.32 364.29 352.75 362.93 352.75 362.01C352.75 361.1 353.32 360.2 354.35 359.97C356.05 359.51 356.85 359.4 356.85 358.71C356.85 358.03 356.28 357.69 355.13 357.69C350.02 357.69 345.35 358.03 342.96 358.03C340.33 358.03 335.33 357.86 331.89 357.76C331.64 357.7 331.33 357.69 331.01 357.69C330.6 357.69 330.15 357.69 329.67 357.7H329.57C329.17 357.69 328.86 357.69 328.62 357.69C328.31 357.69 328.03 357.7 327.79 357.74C327.77 357.75 327.74 357.75 327.72 357.75C324.36 357.85 320.29 358.03 317.7 358.03C314.63 358.03 308.37 357.69 305.98 357.69C304.74 357.69 304.17 357.91 304.17 358.71C304.17 359.4 304.62 359.63 305.64 359.86C306.78 360.08 307.24 360.88 307.24 362.13C307.24 364.06 304.74 366.9 301.55 370.66C298.25 374.53 281.63 391.48 277.77 395.7H277.2V390.68C277.2 373.39 277.2 370.2 277.43 366.56C277.66 362.58 278.57 360.64 281.64 360.07C283.01 359.85 283.69 359.73 284.83 359.73C285.74 359.73 286.43 359.5 286.43 358.7C286.43 357.9 285.63 357.68 284.04 357.68C280.17 357.68 272.99 358.02 270.26 358.02C267.53 358.02 260.36 357.68 254.33 357.68C252.63 357.68 251.83 357.9 251.83 358.7C251.83 359.5 252.52 359.73 253.76 359.73C255.36 359.73 257.29 359.85 258.19 360.07C261.95 360.87 262.85 362.69 263.08 366.56C263.31 370.2 263.31 373.39 263.31 390.68V410.72C263.31 421.19 263.31 430.18 262.74 434.95C262.28 438.25 261.71 440.75 259.44 441.21C258.41 441.44 257.05 441.67 255.34 441.67C253.97 441.67 253.52 442.01 253.52 442.58C253.52 443.38 254.32 443.72 255.8 443.72C260.34 443.72 267.51 443.38 270.13 443.38C272.97 443.38 280.15 443.72 286.52 443.72C287.78 443.72 288.68 443.38 288.68 442.58C288.72 442.02 288.15 441.68 287.23 441.68Z" fill="white"/>
<path d="M490.938 441.68C489.568 441.68 487.858 441.56 486.148 441.22C483.758 440.65 480.458 439.06 476.128 428.82C468.858 411.53 450.638 366 447.908 359.75C446.768 357.14 446.088 356.11 445.068 356.11C443.928 356.11 443.248 357.35 441.878 360.65L413.318 431.21C411.038 436.89 408.868 440.76 403.638 441.45C402.728 441.56 401.138 441.68 400.108 441.68C399.198 441.68 398.738 441.91 398.738 442.59C398.738 443.5 399.428 443.73 400.898 443.73C406.818 443.73 413.078 443.39 414.328 443.39C417.858 443.39 422.748 443.73 426.398 443.73C427.638 443.73 428.328 443.5 428.328 442.59C428.328 441.91 427.978 441.68 426.608 441.68H424.908C421.378 441.68 420.348 440.19 420.348 438.15C420.348 436.78 420.928 434.05 422.068 431.21L428.208 415.61C428.438 414.93 428.668 414.7 429.238 414.7H454.618C455.188 414.7 455.528 414.93 455.758 415.5L464.858 438.94C465.428 440.31 464.628 441.33 463.828 441.55C462.688 441.67 462.248 441.9 462.248 442.58C462.248 443.38 463.618 443.38 465.658 443.49C474.758 443.72 483.068 443.72 487.168 443.72C491.378 443.72 492.398 443.49 492.398 442.58C492.408 441.79 491.848 441.68 490.938 441.68ZM452.468 409.02H431.528C431.078 409.02 430.958 408.68 431.078 408.22L441.548 380.34C441.658 379.89 441.888 379.32 442.228 379.32C442.578 379.32 442.688 379.89 442.798 380.34L453.048 408.34C453.148 408.68 453.038 409.02 452.468 409.02Z" fill="white"/>
<path d="M660.839 370.67C648.429 357.7 629.429 357.7 615.209 357.7C608.379 357.7 601.219 358.04 597.689 358.04C594.499 358.04 587.329 357.7 581.299 357.7C579.599 357.7 578.799 357.92 578.799 358.72C578.799 359.52 579.479 359.75 580.729 359.75C582.329 359.75 584.259 359.87 585.159 360.09C588.919 360.89 589.819 362.71 590.049 366.58C590.279 370.22 590.279 373.41 590.279 390.7V410.74C590.279 421.21 590.279 430.2 589.709 434.97C589.249 438.27 588.679 440.77 586.409 441.23C585.379 441.46 584.019 441.69 582.309 441.69C582.079 441.69 581.869 441.7 581.689 441.71C581.569 441.7 581.419 441.69 581.269 441.69C580.359 441.69 579.339 441.57 578.089 441.35C576.389 441 571.709 440.2 565.339 433.6C558.629 426.54 550.779 416.42 540.649 403.68C552.139 394.35 555.669 386.6 555.669 378.19C555.669 370.56 551.109 364.75 547.939 362.6C541.789 358.38 534.159 357.71 526.999 357.71C523.469 357.71 514.819 358.05 510.949 358.05C508.559 358.05 501.389 357.71 495.359 357.71C493.659 357.71 492.859 357.93 492.859 358.73C492.859 359.53 493.549 359.76 494.789 359.76C496.389 359.76 498.319 359.88 499.219 360.1C502.979 360.9 503.879 362.72 504.109 366.59C504.339 370.23 504.339 373.42 504.339 390.71V410.75C504.339 421.22 504.339 430.21 503.769 434.98C503.309 438.28 502.739 440.78 500.469 441.24C499.439 441.47 498.079 441.7 496.369 441.7C494.999 441.7 494.549 442.04 494.549 442.61C494.549 443.41 495.349 443.75 496.829 443.75C501.369 443.75 508.539 443.41 510.699 443.41C512.419 443.41 520.829 443.75 527.439 443.75C528.909 443.75 529.709 443.41 529.709 442.61C529.709 442.04 529.249 441.7 528.339 441.7C526.969 441.7 524.469 441.47 522.769 441.24C519.349 440.78 518.659 438.28 518.319 434.98C517.749 430.21 517.749 421.22 517.749 410.63V409.03C517.749 408.35 518.089 408.12 518.659 408.12L528.569 408.35C529.369 408.35 530.039 408.46 530.609 409.15C532.099 410.85 537.329 418.59 541.869 424.85C548.249 433.61 552.579 438.96 557.459 441.57C560.419 443.17 563.269 443.73 569.639 443.73H580.439C580.889 443.73 581.269 443.71 581.589 443.63C581.899 443.7 582.289 443.73 582.729 443.73C585.009 443.73 587.959 443.5 590.579 443.5C593.309 443.39 595.809 443.39 597.069 443.39C599.909 443.39 603.899 443.73 608.219 444.07C612.529 444.42 617.199 444.76 621.299 444.76C642.349 444.76 654.189 436.68 659.429 431.33C665.799 424.84 671.829 413.92 671.829 399.58C671.869 386.03 666.529 376.59 660.839 370.67ZM535.539 400.94C533.499 402.41 532.009 402.87 527.469 402.87C524.619 402.87 521.209 402.53 518.819 401.73C518.019 401.38 517.789 400.93 517.789 399.68V365.1C517.789 364.18 518.019 363.73 518.819 363.5C519.959 363.16 522.009 363.04 524.849 363.04C531.569 363.04 542.259 367.7 542.259 383.86C542.259 393.21 538.959 398.44 535.539 400.94ZM647.059 431.22C640.229 437.13 632.499 439.4 620.899 439.4C611.909 439.4 607.469 437.02 605.989 434.86C605.079 433.6 604.849 429.06 604.749 426.21C604.629 424.05 604.519 415.29 604.519 403.23V388.9C604.519 379.91 604.519 370.01 604.629 366.13C604.629 364.89 604.969 364.32 605.999 363.86C606.919 363.4 611.119 363.06 613.399 363.06C622.279 363.06 635.249 364.43 645.709 374.44C650.599 379.1 656.629 388.43 656.629 402.89C656.619 414.6 654.349 424.96 647.059 431.22Z" fill="white"/>
<path d="M514.85 304.16C514.39 299.58 509.97 297.25 506.2 295.69C505.92 287.65 507.24 279.23 504.13 271.59C502.48 267.18 499.52 263.49 496.62 259.86C498.52 255.22 500.04 249.85 497.69 245.08C496.18 240.59 491.3 236.6 486.45 238.59C481.51 241.15 479.09 246.59 476.78 251.37C474.11 251.43 471.47 251.5 468.82 251.59C468.91 244.13 469.06 236.04 464.63 229.63C461.5 224.22 456.29 220.56 450.71 218.06C450.27 217.15 449.38 215.34 448.94 214.44C446.43 214.39 443.94 214.39 441.45 214.39C440.93 214.93 439.92 216.02 439.41 216.55C429.78 216.47 420.16 216.38 410.51 216.6C406.65 193.98 385.9 175.45 362.74 175.34C333.67 175.02 304.59 175.23 275.53 175.22C264.33 174.97 253.9 184.31 253.4 195.58C253.15 212.58 253.29 229.59 253.32 246.6C253.34 258.05 253.31 269.5 253.08 280.95C251.12 269.58 249.95 258.1 247.78 246.79C240.18 246.81 232.58 246.83 224.98 246.86H219.74C219.78 246.77 219.82 246.69 219.86 246.6H199.52C199.55 246.68 199.59 246.75 199.63 246.83C197.84 246.83 196.05 246.83 194.26 246.82C194.14 246.83 194.02 246.83 193.9 246.82C192.88 246.82 191.88 246.81 190.87 246.81C190.92 246.74 190.97 246.67 191.03 246.6H137.03C136.93 256.04 136.98 265.48 137.07 274.92C149.37 263.41 166.08 254.14 183.45 257.21C201.21 260.26 217.72 277.48 214.09 296.32C209.59 284.42 201.56 273.84 190.07 267.97C197.67 276.14 205.37 285.66 204.33 297.59C201.38 292.43 200.68 286.04 196.4 281.7C192.52 277.48 188.1 273.79 183.64 270.17C184.22 272.17 184.79 274.18 185.39 276.2C178.21 270.87 168.68 267.21 159.98 271.09C151.4 273.9 146.84 283.69 137.33 284.33C136.16 291.34 135.08 298.37 134.78 305.48C132.61 305.07 130.43 304.74 128.26 304.42C135.02 309.01 143.35 307.03 150.98 308.03C149.96 301.46 149.96 294.69 152.28 288.39C154 288.39 155.72 288.4 157.45 288.44C155.65 292.61 154.87 297.08 155 301.65C157.03 299.3 157.75 295.38 161.01 294.42C162.71 297.17 161.4 300.04 160.41 302.77C164.28 297.01 169.24 290.93 176.53 289.89C184.4 288.45 192.17 293.01 196.36 299.5C203.91 311.27 202.98 327.87 194.2 338.77C186.07 339.16 177.78 339.55 169.68 338.6C162.27 330.72 162.2 319.33 162.4 309.19C157.91 322.02 161.24 336.66 169.54 347.22H198.06C199.41 345.45 200.79 343.73 202.18 341.99C204.09 341.37 205.97 340.67 207.81 339.87C206.77 339.61 204.72 339.07 203.68 338.82C206.2 332.89 207.78 326.58 208.18 320.15C214.52 319.85 220.84 318.93 227.2 319.07C231.58 320.89 233.4 327.64 238.84 326.72C246.74 323.69 253.79 318.41 262.41 317.33C262.54 323.05 264.27 328.51 267.31 333.33C250.6 333.48 233.89 333.03 217.2 333.54C218.32 335.26 219.92 335.97 222 335.7C237.07 335.79 252.12 335.65 267.19 335.74C270 335.39 272.03 337.73 274.24 339.04C259.98 339.04 245.69 339.05 231.43 339.04L231.41 341.48C249.51 341.67 267.63 340.86 285.72 342.08C289.49 342.17 293.21 341.48 296.96 341.02C303.9 335.15 310.32 327.69 309.92 317.95C315.65 318.22 321.4 318.29 327.14 317.99C328.56 313.76 333.19 314.47 336.65 313.43C338.47 307.93 338.35 301.76 341.63 296.77C343.98 292.33 348.4 289.7 352.74 287.53C346.77 293.61 341.06 300.74 340.44 309.62C338.56 321.02 344.67 331.84 352.99 339.13C336.13 339.07 319.25 338.86 302.39 339.21C301.52 339.7 299.76 340.73 298.89 341.24C317.98 341.9 337.09 341.02 356.18 341.64C364.34 343.81 372.87 346.84 381.35 344.08C393.33 339.21 406.37 342.17 418.91 341.48L419.09 339.04C410.42 339.13 401.73 338.94 393.05 339.18C398.09 334.92 402.25 329.64 404.71 323.47C409.69 323.39 414.67 323.39 419.66 323.47C415.27 321.53 411.41 318.71 408.35 315C414.82 314.7 421.31 314.82 427.78 314.78C428.01 315.99 428.46 318.43 428.68 319.64C433.41 319.64 438.39 320.07 442.88 318.33C445.46 316.55 447.71 314.35 450.19 312.44C447.93 321.76 438.02 324.73 429.56 323.52C432.77 329.82 437.58 335.06 443.35 339.12C439.46 339.33 435.11 338.13 431.77 340.73C444.79 341.26 457.98 343.58 470.94 341.1C475.67 337.33 481.36 334.41 484.59 329.08C487.56 324.88 488.75 319.8 489.68 314.82C497.06 314.64 504.51 315.24 511.88 314.47C516.22 313.18 514.89 307.56 514.85 304.16ZM143.82 293.42C142.35 295.63 143.07 298.88 141.01 300.78C138.61 297.12 139.59 292.6 139.35 288.5C142.17 288.5 144.96 288.54 147.77 288.62C146.46 290.22 145.07 291.75 143.82 293.42ZM172.7 341.73C178.69 341.25 184.74 341.26 190.73 341.78C185.37 345.61 178.09 345.32 172.7 341.73ZM487.31 241.29C492.69 239.6 496.07 246.39 495.99 250.86C496.53 255.18 493.56 258.53 490.2 260.72C482.94 257.47 480.42 246.1 487.31 241.29ZM465.7 245.95C466.27 253.98 465.62 262.06 465.67 270.12C469.98 270.12 474.28 270.1 478.6 270.39C475.26 274.45 468.93 271.74 464.4 273.11C468.56 275.93 473.8 274.45 478.51 274.98C475.89 279.67 468.87 276.27 464.52 277.91C464.99 278.69 465.96 280.22 466.44 281C472.75 281.47 479.35 281.77 485.46 279.79C492 276.63 492.41 268.61 492.91 262.31C500.28 269.38 502.86 279.56 502.13 289.54C500.48 288.02 498.86 286.51 497.23 285C494.75 286.53 492.22 287.9 489.64 289.24C489.52 291.35 489.35 293.48 489.14 295.61C486.05 297.25 483.38 293.85 480.25 294.07C470.65 293.85 461.05 294.04 451.44 294.08C448.88 296.84 444.76 297.07 441.97 294.46C439.27 294.11 436.58 293.9 433.91 293.43C434.3 289.15 439.84 290.87 442.78 290.43C442.73 289.43 442.62 287.4 442.57 286.4C438.88 285.55 430.76 288.15 430.73 282.57C435.73 279.09 442.61 281.04 448.41 280.69C447.99 279.84 447.17 278.13 446.77 277.27C440.36 277.31 433.96 277.59 427.59 276.92C432.16 272.43 439.54 275.96 445.28 274.62C439.63 270.54 432.08 273.5 425.64 272.13C429.52 268.4 435.52 270.79 440.33 270C434.65 264.71 427.11 262.45 420.57 258.52C420.13 253.09 419.08 246.82 421.29 241.81C430.51 241.23 439.81 242.71 448.98 241.18C439.44 237.94 429.3 239.41 419.48 238.58C419.41 237.84 419.3 236.38 419.23 235.64C430.49 234.34 441.96 234.25 453.22 235.74C458.86 236.28 464.74 240.02 465.7 245.95ZM421.38 219.14C432.07 219.39 443.78 217.75 453.34 223.68C457.24 225.89 459.58 229.79 461.85 233.52C455.99 227.11 448.23 222.48 439.49 221.52C424.45 219.18 409.49 223.09 394.49 224.04C386.14 224.74 377.76 224.04 369.41 224.5C369.25 223.03 369.06 221.55 368.89 220.09C386.14 224.42 403.92 219.17 421.38 219.14ZM407.9 259.03C399.24 259.96 394.86 245.96 401.26 240.82C410.04 238.41 414.84 254.18 407.9 259.03ZM382.74 183.57C395.83 189.6 404.53 202.73 407.61 216.51C396.08 216.51 384.57 216.57 373.04 216.49C368.57 205.79 368.5 193.8 363.35 183.32C369.8 183.49 376.3 182.94 382.74 183.57ZM325.74 183.38C337.51 183.27 349.27 183.32 361.05 183.44C365.8 194.02 366.62 205.76 370.39 216.66C366.59 216.54 362.79 216.47 359.01 216.59C361.54 218.05 364.25 219.2 367.12 219.89C367.58 220.84 368.48 222.77 368.93 223.73C357.18 223.09 345.51 220.79 334.33 217.14C331.47 216.38 330.02 213.6 328.42 211.38C323.61 203.72 321.02 194.93 316.32 187.22C319.22 185.46 322.12 183.14 325.74 183.38ZM275.71 186.22C286.16 185.71 297.73 184.78 306.87 190.98C315.09 195.89 320.09 204.76 321.84 213.99C318.78 211.44 315.88 208.72 313.06 205.93C315.35 210.44 315.09 215.55 310.5 218.51C314.3 221.99 318.13 225.54 320.75 230.05C315.69 229.67 312.79 224.8 309.12 221.9C308.23 222.87 306.39 224.8 305.49 225.77C299.92 223.47 295.22 217.79 296.09 211.49C296.69 207.14 301.85 206.18 304.9 203.86C300.48 203.04 295.08 204.27 293.29 208.83C291.4 213.35 294.08 217.86 296.24 221.7C291.23 221.49 286.27 220.79 281.49 219.23C281.64 211.98 280.21 204.37 282.47 197.36C285.8 190.09 294.6 191.73 301.1 190.93C293.48 188.42 285.29 189.07 277.44 189.6C271.13 190.41 267.39 195.84 264.07 200.65C264.59 193.96 268.58 187.26 275.71 186.22ZM258.71 223.52C264.03 222.34 267.87 227.45 272.93 228.03C278.24 228.6 283.59 227.93 288.92 227.76C281.49 226.71 273.13 227.68 266.88 222.81C263.03 220.54 264.58 215.72 264.12 212.09C266.15 215.95 268.44 220.09 272.73 221.79C280.53 225.08 289.22 222.51 297.37 223.56C300.11 225.13 302.78 226.85 305.66 228.19C306.53 227.1 308.29 224.94 309.16 223.85C311.72 225.95 312.79 229.75 309.06 231.37C291.8 232.21 274.52 230.68 257.26 230.24C257.78 228.05 256.86 225.15 258.71 223.52ZM258.49 233.71C276.48 233.35 294.5 233.9 312.52 233.58C326.41 233.65 340.46 232.73 354.16 235.49C359.58 243.45 369.85 239.34 377.85 240.1C372.45 242 367.11 244.24 362.74 248.04C358.2 248.09 353.64 248.03 349.1 247.85C348.41 244.31 349.51 239.73 345.85 237.5C345.25 243.39 345.62 249.3 345.32 255.2C343.49 255.22 341.66 255.23 339.87 255.27C339.77 249.98 339.75 244.69 339.78 239.43C312.18 237.08 284.44 238.51 256.78 238.14C257.19 237.03 258.06 234.82 258.49 233.71ZM311.4 283.81C297.32 286.14 282.47 287.2 268.53 283.46C282.74 281.85 297.2 282.2 311.4 283.81ZM259.82 243.28C259.7 242.43 259.43 240.72 259.31 239.86C262.68 239.95 266.09 240.08 269.48 240.32C268.79 245.27 263.19 243.15 259.82 243.28ZM278.78 262.37C290.62 261.87 302.56 261.73 314.38 262.72C302.7 264.89 290.27 266.18 278.78 262.37ZM297.78 328.25C294.04 335 284.63 338.01 277.91 333.94C271.52 330.58 268.74 322.76 270.36 315.92C271.48 322.98 275.63 331.33 283.94 331.06C292.67 331.81 297.63 323.32 299.67 316.05C299.89 320.16 300.18 324.62 297.78 328.25ZM382.78 338.86C376.13 339.18 369.41 339.39 362.79 338.74C357.49 336.97 352.91 333.24 349.81 328.61C350.41 328.17 351.64 327.3 352.24 326.87C351.17 326.83 349.05 326.78 348 326.77C344.12 318.8 343.25 308.94 347.71 301.02C354.72 287.67 372.87 282.11 386.18 289.11C390.21 291 391.29 295.68 393.24 299.28C395.06 303.45 399.18 305.83 401.84 309.41C403.12 321.97 395.26 335.5 382.78 338.86ZM398.65 290.28C398.74 291.32 398.96 293.4 399.07 294.43C388 276.15 362.21 267.62 343.07 278.08C333.23 283.28 327.47 293.82 325.92 304.57C321.49 307.56 316.22 309.1 310.88 308.97C279.52 309.06 248.16 309.06 216.8 308.95C212.82 309.24 209.23 307.46 206.29 304.96C218.44 303.57 230.7 304.43 242.88 304.14C241.49 298.42 238.6 293.3 235.43 288.42C241.38 288.4 247.35 288.44 253.32 288.42C254.02 293.07 251.36 299.59 255.53 302.88C274.47 303.74 293.46 302.97 312.44 303.26C316.01 303.65 319.95 302.23 321.37 298.68C322.37 292.85 321.55 286.68 324.03 281.13C330.56 264.39 347.58 254.22 364.56 250.75C360.88 253.35 357.1 255.86 354.2 259.34C364.48 253.23 375.95 249.12 388.08 249.49C391.37 244.66 394.43 238.97 400.69 237.3C395.92 241.37 394.22 247.6 393.17 253.54C383.53 253.18 371.6 251.45 364.24 259.14C376.52 265.24 388.06 273.47 395.23 285.46C399.9 282.24 405.33 280.55 410.91 279.75C410.04 278.5 409.17 277.26 408.31 276.02C409.4 275.11 411.6 273.32 412.69 272.43C411.08 269 408.87 265.95 406.54 262.99C417.05 266.85 424.75 275.84 428.45 286.24C425.34 285.19 422.47 283.67 419.87 281.7C422.21 285.15 424.21 288.84 425.84 292.71C417.15 289.54 407.73 287.65 398.65 290.28ZM454.65 328.59C459.69 325.96 464.92 323.7 469.51 320.32C469.09 327.91 460.94 330 454.65 328.59ZM440.97 311.92C440.48 311.57 439.48 310.88 438.98 310.54C430.04 313.19 420.47 311.28 411.25 311.82C403.94 313.19 405.99 304.01 406.53 299.65C410.82 298.64 415.26 299.16 419.61 299.1C447.6 299.33 475.6 299.03 503.6 299.14C506.62 299 510.26 299.75 511.52 302.91C512.29 305.76 512.04 308.77 512.18 311.72C488.45 311.98 464.7 311.72 440.97 311.92Z" fill="white"/>
<path d="M217.889 229.57C215.069 229.82 212.069 230.47 210.019 232.57C210.639 230.74 211.479 228.97 212.719 227.47C216.199 223.21 221.369 220.45 226.809 219.73C224.169 219.52 221.429 219.7 218.959 220.73C220.179 219.61 220.519 217.84 220.359 216.26C220.149 213.93 218.909 211.73 217.089 210.25C217.399 213.44 214.149 215.45 213.899 218.5C213.789 219.5 214.319 220.39 214.819 221.23C216.759 220.08 217.499 217.64 217.659 215.51C217.959 217.07 218.239 218.82 217.459 220.28C216.609 221.67 215.059 222.34 213.799 223.28C212.579 224.13 211.589 225.25 210.549 226.29C210.059 223.5 208.499 220.96 206.389 219.09C204.669 217.57 202.559 216.57 200.329 216.04C200.409 216.03 200.489 216.02 200.559 216.01C200.359 215.98 200.169 215.98 199.979 215.97C198.709 215.69 197.389 215.57 196.099 215.6C196.199 215.74 196.279 215.91 196.379 216.07C195.119 216.22 193.889 216.51 192.719 217C193.939 215.89 194.269 214.12 194.119 212.54C193.899 210.19 192.669 207.99 190.839 206.53C191.159 209.72 187.909 211.72 187.649 214.76C187.539 215.76 188.069 216.67 188.569 217.49C190.519 216.36 191.249 213.92 191.419 211.79C191.709 213.35 191.989 215.09 191.219 216.56C190.359 217.94 188.809 218.62 187.559 219.56C186.329 220.41 185.339 221.52 184.299 222.57C183.809 219.78 182.249 217.24 180.149 215.37C177.339 212.89 173.539 211.8 169.849 211.86C170.089 212.22 170.299 212.6 170.489 212.99C168.959 213.11 167.449 213.41 166.019 213.99C167.229 212.88 167.579 211.11 167.419 209.53C167.189 207.2 165.969 205 164.149 203.52C164.459 206.71 161.209 208.71 160.959 211.75C160.849 212.77 161.369 213.66 161.879 214.5C163.819 213.35 164.559 210.91 164.719 208.78C165.019 210.34 165.279 212.08 164.519 213.55C163.659 214.94 162.119 215.61 160.859 216.55C159.629 217.4 158.639 218.51 157.599 219.56C157.099 216.77 155.559 214.23 153.439 212.36C150.649 209.88 146.839 208.79 143.139 208.86C145.449 212.33 145.689 216.85 148.459 220.07C149.619 221.47 151.399 222.18 153.179 222.28C153.489 221.01 153.269 219.68 152.799 218.48C151.679 215.8 149.689 213.59 147.649 211.56C150.199 213.17 152.799 214.98 154.349 217.63C155.169 218.98 155.369 220.62 155.139 222.17C154.709 224.95 153.389 227.52 153.079 230.33C152.949 231.64 152.799 233.02 153.149 234.31C153.099 234.41 153.009 234.6 152.959 234.7C149.909 234.79 146.849 234.74 143.809 234.71C143.819 235.87 143.819 237.03 143.799 238.19C144.469 238.22 145.159 238.14 145.829 238.34C146.259 239.17 146.589 240.07 147.079 240.88C149.569 241.08 152.059 241.27 154.539 241.49C152.379 241.83 150.179 241.82 148.009 242.12C148.889 243.2 149.719 244.32 150.369 245.54C149.499 245.63 148.619 245.72 147.749 245.81C144.179 246.13 140.609 246.41 137.029 246.6H191.029C191.989 245.3 193.119 244.11 193.729 242.58C193.769 242.53 193.779 242.47 193.799 242.42C192.399 242.16 190.999 241.95 189.599 241.69C188.869 241.56 188.159 241.42 187.449 241.25C190.399 241.12 193.339 241.32 196.289 241.24C196.269 240.05 196.399 238.88 196.259 237.71C191.859 237.81 187.469 237.7 183.069 237.76C182.499 235.89 182.539 233.73 183.679 232.07C185.329 229.57 188.379 228.44 191.219 227.97C188.839 229.01 186.499 230.56 185.269 232.91C184.929 233.46 184.909 234.46 185.719 234.58C188.049 234.95 190.379 233.84 191.929 232.14C193.479 230.63 194.519 228.63 196.329 227.4C196.959 226.93 197.729 226.81 198.479 226.65C196.329 225.76 193.939 225.73 191.639 225.84C188.819 226.08 185.829 226.75 183.779 228.85C184.389 227.02 185.239 225.24 186.469 223.75C189.139 220.48 192.799 218.11 196.809 216.84C198.479 220.1 198.959 223.96 201.419 226.8C202.559 228.2 204.339 228.91 206.129 229.01C206.429 227.74 206.229 226.41 205.739 225.21C204.619 222.53 202.649 220.32 200.609 218.3C203.139 219.9 205.739 221.71 207.299 224.36C208.119 225.71 208.319 227.35 208.089 228.9C207.649 231.68 206.349 234.25 206.019 237.07C205.889 238.39 205.749 239.75 206.089 241.05C206.039 241.14 205.949 241.34 205.899 241.44C202.849 241.52 199.799 241.47 196.749 241.46C196.759 242.6 196.779 243.76 196.739 244.92C197.419 244.95 198.119 244.88 198.769 245.07C199.029 245.57 199.269 246.09 199.519 246.6H219.859C219.919 246.46 219.989 246.31 220.049 246.16C217.939 245.75 215.779 245.48 213.689 244.97C216.639 244.85 219.589 245.05 222.539 244.96C222.519 243.79 222.639 242.6 222.499 241.43C218.099 241.54 213.719 241.43 209.319 241.48C208.749 239.61 208.789 237.46 209.919 235.79C211.579 233.29 214.619 232.18 217.459 231.69C215.079 232.73 212.749 234.28 211.509 236.63C211.179 237.18 211.159 238.18 211.949 238.3C214.289 238.68 216.629 237.58 218.179 235.87C219.719 234.35 220.759 232.36 222.579 231.12C223.199 230.66 223.979 230.53 224.729 230.39C222.579 229.48 220.179 229.46 217.889 229.57ZM181.839 225.18C181.399 227.96 180.099 230.53 179.769 233.34C179.639 234.65 179.509 236.03 179.859 237.32C179.859 237.32 179.859 237.32 179.859 237.34C179.799 237.43 179.699 237.61 179.649 237.71C176.609 237.78 173.549 237.75 170.499 237.72C170.519 238.88 170.529 240.04 170.489 241.2C171.169 241.23 171.869 241.15 172.519 241.35C172.809 241.9 173.049 242.47 173.329 243.04C171.799 243.21 170.269 243.37 168.739 243.53H168.699C168.229 243.6 167.769 243.64 167.299 243.7C166.189 243.82 165.079 243.96 163.949 244.08C165.039 242.54 166.429 241.21 167.099 239.43C164.979 239.02 162.839 238.75 160.749 238.24C163.699 238.12 166.649 238.31 169.589 238.23C169.569 237.05 169.689 235.87 169.559 234.7C165.159 234.81 160.759 234.7 156.379 234.75C155.809 232.88 155.849 230.73 156.979 229.06C158.639 226.56 161.679 225.44 164.519 224.96C162.139 226 159.809 227.55 158.559 229.9C158.239 230.45 158.209 231.45 159.009 231.57C161.339 231.95 163.679 230.85 165.239 229.14C166.769 227.62 167.819 225.63 169.619 224.39C170.249 223.93 171.039 223.8 171.769 223.66C169.619 222.75 167.239 222.73 164.949 222.83C162.129 223.08 159.129 223.74 157.079 225.84C157.689 224.01 158.529 222.24 159.769 220.74C162.589 217.29 166.529 214.83 170.819 213.64C172.289 216.78 172.849 220.38 175.169 223.08C176.319 224.48 178.089 225.19 179.879 225.29C180.179 224.02 179.979 222.69 179.489 221.49C178.369 218.81 176.399 216.6 174.359 214.57C176.909 216.18 179.489 217.98 181.049 220.63C181.879 221.99 182.069 223.63 181.839 225.18Z" fill="white"/>
<path d="M659.529 260.5C635.539 260.61 611.549 260.46 587.579 260.56C587.589 258.47 587.599 256.38 587.639 254.3C591.109 254.31 594.579 254.32 598.079 254.36L597.949 252.02C594.489 252.03 591.059 252.06 587.629 252.07C587.629 251.47 587.589 250.25 587.579 249.64C591.829 249.16 597.069 251.11 600.499 247.73C593.659 248.21 587.499 245.87 580.999 244.62C580.919 246.6 580.839 248.6 580.809 250.6C571.979 251.19 563.169 250.82 554.349 250.64C554.349 248.37 554.389 246.1 554.419 243.84C552.699 243.8 549.299 243.76 547.579 243.72C547.569 246 547.569 248.29 547.589 250.58C538.019 250.68 528.469 250.28 518.939 250.51C518.939 247.42 518.939 244.32 518.979 241.24C521.219 241.31 523.499 241.4 525.779 241.49L525.799 239.29C523.059 239.06 520.339 238.77 517.639 238.42C518.819 237.2 520.289 236.6 521.969 236.67C533.699 236.68 545.439 236.78 557.149 236.9C560.219 236.63 563.939 237.59 566.169 234.86C554.819 233.99 543.409 234.52 532.039 234.56C528.049 234.45 523.709 235.19 520.199 232.89H519.759V184.98C519.509 184.83 519.279 184.68 519.019 184.53L519.759 184.71V167.22L419.239 110.54V72.16C416.859 72.4 416.839 68.32 418.419 67.28C418.749 67.24 419.009 67.28 419.239 67.38V64.3C419.019 64.38 418.799 64.48 418.589 64.57C418.629 62.25 418.689 59.92 418.769 57.6C418.929 57.62 419.099 57.62 419.239 57.64V56.55C418.709 55.11 418.159 53.69 417.619 52.27L321.769 0.719971L228.259 54.08V113.23L128.319 168.08V183.57C128.759 184.22 128.709 185.19 128.319 185.97V204.07C128.339 206.5 128.329 208.95 128.319 211.38C128.279 217.46 128.149 223.54 128.319 229.62V229.84C123.859 229.94 119.389 229.96 114.929 229.96C108.939 229.96 102.939 229.92 96.959 229.96C96.979 227.56 97.0391 225.16 97.0991 222.78C94.7891 222.77 92.509 222.77 90.209 222.77C90.229 225.15 90.2291 227.54 90.2491 229.94C81.7091 230.07 73.149 229.94 64.609 230.18C64.599 229.61 64.5391 228.45 64.5091 227.88C71.3591 227.18 79.2191 229.87 85.3391 226.14C77.7791 225.16 69.9791 226.79 62.5691 224.56C59.8791 223.44 57.279 224.73 54.799 225.7C37.129 225.72 19.4391 226.06 1.78906 225.72L1.80905 228.03C18.8091 228.02 35.7991 227.95 52.8091 227.92C54.7691 227.71 56.639 228.23 58.019 229.7C47.239 230.68 36.3991 229.46 25.6291 230.33C25.0591 230.74 23.929 231.56 23.359 231.97C34.589 232.76 45.8491 231.87 57.0991 232.53C56.9291 246.68 57.099 260.82 56.989 274.98C59.249 274.97 61.5191 274.97 63.7791 274.98C63.8191 273.11 63.8491 271.26 63.8791 269.4C72.6691 269.4 81.449 269.48 90.239 269.36C90.219 270.46 90.1991 272.63 90.1991 273.72C92.4591 273.73 94.7191 273.77 96.9791 273.8C97.0191 272.69 97.089 270.48 97.119 269.38C107.219 269.77 117.349 268.9 127.449 269.28C127.719 270.39 128.269 272.68 128.539 273.8L130.409 273.65C130.529 263.02 130.489 252.39 130.449 241.77C132.819 241.13 133.909 239.69 133.749 237.46C133.829 215.79 133.819 194.1 133.739 172.43C165.279 154.76 196.859 137.18 228.409 119.54C228.369 122.2 228.349 124.88 228.329 127.56C207.279 138.83 186.059 149.83 165.219 161.53C186.359 152.45 207.299 142.91 228.349 133.59C228.509 165.51 228.369 197.4 228.419 229.29V229.3L231.679 230.67H231.689C232.609 230.51 233.489 230.37 234.109 230.26C234.229 200.38 234.089 170.5 234.179 140.64C235.879 140.75 237.639 140.89 239.379 141.04C239.899 163.61 239.079 186.3 240.729 208.8C240.809 186.14 241.669 163.48 242.239 140.84C243.799 140.82 246.899 140.78 248.439 140.76C248.169 156.78 248.249 172.83 247.639 188.86C249.429 185.37 251.329 181.91 253.489 178.64C253.279 166.01 252.719 153.4 252.559 140.77C257.879 140.79 263.189 140.79 268.519 140.77C268.469 145.74 268.389 150.7 268.169 155.66C264.789 156.01 260.639 155.01 258.029 157.79C257.009 163.51 257.519 169.35 257.089 175.12C258.549 174.08 259.999 173.03 261.479 171.99C261.399 168 261.399 164.03 261.399 160.05C263.119 160 266.509 159.89 268.229 159.83C268.179 163.14 268.109 166.44 268.049 169.75C269.909 169.38 271.769 168.96 273.649 168.61C273.549 165.7 273.469 162.8 273.379 159.9C277.799 159.91 282.209 159.94 286.649 159.94C286.509 162.73 286.349 165.55 286.199 168.36C288.359 168.55 290.529 168.71 292.699 168.9C292.679 165.89 292.659 162.89 292.649 159.9C297.479 159.94 302.329 159.94 307.179 159.94C307.119 162.77 307.059 165.62 307.029 168.47C309.289 168.57 311.549 168.69 313.829 168.8C313.779 165.88 313.719 162.94 313.669 160C320.239 159.9 326.829 159.9 333.399 159.96C333.319 162.86 333.239 165.76 333.159 168.66C335.439 168.61 337.729 168.58 340.039 168.55C339.969 165.66 339.909 162.79 339.869 159.9C344.779 159.95 349.689 159.94 354.599 159.91C354.539 162.73 354.409 165.57 354.549 168.39C356.539 168.61 358.559 168.78 360.579 168.91C360.569 165.89 360.569 162.88 360.569 159.88C364.929 159.93 369.309 159.93 373.679 159.9C373.559 163.19 373.439 166.47 373.319 169.76C375.219 170.38 377.149 171.03 379.069 171.67C378.989 167.77 378.899 163.84 378.819 159.94C381.089 159.93 383.349 159.9 385.619 159.89C385.659 164.62 385.639 169.34 385.609 174.09C386.699 174.72 388.869 175.98 389.969 176.62C389.669 170.69 390.629 164.61 389.289 158.78C387.729 154.47 382.269 156.16 378.839 155.57C378.669 150.63 378.549 145.7 378.499 140.77C383.819 140.81 389.149 140.81 394.479 140.77C394.209 153.46 393.829 166.15 393.479 178.84C395.389 180.35 397.329 181.87 399.259 183.4C399.009 169.19 398.779 154.98 398.599 140.77C400.179 140.78 403.369 140.84 404.969 140.85C405.559 158.06 404.759 175.41 406.689 192.52C408.029 175.29 407.249 157.97 407.949 140.73C409.159 140.75 411.609 140.77 412.819 140.78C412.739 154.57 412.899 168.34 412.839 182.12C413.009 191.52 411.569 201.33 415.689 210.17L418.639 209.77C418.619 184.38 418.619 159 418.619 133.63C439.249 142.29 459.269 152.39 480.179 160.39C459.649 149.43 439.129 138.48 418.649 127.47C418.639 124.84 418.629 122.2 418.629 119.58C445.459 134.48 472.239 149.45 499.029 164.43C499.049 165.37 499.139 167.25 499.199 168.19C499.699 167.68 500.719 166.68 501.219 166.16C505.459 167.68 509.229 170.22 513.159 172.37C513.279 213.2 513.259 254.04 513.159 294.86C514.649 294.81 517.589 294.73 519.069 294.68C519.009 293.6 518.849 291.47 518.789 290.39C528.279 290.27 537.759 290.34 547.249 290.35C546.109 295.62 550.729 294.97 554.359 295.08C554.369 293.91 554.429 291.53 554.439 290.34C563.269 290.34 572.109 290.3 580.939 290.35C580.919 291.59 580.899 294.06 580.889 295.28C577.779 295.43 574.629 295.51 571.839 296.97C577.189 298.37 583.019 298.46 587.779 295.28C587.709 293.2 587.659 291.14 587.619 289.08C594.339 289.09 601.089 289.41 607.789 288.6C602.069 284.52 594.159 287.69 587.619 286.71L587.579 283.47L590.519 283.72C589.549 283.54 587.609 283.15 586.629 282.97C587.789 281.69 588.969 280.46 590.209 279.24C585.209 275.54 588.539 268.21 587.659 262.91C609.919 262.99 632.179 262.89 654.429 262.93C660.119 262.93 665.849 263.18 671.489 262.31C667.899 259.91 663.549 260.56 659.529 260.5ZM63.769 232.87C72.589 232.99 81.4291 232.99 90.2591 232.87C90.2491 237.47 90.2391 242.09 90.2791 246.72C81.4191 247.2 72.5391 247.22 63.6891 246.68C63.7791 242.08 63.779 237.47 63.769 232.87ZM63.7891 263.41C63.7891 258.85 63.779 254.31 63.739 249.77C72.569 249.72 81.409 249.81 90.239 249.71C90.239 254.27 90.249 258.82 90.359 263.38C81.489 263.4 72.6491 263.37 63.7891 263.41ZM127.919 263.42C117.609 263.36 107.299 263.37 96.9991 263.42C97.0091 258.85 97.0391 254.3 96.9791 249.73C107.309 249.73 117.629 249.75 127.959 249.71C127.959 254.27 127.929 258.85 127.919 263.42ZM95.9691 246.69C104.049 245.13 112.759 247.85 120.389 244.01C112.729 242.32 104.829 243.42 97.0391 243.2C97.0291 241.58 96.9891 238.37 96.9691 236.75C103.709 236.68 110.569 237.48 117.209 235.92C110.909 233.18 103.869 234.93 97.2191 234.58L97.1691 232.84C107.419 232.96 117.649 232.94 127.909 232.96C127.909 237.56 127.919 242.17 127.959 246.8C117.289 246.35 106.619 247.86 95.9691 246.69ZM234.189 138.14C234.109 111.47 234.169 84.79 234.169 58.13C233.779 55.68 236.429 54.61 237.829 53.14C238.469 81.3 238.849 109.48 239.299 137.66C237.589 137.8 235.889 137.97 234.189 138.14ZM327.229 8.49997C333.049 11.69 338.829 14.97 344.699 18.07C344.859 25.34 345.149 32.64 345.269 39.94H326.549C326.809 29.47 327.069 18.98 327.229 8.49997ZM302.699 18.17C308.669 14.25 315.149 11.17 321.379 7.69997C321.549 18.43 321.589 29.19 321.749 39.94H309.879C309.759 35.88 309.639 31.82 309.509 27.77C309.029 31.81 308.889 35.87 308.879 39.94H301.799C301.989 32.67 301.649 25.36 302.699 18.17ZM286.639 155.73C282.169 155.69 277.709 155.69 273.259 155.74C273.069 150.74 272.929 145.72 272.729 140.73C277.439 140.73 282.139 140.74 286.879 140.78C286.769 145.76 286.689 150.75 286.639 155.73ZM302.799 148.2C303.959 148.02 306.289 147.63 307.459 147.45C307.379 149.53 307.209 153.69 307.129 155.76C302.139 155.71 297.159 155.71 292.179 155.69C292.049 150.71 291.909 145.73 291.789 140.75C297.279 140.87 302.769 140.83 308.249 140.92C307.619 142.95 306.469 148.05 303.519 147.1L302.649 146.42C302.699 146.86 302.759 147.75 302.799 148.2ZM333.499 155.74C326.829 155.72 320.169 155.68 313.519 155.73C313.349 150.74 313.189 145.74 313.009 140.76C316.309 140.78 319.619 140.8 322.929 140.8C322.999 145.11 323.059 149.43 323.369 153.75C323.619 149.48 323.609 145.19 323.619 140.92C327.049 140.84 330.499 140.76 333.929 140.74C333.819 145.72 333.659 150.74 333.499 155.74ZM354.839 155.73C349.819 155.73 344.809 155.72 339.819 155.69C339.749 150.71 339.659 145.76 339.639 140.81C344.839 140.77 350.029 140.77 355.229 140.79C355.089 145.77 354.949 150.75 354.839 155.73ZM373.709 155.73C369.279 155.69 364.859 155.72 360.439 155.72C360.339 150.72 360.229 145.74 360.149 140.76C364.809 140.78 369.469 140.78 374.129 140.82C374.009 145.77 373.869 150.75 373.709 155.73ZM398.449 137.94C398.389 111.89 397.079 85.82 397.219 59.75C395.399 85.77 395.759 111.88 394.719 137.94C389.309 137.94 383.919 137.94 378.499 138C377.839 109.65 378.109 81.35 377.029 53.03C376.489 60.82 376.689 68.63 376.659 76.45C374.679 96.87 375.619 117.48 374.179 137.96C369.499 137.94 364.799 137.92 360.149 137.91C359.939 121.97 359.859 106.04 359.389 90.14C360.099 90.44 361.489 91.08 362.189 91.38C360.699 90.17 359.069 88.83 359.409 86.67C358.989 78.78 359.159 70.86 358.819 62.98C358.899 58.74 358.019 53.23 362.369 50.81C361.579 50.89 360.029 51.05 359.249 51.12C359.059 46.75 359.069 42.36 358.509 38C358.879 56.36 356.199 74.59 356.849 92.96C355.769 93.65 350.689 93.81 352.899 95.63L353.899 95.75C356.239 94.57 357.489 97.99 356.529 99.76C356.139 112.47 355.409 125.16 355.329 137.87C350.089 137.91 344.849 137.91 339.609 137.94C338.739 121.47 338.979 104.96 338.529 88.49H339.769C341.239 88.56 343.139 88.67 344.219 88.73C344.229 88.65 344.229 88.57 344.229 88.49H346.449C346.789 101.79 347.099 115.1 347.259 128.41C348.429 119.54 347.959 110.59 348.239 101.67C348.279 97.28 348.319 92.88 348.359 88.5H348.369V87.53C348.429 80.81 348.489 74.09 348.559 67.36H325.939V88.57C328.629 88.53 331.329 88.51 334.009 88.5H335.469C334.989 105 334.819 121.47 333.919 137.95C330.649 137.93 327.359 137.87 324.069 137.79C324.729 123.8 324.749 109.79 325.059 95.77H322.459C322.829 109.82 322.999 123.88 323.259 137.92C319.829 137.91 316.399 137.91 312.949 137.94C312.719 121.44 311.679 104.99 311.509 88.49C315.069 88.51 318.629 88.53 322.199 88.49V67.35H298.419C298.519 77.09 298.599 86.83 298.639 96.57C298.909 107.75 298.219 119.01 299.929 130.1C299.289 118.91 299.719 107.67 300.619 96.52C300.729 93.84 300.799 91.17 300.849 88.48H302.589V88.54C303.069 88.52 303.729 88.5 304.429 88.48H308.329C308.249 104.96 307.899 121.46 307.569 137.94C302.279 137.9 296.959 137.9 291.669 137.93C291.219 114.64 290.329 91.37 289.799 68.07C289.289 58.06 289.949 47.96 288.369 38.04C288.189 71.32 287.219 104.61 286.909 137.89C282.179 137.88 277.459 137.93 272.729 137.94C272.049 113 271.219 88.07 270.819 63.11C270.749 59.77 270.399 56.45 269.949 53.15C269.609 81.4 269.009 109.66 268.489 137.93C263.159 137.88 257.809 137.88 252.479 137.88C251.549 119.58 251.679 101.23 250.739 82.92C249.699 74.69 249.829 66.4 249.599 58.12C249.009 84.72 249.489 111.33 248.429 137.93C246.359 137.89 244.299 137.88 242.249 137.87C242.839 108.59 243.769 79.31 244.409 50.03C249.459 47.24 254.539 44.48 259.559 41.64C259.639 65.56 260.199 89.49 260.209 113.43C260.129 120.63 260.719 127.82 261.419 134.99C260.549 114.36 262.329 93.73 262.539 73.08C262.669 61.91 263.099 50.76 263.399 39.59C268.039 36.92 272.689 34.3 277.439 31.81C277.909 66.23 277.789 100.67 278.839 135.07C280.399 100.16 280.419 65.16 281.759 30.25C285.919 25.91 292.639 23.99 297.779 20.61C297.989 34.94 298.189 49.27 298.359 63.62H322.179V36.03H325.899V63.62H348.559C348.719 49.32 348.909 35.02 349.159 20.71C354.539 23.53 359.849 26.51 365.239 29.33C366.189 59.31 366.639 89.32 367.509 119.3C366.659 119.55 364.969 120.07 364.139 120.33C365.049 120.39 366.859 120.52 367.749 120.6C367.999 122.79 368.329 124.99 368.729 127.19C368.389 95.41 369.249 63.61 369.729 31.83C374.349 34.46 379.019 36.94 383.679 39.48C383.989 70.77 385.499 102.04 385.719 133.35C386.529 127.28 386.579 121.18 386.609 115.08C386.949 90.65 387.169 66.2 387.429 41.76C392.409 44.52 397.409 47.23 402.429 49.99C403.479 79.28 404.029 108.6 404.679 137.9C402.639 137.93 400.549 137.94 398.449 137.94ZM412.779 138.02C411.549 138.01 409.079 138 407.839 138C408.189 109.86 408.709 81.7 408.929 53.55C410.159 54.15 411.379 54.77 412.619 55.4C412.969 82.93 412.779 110.47 412.779 138.02ZM519.709 254.13C528.969 253.56 538.259 254.05 547.529 253.84C547.529 257.49 547.529 261.15 547.569 264.8C541.379 264.87 535.219 264.87 529.039 264.79C529.119 265.56 529.289 267.12 529.379 267.88C525.949 267.82 522.519 267.78 519.099 267.8C518.989 264.53 518.889 261.25 518.749 258C522.709 258.47 526.739 258.6 530.729 258.17C527.529 254.33 522.049 256.74 517.929 256.88L519.709 254.13ZM547.569 284.8C538.119 284.8 528.669 284.76 519.209 284.86C519.059 283.6 518.749 281.07 518.589 279.81C525.299 280.57 532.059 280.52 538.809 280.4C540.759 280.57 542.619 279.9 544.089 278.66C535.369 277.56 526.529 277.89 517.819 278.66C519.449 274.41 524.599 276.41 527.929 275.23C525.079 272.89 521.109 273.77 517.769 273.07C518.369 272.51 519.579 271.43 520.199 270.87C529.299 270.42 538.459 270.79 547.579 270.76C547.569 275.43 547.529 280.1 547.569 284.8ZM580.859 280.4C580.859 281.5 580.879 283.69 580.879 284.77C572.019 284.84 563.139 284.71 554.269 284.75C554.329 280.07 554.369 275.41 554.369 270.76C563.199 270.65 572.049 270.64 580.879 270.74C580.869 273.16 580.869 275.59 580.869 278.04C576.419 278.02 571.989 278 567.579 278.33C570.869 282.07 576.499 279.79 580.859 280.4ZM580.799 267.83C572.259 267.87 563.719 267.82 555.219 267.83C554.339 263.19 554.279 258.46 554.489 253.78C563.149 253.96 571.819 253.83 580.499 253.89L580.609 256.14C575.079 256.09 569.529 256.08 563.989 256.1C564.009 256.7 564.039 257.94 564.059 258.53C569.689 258.46 575.299 258.47 580.929 258.55C580.879 261.63 580.839 264.74 580.799 267.83Z" fill="white"/>
<path d="M323.72 168.08C323.23 168.58 322.26 169.57 321.76 170.07C322.63 174.98 328.58 168.98 323.72 168.08Z" fill="white"/>
<path d="M207.988 217.28C208.568 217.79 209.108 218.34 209.598 218.92C209.468 214.45 209.288 209.99 209.268 205.53C208.918 194.97 209.308 184.36 207.938 173.87C208.518 183.88 207.668 193.88 207.708 203.89C207.528 208.05 207.998 212.36 206.898 216.41C207.278 216.68 207.638 216.97 207.988 217.28Z" fill="white"/>
<path d="M428.05 198.83C427.26 190.5 427.56 182.15 427.35 173.81C426.75 186.25 426.68 198.72 427.28 211.15C429.02 207.25 428.38 202.94 428.05 198.83Z" fill="white"/>
<path d="M142.18 175.82C142.76 186.02 142.68 196.23 142.47 206.44L143.47 206.43H143.84C143.61 199.41 143.42 192.4 143.55 185.39C143.61 182.2 145.26 178.15 142.18 175.82Z" fill="white"/>
<path d="M144.349 232.31C144.419 227.4 144.339 222.49 144.199 217.57C143.799 216.64 143.469 215.7 143.149 214.77C142.879 214.02 142.629 213.28 142.349 212.59C142.189 219.15 142.049 225.73 142.039 232.29L144.349 232.31Z" fill="white"/>
<path d="M219.4 175.53C219.05 186.54 219 197.56 218.83 208.58C219.39 209.03 219.88 209.55 220.33 210.1C220.01 198.58 219.64 187.06 219.4 175.53Z" fill="white"/>
<path d="M153.22 186.48C152.02 186.26 149.63 185.84 148.42 185.65C149.93 187.43 151.44 189.2 153 190.96C152.98 196.95 152.92 202.94 152.83 208.93C153.39 209.26 153.93 209.63 154.43 210.03C154.01 199.08 153.61 188.12 154.1 177.17C153.76 180.26 153.48 183.36 153.22 186.48Z" fill="white"/>
<path d="M438.878 209.74C439.628 198.91 438.378 188.05 439.218 177.21C438.558 187.94 436.228 199.22 438.878 209.74Z" fill="white"/>
<path d="M490.449 181.91C491.349 183.38 492.259 184.86 493.179 186.35C492.689 201.57 492.359 216.79 492.059 232.02C492.679 232.02 493.939 232.04 494.559 232.05C494.589 215 493.439 197.94 494.359 180.93C493.009 180.95 491.719 181.29 490.449 181.91Z" fill="white"/>
<path d="M504.589 246.15C505.859 224.23 503.629 202.27 504.419 180.33C502.319 193.64 503.579 207.18 502.809 220.59C503.019 229.12 500.969 238.05 504.589 246.15Z" fill="white"/>
<path d="M122.37 218.91C122.86 218.89 123.34 218.88 123.83 218.84C123.16 218.37 122.47 218 121.75 217.73C118.46 216.51 114.71 217.08 111.26 216.96C96.1601 217.26 81.0201 216.57 65.9401 217.26C65.3501 217.73 64.1601 218.65 63.5801 219.1C83.1501 219.33 102.81 219.85 122.37 218.91Z" fill="white"/>
<path d="M580.769 227.63C576.609 224.21 570.899 225.92 566.049 226.29C570.359 229.24 575.889 227.65 580.769 227.63Z" fill="white"/>
<path d="M628.47 228.08L628.65 225.72C616.85 226.07 605.03 225.35 593.25 226.14C593.79 226.56 594.84 227.41 595.36 227.83C606.38 228.42 617.44 227.83 628.47 228.08Z" fill="white"/>
<path d="M662.798 228.13C665.408 227.96 668.548 228.58 670.428 226.19C658.528 225.57 646.548 225.54 634.648 226.16C635.398 226.6 636.908 227.47 637.668 227.9C646.038 228.03 654.418 228.22 662.798 228.13Z" fill="white"/>
<path d="M647.039 231.78C641.009 228.28 633.479 229.97 626.959 230.82C633.259 233.49 640.399 232.04 647.039 231.78Z" fill="white"/>
<path d="M579.078 230.54C573.918 230.27 567.668 228.36 563.238 231.83C568.218 231.57 575.288 234.16 579.078 230.54Z" fill="white"/>
<path d="M228.4 235.37C228.35 236.96 228.28 238.55 228.25 240.16C230.23 240.19 232.24 240.23 234.25 240.26C234.22 237.76 234.22 235.27 234.2 232.78C232.25 233.65 230.33 234.5 228.4 235.37Z" fill="white"/>
<path d="M10.1301 236.61C22.4501 236.38 34.7801 236.12 47.0901 236.81C47.1701 236.21 47.3601 235 47.4401 234.4C31.9901 234.43 16.5301 234.35 1.08008 234.55C2.64008 238.32 7.0901 236.24 10.1301 236.61Z" fill="white"/>
<path d="M603.41 236.63C611.37 236.26 619.35 236.4 627.33 236.63C639.13 236.97 650.93 236.65 662.73 236.83C665.7 236.78 669.1 237.3 671.33 234.85C643.91 233.83 616.41 234.7 588.95 234.36C585.55 234.56 581.61 233.57 578.84 236.17C586.97 237.3 595.22 236.73 603.41 236.63Z" fill="white"/>
<path d="M52.7196 238.84C38.1396 239.58 23.4896 238.54 8.90961 239.44C8.40961 239.66 7.36961 240.08 6.84961 240.29C21.4796 241.45 36.2496 240.96 50.9096 240.79C51.3596 240.32 52.2596 239.33 52.7196 238.84Z" fill="white"/>
<path d="M554.269 238.76C547.929 239.23 541.099 237.49 535.129 240.23C541.229 240.55 549.289 243.25 554.269 238.76Z" fill="white"/>
<path d="M619.148 240.97C622.798 240.82 626.828 241.57 630.078 239.39L627.418 239.21C618.988 239.11 610.528 238.79 602.128 239.53C601.608 239.66 600.588 239.92 600.068 240.05C606.298 241.76 612.778 240.74 619.148 240.97Z" fill="white"/>
<path d="M1.2793 243.27C1.5093 243.86 1.96931 245.01 2.19931 245.6C14.6393 245.18 27.1193 246.14 39.5393 245.03C38.0093 243.81 36.2393 242.93 34.2293 243.2C23.2293 243.2 12.2593 243.08 1.2793 243.27Z" fill="white"/>
<path d="M573.829 245.51C573.779 244.91 573.699 243.68 573.659 243.06C568.649 243.13 563.619 243.03 558.639 243.61C562.769 247.25 568.839 244.99 573.829 245.51Z" fill="white"/>
<path d="M649.489 243.17C636.749 243.3 623.979 242.9 611.259 243.4C610.769 243.89 609.799 244.87 609.299 245.36C627.099 245.75 644.899 245.38 662.679 245.58C665.659 245.45 669.049 246.1 671.499 243.82C664.199 242.65 656.809 243.32 649.489 243.17Z" fill="white"/>
<path d="M88.9998 243.08C80.9198 243.28 72.8298 242.88 64.7598 243.4L67.1898 245.6C74.3098 246.84 81.6198 245.94 88.8098 245.88L88.9998 243.08Z" fill="white"/>
<path d="M454.61 246.63C454.64 246.04 454.71 244.87 454.76 244.3C444.55 244.3 434.36 244.07 424.17 244.42C424.02 248.34 423.99 252.28 424.04 256.22C434.92 261.83 446.99 268.27 451.12 280.71C454.74 280.14 460.96 282.97 461.41 277.51C458.48 277.38 455.56 277.21 452.66 277.01C454.24 273.81 458.06 275.1 460.87 274.65L461.05 272.64C456.84 272.57 452.64 272.52 448.45 272.15C452.09 268.76 457.5 270.76 461.96 269.89C458.12 264.33 448.2 271.3 444.96 265.85C450.73 265.06 456.78 266.55 462.29 264.24C455.23 262.14 447.76 263.35 440.52 263.2L440.54 260.7C447.09 260.72 453.66 260.77 460.23 260.72V258.49C452.84 258.41 445.43 258.54 438.04 258.51C436.28 258.59 434.87 257.89 433.83 256.38C442.21 255.59 450.66 256.1 459.07 256.04L458.95 254.1C449.72 254.22 440.48 254.22 431.24 254.15C431.26 253.35 431.27 251.72 431.29 250.9C439.52 250.65 447.8 251.25 456.03 250.43L458.16 249.42C447.75 248.48 437.26 249.64 426.85 248.67C427.57 248.17 429 247.2 429.7 246.69C438.01 246.22 446.32 246.58 454.61 246.63Z" fill="white"/>
<path d="M540.308 249.57V247.27C533.438 247.27 526.548 247.19 519.738 248.12C526.228 250.79 533.468 249.05 540.308 249.57Z" fill="white"/>
<path d="M24.1689 254.31C33.8389 254.11 43.5589 254.91 53.1989 253.69C51.0689 252.2 48.5388 251.68 45.9888 251.91C33.1488 251.99 20.3088 251.93 7.46884 251.91C4.96884 251.78 2.57883 252.35 0.298828 253.27C8.12883 255.12 16.2089 254.08 24.1689 254.31Z" fill="white"/>
<path d="M640.989 251.95C629.559 252.27 618.079 251.23 606.729 252.6C608.979 253.77 611.409 254.56 613.999 254.34C630.259 254.29 646.519 254.27 662.769 254.37C665.799 254.47 668.839 253.93 671.689 252.78C661.559 251.03 651.199 252.33 640.989 251.95Z" fill="white"/>
<path d="M67.25 255.38C68.76 258.01 71.89 257.56 74.47 257.69C77.45 257.62 81.14 258.26 83.05 255.38C77.79 255.13 72.51 255.13 67.25 255.38Z" fill="white"/>
<path d="M104.318 258.2C109.548 258.62 114.808 258.6 120.058 258.27C118.898 255.34 115.578 256.16 113.118 255.99C110.118 256.26 106.228 255.13 104.318 258.2Z" fill="white"/>
<path d="M51.7383 262.47C49.5083 260.89 46.8483 260.29 44.1583 260.51C30.0283 260.53 15.8883 260.53 1.73828 260.54L1.83829 262.89C18.4683 262.67 35.1283 263.43 51.7383 262.47Z" fill="white"/>
<path d="M1.94992 271.71C14.9599 271.61 27.9799 271.66 40.9899 271.71C43.6499 271.49 46.9199 272.35 48.8199 269.78C33.1299 268.82 17.3799 269.56 1.66992 269.39L1.94992 271.71Z" fill="white"/>
<path d="M671.13 270.28C665.72 268.54 659.92 269.69 654.35 269.38C632.9 269.63 611.43 268.83 590.01 269.78C591.87 271.99 594.79 271.66 597.4 271.71C619.14 271.61 640.89 271.63 662.63 271.68C665.41 271.31 668.95 272.63 671.13 270.28Z" fill="white"/>
<path d="M5.71875 280.39C47.6188 280.39 89.5387 280.42 131.459 280.39C133.609 280.57 135.699 280.24 137.089 278.43C101.679 277.63 66.2088 278.25 30.7588 278.06C20.6688 278.29 10.5288 277.51 0.46875 278.6C1.85875 280.02 3.73875 280.57 5.71875 280.39Z" fill="white"/>
<path d="M671.389 280C669.279 277.37 665.719 278.26 662.809 278.09C641.159 278.06 619.499 278.04 597.859 278.02C597.859 278.59 597.879 279.76 597.889 280.33C622.389 280.32 646.919 280.69 671.389 280Z" fill="white"/>
<path d="M5.6897 289.06C13.7897 289.08 21.8997 289.31 29.9897 288.66C27.7397 285.86 24.0097 286.68 20.8897 286.53C14.1497 286.75 7.39969 286.46 0.679688 287.03C1.82969 288.7 3.6697 289.27 5.6897 289.06Z" fill="white"/>
<path d="M131.539 286.74C107.469 286.59 83.3992 286.76 59.3492 286.64C57.0192 286.64 54.3592 286.42 52.9492 288.75C80.5992 289.27 108.309 289.29 135.959 288.65C134.759 287.3 133.279 286.68 131.539 286.74Z" fill="white"/>
<path d="M449.03 290.48C460.81 290.53 472.61 290.63 484.39 290.45C483.99 289.04 483.59 287.65 483.2 286.26C471.55 286.13 459.9 286.39 448.27 285.81C448.48 286.98 448.85 289.31 449.03 290.48Z" fill="white"/>
<path d="M625.76 286.64C622.22 287.08 617.55 285.33 615.1 288.75C630.39 289.54 645.72 288.67 661.04 289.07C664.58 288.92 668.52 289.72 671.65 287.48C656.44 285.7 641.02 287.25 625.76 286.64Z" fill="white"/>
<path d="M118.049 295.44C114.559 295.59 110.739 294.92 107.689 297.05C115.099 297.77 122.619 297.9 130.029 296.97C126.389 294.85 122.049 295.59 118.049 295.44Z" fill="white"/>
<path d="M564.359 294.9C562.099 295.86 562.029 296.98 564.159 298.24C566.419 297.22 566.489 296.11 564.359 294.9Z" fill="white"/>
<path d="M4.05859 297.64C27.4686 298.39 50.9386 297.32 74.3686 297.76C79.0586 297.88 83.7686 297.78 88.4186 297.07C84.1486 294.57 79.0786 295.61 74.3886 295.44C49.7886 295.81 25.1486 294.9 0.558594 295.89C1.42859 296.33 3.18859 297.2 4.05859 297.64Z" fill="white"/>
<path d="M392.229 311C390.969 298.61 375.869 291.31 365.029 296.75C359.889 299.11 355.599 303.69 354.419 309.31C351.729 319.34 359.579 329.87 369.569 331.41C381.449 334.18 394.229 323.3 392.229 311ZM386.949 317.89C382.659 313.23 377.159 308.86 370.319 310.29C370.199 309.06 370.269 307.81 370.109 306.59C367.229 305.6 368.609 310.44 367.919 312.05C364.099 311.88 362.079 315.82 359.469 317.97C359.529 314.7 359.639 311.44 359.769 308.18C360.989 308.4 363.409 308.8 364.619 309.01C363.539 308.66 361.389 307.96 360.329 307.6C364.339 301.64 372.329 297.75 379.179 301.38C385.709 304 387.989 311.4 386.949 317.89Z" fill="white"/>
<path d="M640.99 297.54C651.13 297.32 661.34 298.68 671.41 297.02C669.28 295.66 666.85 295.19 664.39 295.43C651.03 295.5 637.67 295.58 624.32 295.43C620.23 295.55 615.87 294.84 612.17 296.94C621.67 298.86 631.39 297.2 640.99 297.54Z" fill="white"/>
<path d="M191.259 304.96C188.869 299.92 182.679 295.04 177.039 298.2C167.349 304.24 166.089 318.3 170.159 328.13C172.299 334.28 179.829 339.76 186.059 335.36C195.079 328.5 196.009 314.64 191.259 304.96ZM180.509 314.87C173.769 319.63 177.789 331.32 186.059 331.2C186.069 331.51 186.109 332.17 186.129 332.49C183.229 332.3 179.849 332.71 177.789 330.17C172.179 323.87 171.839 313.9 175.869 306.69C177.819 303.08 182.689 300.02 186.519 302.87C191.789 306.68 192.589 313.75 192.859 319.75C189.929 316.39 185.199 311.24 180.509 314.87Z" fill="white"/>
<path d="M91.4183 303.57C61.5983 304.89 31.6883 303.75 1.83829 304.14L1.73828 306.45C31.2383 306.63 60.7383 306.38 90.2183 306.58L91.4183 303.57Z" fill="white"/>
<path d="M551.04 306.49L551.12 304.11C540.91 304.18 530.69 304.11 520.48 303.96C517.28 303.51 519.96 307.38 521.79 306.46C531.55 306.62 541.28 306.49 551.04 306.49Z" fill="white"/>
<path d="M585.299 305.4C590.909 307.03 596.779 306.49 602.549 306.54C622.649 306.47 642.739 306.47 662.839 306.57C665.789 306.65 668.769 306.32 671.489 305.01C668.569 304.46 665.619 304.09 662.689 304.12C639.809 304.17 616.949 304.2 594.069 304.07C591.059 303.96 588.109 304.44 585.299 305.4Z" fill="white"/>
<path d="M120.509 310.96C120.829 310.44 121.449 309.42 121.749 308.92C113.789 308.97 105.829 308.85 97.8694 308.9C96.0594 308.82 94.4794 309.4 93.1094 310.64C102.229 311.1 111.389 311.05 120.509 310.96Z" fill="white"/>
<path d="M10.3488 315.18C10.8988 316.4 11.4387 317.66 11.9887 318.92C13.4287 317.5 14.8587 316 16.7787 315.25C28.2387 315.1 39.7088 315.38 51.1688 315.25C52.9088 315.27 54.4388 314.66 55.7588 313.46C40.6088 312.42 25.3888 313.21 10.2188 313.02C9.47875 311.85 8.75874 310.69 8.01874 309.55C8.13874 310.39 8.35874 312.1 8.45874 312.95C6.57874 313 2.84875 313.12 0.96875 313.17C2.81875 316.79 7.32875 314.62 10.3488 315.18Z" fill="white"/>
<path d="M549.96 310.07C544.31 309.5 538.63 309.5 533 310.14C534.83 312.39 537.71 312.07 540.31 312.13C543.58 311.95 547.5 312.89 549.96 310.07Z" fill="white"/>
<path d="M77.8885 315.3C81.6885 314.88 86.3484 316.49 89.3484 313.36C80.3784 312.86 71.3284 312.52 62.3984 313.58C66.9484 316.63 72.7585 314.8 77.8885 315.3Z" fill="white"/>
<path d="M579.359 314.98C574.679 310.84 567.509 313.56 561.859 313.59C567.029 316.88 573.599 314.87 579.359 314.98Z" fill="white"/>
<path d="M602.01 313.53C603.62 314.74 605.41 315.32 607.41 315.27C628.33 315.17 649.24 315.27 670.16 315.29L670.13 312.93C647.43 313.29 624.67 312.52 602.01 313.53Z" fill="white"/>
<path d="M146.369 314.18C144.999 314.18 142.259 314.18 140.889 314.16C140.809 320.48 140.759 326.8 140.609 333.12C142.719 334.19 144.849 335.27 146.999 336.34C146.889 328.95 146.939 321.55 146.369 314.18Z" fill="white"/>
<path d="M22.5291 323.92C29.4691 323.75 36.4692 324.46 43.3492 323.2C42.3592 322.81 40.4191 322.04 39.4291 321.66C27.6291 321.46 15.8091 321.44 4.01913 321.66C3.09913 322.03 1.26914 322.77 0.369141 323.13C7.65914 324.57 15.1391 323.77 22.5291 323.92Z" fill="white"/>
<path d="M75.9098 323.9C75.9398 323.31 76.0098 322.12 76.0398 321.52C66.1198 321.75 56.1798 321.24 46.2598 321.89C46.7998 322.33 47.8698 323.21 48.4098 323.65C57.5398 324.37 66.7398 323.7 75.9098 323.9Z" fill="white"/>
<path d="M499.92 336.32C502.02 335.36 504.11 334.39 506.22 333.44C506.29 329.42 506.27 325.41 506.29 321.41C504.36 321.39 502.45 321.38 500.54 321.38C500.37 326.35 500.1 331.33 499.92 336.32Z" fill="white"/>
<path d="M664.469 321.52C638.739 321.52 613.019 321.75 587.299 321.5C584.749 321.58 581.579 320.93 580.189 323.7H582.959C593.229 323.53 603.529 323.53 613.799 323.7C627.879 324.17 641.959 323.77 656.039 323.92C661.219 323.89 666.479 324.29 671.589 323.15C669.369 321.89 666.989 321.35 664.469 321.52Z" fill="white"/>
<path d="M121.169 324.72L121.369 322.36C108.799 322.48 96.2087 322.11 83.6387 322.66C84.2787 323.11 85.5187 324.03 86.1387 324.49C97.7787 325.01 109.499 324.74 121.169 324.72Z" fill="white"/>
<path d="M318.389 325.22C317.519 325.27 316.649 325.37 315.809 325.54C316.659 325.44 317.529 325.33 318.389 325.22Z" fill="white"/>
<path d="M318.42 325.22C324.52 324.83 331.12 326.63 336.57 323.75C330.5 323.85 324.45 324.49 318.42 325.22Z" fill="white"/>
<path d="M517.619 325.84C517.599 326.46 517.569 327.68 517.549 328.29C522.459 327.85 528.179 329.73 532.399 326.41C527.509 325.69 522.539 325.84 517.619 325.84Z" fill="white"/>
<path d="M671.439 330.82C652.059 329.76 632.609 330.4 613.199 330.48C602.689 331.03 592.149 330.51 581.619 330.61C581.769 329.82 582.069 328.25 582.239 327.46C593.179 328.31 604.159 327.71 615.139 327.95L614.119 326.24C603.159 326.16 592.199 326.46 581.239 326.02C567.849 325.84 554.419 325.58 541.029 326.17C542.449 327.78 544.279 328.6 546.509 328.63C546.639 329.32 546.929 330.73 547.059 331.43C547.189 330.61 547.429 328.95 547.559 328.13C558.039 328.4 568.539 328.35 579.039 328.2C580.049 329.69 581.029 331.2 582.019 332.73C608.939 332.51 635.869 332.63 662.789 332.68C665.709 332.47 669.199 333.35 671.439 330.82Z" fill="white"/>
<path d="M1.69821 330.54C1.61821 330.98 1.4782 331.85 1.4082 332.28C10.6082 333.07 19.8982 332.45 29.1282 332.65C29.0982 332.05 29.0482 330.82 29.0082 330.22C19.8982 330.57 10.7782 329.92 1.69821 330.54Z" fill="white"/>
<path d="M35.959 332.65C51.039 332.6 66.109 332.58 81.199 332.68C84.099 332.48 87.519 333.25 89.799 330.87C71.949 329.51 53.999 330.8 36.119 330.23C36.069 330.84 35.989 332.05 35.959 332.65Z" fill="white"/>
<path d="M336.339 332.26C331.829 332.06 326.029 329.8 322.449 333.52C327.019 333.64 332.309 335.2 336.339 332.26Z" fill="white"/>
<path d="M426.519 331.69C418.759 331.34 410.979 331.62 403.219 331.54C403.249 332.14 403.349 333.37 403.389 333.97C412.739 333.69 422.129 334.39 431.449 333.4C430.039 332.31 428.369 331.43 426.519 331.69Z" fill="white"/>
<path d="M129.358 340.88C125.808 337.61 120.638 339.49 116.348 339.02C111.168 339.56 105.338 337.65 100.648 340.49C110.118 342.05 119.818 341.67 129.358 340.88Z" fill="white"/>
<path d="M488.368 338.98C484.578 339.3 480.138 337.94 477.068 340.89C484.648 341.69 492.288 341.61 499.878 341.12C497.018 337.69 492.188 339.44 488.368 338.98Z" fill="white"/>
<path d="M508.26 339.97C508.78 342.87 514.39 342.95 514.88 339.99C513.98 337.54 509.22 337.56 508.26 339.97Z" fill="white"/>
<path d="M539.12 339.96C538.03 337.65 533.3 337.51 532.42 340.03C532.95 342.94 538.58 342.84 539.12 339.96Z" fill="white"/>
<path d="M22.4294 341.45C47.7494 341.28 73.0794 341.72 98.4194 341.32L98.1894 339.11C67.9394 338.99 37.6794 339.13 7.42938 339.03C4.94938 338.85 2.54938 339.37 0.359375 340.49C7.60938 342.02 15.0694 341.35 22.4294 341.45Z" fill="white"/>
<path d="M670.038 341.45L670.158 339.07C626.568 339.2 582.968 338.75 539.398 339.27C540.068 339.76 541.408 340.73 542.078 341.2C584.708 341.8 627.378 341.26 670.038 341.45Z" fill="white"/>
<path d="M419.229 67.38V72.16C419.249 72.16 419.249 72.16 419.259 72.16C420.639 71.25 420.809 68.02 419.229 67.38Z" fill="white"/>
<path d="M212.268 460.15C211.898 460.15 211.528 460.44 211.088 460.6C210.358 460.82 209.478 460.82 208.078 460.89C206.388 460.96 191.478 460.96 188.678 460.96C187.648 460.96 185.968 460.89 184.058 460.81C182.138 460.81 180.008 460.74 178.098 460.74C176.998 460.74 176.408 460.89 176.408 461.48C176.408 461.92 176.928 462.06 177.668 462.06C178.698 462.06 179.938 462.13 180.528 462.28C182.948 462.8 183.538 463.97 183.678 466.47C183.828 468.81 183.828 470.88 183.828 482.03V494.96C183.828 502.02 183.828 507.53 183.468 510.61C183.178 512.74 182.808 514.36 181.338 514.65C180.678 514.8 179.788 514.95 178.688 514.95C177.878 514.95 177.588 515.17 177.588 515.53C177.588 516.12 178.098 516.27 179.118 516.27C181.908 516.27 186.538 516.05 188.448 516.05C190.358 516.05 194.988 516.27 199.618 516.27C200.718 516.27 201.238 516.05 201.238 515.53C201.238 515.17 200.948 514.95 199.978 514.95C198.948 514.95 197.348 514.79 196.318 514.65C194.108 514.36 193.668 512.74 193.458 510.61C193.088 507.53 193.088 502.02 193.088 494.96V489.01C193.088 488.49 193.238 488.35 193.608 488.35C194.848 488.35 202.638 488.35 204.468 488.57C206.748 488.87 207.848 490.19 208.218 491.22C208.518 492.1 208.668 492.98 208.668 493.5C208.668 494.01 208.808 494.53 209.248 494.53C209.988 494.53 209.988 493.79 209.988 493.13C209.988 492.62 210.138 489.24 210.278 487.78C210.508 485.5 210.868 483.66 210.868 483.22C210.868 482.77 210.718 482.56 210.428 482.56C209.978 482.56 209.838 482.85 209.478 483.3C208.738 484.25 207.718 484.54 206.308 484.62C205.278 484.69 204.258 484.69 203.008 484.69L193.608 484.76C193.158 484.76 193.088 484.54 193.088 484.11V465.74C193.088 464.93 193.308 464.71 193.748 464.71L205.058 464.93C207.848 465 209.398 466.11 209.908 467.14C210.358 468.17 210.358 469.34 210.358 469.93C210.428 470.73 210.578 471.1 211.088 471.1C211.608 471.1 211.748 470.65 211.828 470.07C211.978 469.19 212.118 464.85 212.198 464.11C212.418 462.2 212.778 461.32 212.778 460.81C212.778 460.44 212.558 460.15 212.268 460.15Z" fill="white"/>
<path d="M285.5 514.95C284.62 514.95 283.52 514.88 282.41 514.65C280.88 514.29 278.75 513.26 275.96 506.65C271.26 495.48 259.5 466.11 257.74 462.06C257 460.37 256.57 459.72 255.9 459.72C255.16 459.72 254.73 460.53 253.85 462.66L235.41 508.19C233.95 511.86 232.55 514.37 229.17 514.8C228.58 514.88 227.55 514.96 226.89 514.96C226.31 514.96 226.01 515.11 226.01 515.54C226.01 516.13 226.46 516.28 227.41 516.28C231.23 516.28 235.26 516.06 236.07 516.06C238.35 516.06 241.51 516.28 243.85 516.28C244.66 516.28 245.11 516.13 245.11 515.54C245.11 515.11 244.88 514.96 244.01 514.96H242.9C240.63 514.96 239.96 514.01 239.96 512.68C239.96 511.8 240.33 510.03 241.06 508.2L245.04 498.15C245.19 497.7 245.33 497.56 245.69 497.56H262.08C262.44 497.56 262.66 497.71 262.82 498.08L268.69 513.21C269.05 514.09 268.54 514.74 268.03 514.9C267.29 514.97 267 515.12 267 515.55C267 516.07 267.88 516.07 269.2 516.14C275.09 516.29 280.44 516.29 283.09 516.29C285.81 516.29 286.47 516.14 286.47 515.55C286.46 515.02 286.08 514.95 285.5 514.95ZM260.67 493.86H247.16C246.87 493.86 246.8 493.64 246.87 493.35L253.63 475.34C253.7 475.05 253.85 474.69 254.06 474.69C254.27 474.69 254.36 475.05 254.43 475.34L261.04 493.42C261.12 493.64 261.05 493.86 260.67 493.86Z" fill="white"/>
<path d="M358.519 514.95C357.929 514.95 357.259 514.88 356.469 514.72C355.359 514.5 352.349 513.99 348.239 509.73C343.899 505.17 338.839 498.64 332.299 490.41C339.719 484.39 341.989 479.4 341.989 473.96C341.989 469.04 339.049 465.3 336.999 463.89C333.039 461.17 328.109 460.74 323.479 460.74C321.209 460.74 315.629 460.96 313.119 460.96C311.589 460.96 306.959 460.74 303.069 460.74C301.959 460.74 301.449 460.89 301.449 461.39C301.449 461.91 301.889 462.05 302.689 462.05C303.719 462.05 304.969 462.12 305.549 462.27C307.979 462.79 308.559 463.96 308.719 466.46C308.869 468.8 308.869 470.87 308.869 482.02V494.95C308.869 501.72 308.869 507.52 308.499 510.6C308.209 512.73 307.849 514.35 306.369 514.64C305.709 514.79 304.819 514.94 303.719 514.94C302.839 514.94 302.549 515.16 302.549 515.52C302.549 516.04 303.069 516.26 304.019 516.26C306.959 516.26 311.579 516.04 312.969 516.04C314.069 516.04 319.509 516.26 323.769 516.26C324.719 516.26 325.229 516.04 325.229 515.52C325.229 515.16 324.939 514.94 324.349 514.94C323.469 514.94 321.859 514.78 320.749 514.64C318.549 514.35 318.119 512.73 317.889 510.6C317.529 507.52 317.529 501.72 317.529 494.88V493.85C317.529 493.42 317.749 493.26 318.119 493.26L324.499 493.42C325.019 493.42 325.449 493.49 325.829 493.93C326.779 495.03 330.159 500.03 333.099 504.07C337.209 509.73 339.999 513.18 343.149 514.87C345.059 515.9 346.899 516.26 351.019 516.26H357.999C358.879 516.26 359.399 516.11 359.399 515.52C359.399 515.17 359.099 514.95 358.519 514.95ZM328.979 488.65C327.659 489.6 326.709 489.89 323.769 489.89C321.929 489.89 319.719 489.67 318.189 489.15C317.669 488.93 317.529 488.64 317.529 487.83V465.5C317.529 464.91 317.679 464.62 318.189 464.47C318.929 464.25 320.239 464.17 322.079 464.17C326.419 464.17 333.319 467.19 333.319 477.62C333.319 483.65 331.179 487.03 328.979 488.65Z" fill="white"/>
<path d="M442.769 515.09C441.819 515.09 440.339 515.02 438.209 514.35C435.999 513.69 435.269 511.56 434.609 506.93L427.929 461.98C427.699 460.43 427.269 459.71 426.599 459.71C425.949 459.71 425.569 460.29 424.989 461.47L404.999 502.82L384.949 461.97C383.999 460.06 383.549 459.7 382.969 459.7C382.379 459.7 381.939 460.35 381.709 461.61L374.449 508.91C374.079 511.41 373.499 514.28 371.439 514.71C370.329 514.94 369.819 514.94 369.229 514.94C368.489 514.94 368.059 515.09 368.059 515.45C368.059 516.11 368.649 516.26 369.379 516.26C371.739 516.26 375.269 516.04 376.649 516.04C377.979 516.04 381.279 516.26 384.359 516.26C385.459 516.26 386.119 516.11 386.119 515.45C386.119 515.09 385.609 514.94 385.019 514.94C384.279 514.94 383.259 514.87 381.939 514.57C380.679 514.28 379.729 513.62 379.729 512.23C379.729 511.05 379.799 510.09 379.959 508.77L383.779 480.12H384.069C386.639 485.63 391.039 494.31 391.709 495.84C392.589 497.89 398.389 509.13 400.159 512.52C401.329 514.72 402.069 516.19 402.729 516.19C403.389 516.19 403.759 515.53 405.449 512.08L421.459 479.32H421.749L426.159 511.27C426.449 513.32 426.229 514.28 425.789 514.42C425.279 514.64 424.989 514.87 424.989 515.23C424.989 515.66 425.429 515.89 427.119 516.04C430.059 516.26 440.199 516.4 442.029 516.4C443.059 516.4 443.939 516.18 443.939 515.59C443.939 515.17 443.419 515.09 442.769 515.09Z" fill="white"/>
<path d="M483.529 482.77L481.479 481.24C475.379 476.61 473.699 474.04 473.699 470.65C473.699 466.25 476.999 463.09 482.439 463.09C487.209 463.09 489.339 465.3 490.449 466.69C491.979 468.6 492.359 470.88 492.359 471.54C492.359 472.42 492.579 472.87 493.089 472.87C493.679 472.87 493.899 472.28 493.899 470.66C493.899 464.93 494.199 462.81 494.199 461.85C494.199 461.33 493.829 461.11 493.159 460.97C491.249 460.45 488.169 459.73 483.399 459.73C473.189 459.73 466.429 465.53 466.429 473.62C466.429 479.57 469.219 484.7 477.309 491.02L480.679 493.67C486.779 498.44 487.879 501.83 487.879 505.42C487.879 509.32 484.639 513.79 478.029 513.79C473.469 513.79 469.149 511.81 467.529 506.37C467.169 505.13 466.869 503.58 466.869 502.62C466.869 502.04 466.799 501.38 466.139 501.38C465.549 501.38 465.329 502.19 465.259 503.29C465.189 504.46 464.889 508.87 464.889 512.91C464.889 514.53 465.119 514.9 466.289 515.41C469.439 516.81 472.759 517.32 477.009 517.32C480.899 517.32 485.019 516.66 488.699 514.31C493.979 510.85 495.599 505.79 495.599 501.52C495.579 494.53 492.429 489.45 483.529 482.77Z" fill="white"/>
<path d="M167.849 492.51V484.49L0.128906 488.5L167.849 492.51Z" fill="white"/>
<path d="M504.148 484.49V492.51L671.868 488.5L504.148 484.49Z" fill="white"/>
<path d="M200.738 213.59C200.628 213.58 200.518 213.58 200.408 213.58C200.518 213.6 200.628 213.62 200.738 213.65V213.59Z" fill="white"/>
<path d="M176.85 164.7H161.67V181.69H176.85V164.7Z" fill="white"/>
<path d="M176.85 185.25H161.67V201.14H176.85V185.25Z" fill="white"/>
<path d="M198.128 164.7H180.408V181.69H198.128V164.7Z" fill="white"/>
<path d="M198.338 213.26V213.53C197.738 213.53 197.138 213.55 196.578 213.61V213.16H196.518C196.518 212.87 196.528 212.58 196.528 212.3V212.29C196.568 208.57 196.568 204.86 196.488 201.14H182.008C181.938 205.41 182.058 209.68 182.188 213.96C182.038 213.83 181.898 213.68 181.738 213.55C181.328 213.19 180.888 212.84 180.428 212.52C180.538 208.73 180.648 204.93 180.708 201.14H180.398V185.25H198.118V201.14H197.928C198.058 205.18 198.188 209.22 198.338 213.26Z" fill="white"/>
<path d="M463.749 185.18V201.51H450.529C450.459 204.12 450.289 206.74 449.139 209.15C448.979 206.6 448.949 204.05 448.959 201.51H446.289V185.18H463.749Z" fill="white"/>
<path d="M463.749 215.39V215.85L461.029 216.62C461.699 216.32 462.819 215.81 463.749 215.39Z" fill="white"/>
<path d="M467.599 221.57C466.399 220.97 465.689 220.01 465.219 218.92H467.109C467.239 219.81 467.409 220.69 467.599 221.57Z" fill="white"/>
<path d="M484.509 201.5C484.459 207.88 484.429 214.26 484.729 220.64C484.419 225.15 486.069 230.4 482.809 234.14C482.149 223.26 482.649 212.38 483.259 201.5H467.479V185.17H484.939V201.5H484.509Z" fill="white"/>
<path d="M463.749 162.86H446.289V181.46H463.749V162.86Z" fill="white"/>
<path d="M484.929 162.86H467.469V181.46H484.929V162.86Z" fill="white"/>
</svg>
